<?xml version="1.0" standalone="no"?>
<!DOCTYPE svg PUBLIC "-//W3C//DTD SVG 1.1//EN" "http://www.w3.org/Graphics/SVG/1.1/DTD/svg11.dtd" >
<svg>
<metadata>
Created by FontForge 20090914 at Mon Jun 21 12:33:00 2021
 By www-data
&#194;&#169; 2015-2017 Apple Inc. All rights reserved.
</metadata>
<defs>
<font id="SFProText-Medium" horiz-adv-x="1800" >
  <font-face 
    font-family="SF Pro Text"
    font-weight="500"
    font-stretch="normal"
    units-per-em="2048"
    panose-1="0 0 6 0 0 0 0 0 0 0"
    ascent="1638"
    descent="-410"
    x-height="1089"
    cap-height="1443"
    bbox="-620 -572.002 2731 2212"
    underline-thickness="154"
    underline-position="-373"
    unicode-range="U+0020-U+1F189"
  />
<missing-glyph horiz-adv-x="2048" 
d="M100 -494v247h1848v-247h-1848zM100 -55v247h1848v-247h-1848zM100 385v247h1848v-247h-1848zM100 824v247h1848v-247h-1848zM100 1264v247h1848v-247h-1848zM100 1703v247h1848v-247h-1848z" />
    <glyph glyph-name="uni2460" unicode="&#x31;&#x20dd;" 
d="M1012 385h-156v545h-7l-163 -111v143l170 116h156v-693zM900 99c85.333 0 166.5 16.333 243.5 49s142.833 76.834 197.5 132.501s98 121.667 130 198s48 156.833 48 241.5s-16 165.167 -48 241.5s-75.333 142.333 -130 198s-120.5 99.834 -197.5 132.501
s-158.167 49 -243.5 49s-166.5 -16.333 -243.5 -49s-142.833 -76.834 -197.5 -132.501s-98 -121.667 -130 -198s-48 -156.833 -48 -241.5s16 -165.167 48 -241.5s75.333 -142.333 130 -198s120.5 -99.834 197.5 -132.501s158.167 -49 243.5 -49zM900 -52
c-104.667 0 -204.667 20.333 -300 61s-177.5 95.5 -246.5 164.5s-123.833 151.167 -164.5 246.5s-61 195.666 -61 300.999c0 104.667 20.333 204.834 61 300.501s95.5 178 164.5 247s151.167 123.833 246.5 164.5s195.333 61 300 61s204.667 -20.333 300 -61
s177.5 -95.5 246.5 -164.5s123.833 -151.333 164.5 -247s61 -195.834 61 -300.501c0 -105.333 -20.333 -205.666 -61 -300.999s-95.5 -177.5 -164.5 -246.5s-151.167 -123.833 -246.5 -164.5s-195.333 -61 -300 -61z" />
    <glyph glyph-name="uni2461" unicode="&#x32;&#x20dd;" 
d="M794 864l-146.001 -0.00292969v4c0 62.667 22.167 115.334 66.5 158.001s106.5 64 186.5 64c74.667 0 134.834 -18.667 180.501 -56s68.5 -85 68.5 -143c0 -27.333 -6.5 -54.166 -19.5 -80.499s-27 -48.333 -42 -66s-37.167 -41.167 -66.5 -70.5l-154 -154v-7h295v-128
h-508v99l262 260c18 18.667 31.5 33.167 40.5 43.5s17.833 24 26.5 41s13 33.5 13 49.5c0 25.333 -9.5 46 -28.5 62s-42.833 24 -71.5 24c-32 0 -57.167 -9.16699 -75.5 -27.5s-27.5 -41.166 -27.5 -68.499v-4zM899.999 98.9971c85.333 0 166.5 16.333 243.5 49
s142.833 76.834 197.5 132.501s98 121.667 130 198s48 156.833 48 241.5s-16 165.167 -48 241.5s-75.333 142.333 -130 198s-120.5 99.834 -197.5 132.501s-158.167 49 -243.5 49s-166.5 -16.333 -243.5 -49s-142.833 -76.834 -197.5 -132.501s-98 -121.667 -130 -198
s-48 -156.833 -48 -241.5s16 -165.167 48 -241.5s75.333 -142.333 130 -198s120.5 -99.834 197.5 -132.501s158.167 -49 243.5 -49zM899.999 -52.0029c-104.667 0 -204.667 20.333 -300 61s-177.5 95.5 -246.5 164.5s-123.833 151.167 -164.5 246.5s-61 195.666 -61 300.999
c0 104.667 20.333 204.834 61 300.501s95.5 178 164.5 247s151.167 123.833 246.5 164.5s195.333 61 300 61s204.667 -20.333 300 -61s177.5 -95.5 246.5 -164.5s123.833 -151.333 164.5 -247s61 -195.834 61 -300.501c0 -105.333 -20.333 -205.666 -61 -300.999
s-95.5 -177.5 -164.5 -246.5s-151.167 -123.833 -246.5 -164.5s-195.333 -61 -300 -61z" />
    <glyph glyph-name="uni2462" unicode="&#x33;&#x20dd;" 
d="M822 680l-0.000976562 119.996h74c30.667 0 56 8.33301 76 25s30 37.667 30 63c-0.666992 24.667 -10.834 44.667 -30.501 60s-44.834 23 -75.501 23c-31.333 0 -57 -8 -77 -24s-30.667 -35.667 -32 -59h-144c2 60.667 25.333 109.334 70 146.001
s106.667 55.334 186 56.001c76 0 137 -16.833 183 -50.5s69.667 -77.5 71 -131.5c0.666992 -41.333 -13.333 -76.166 -42 -104.499s-59.334 -45.166 -92.001 -50.499v-8c39.333 -4 74.833 -20.333 106.5 -49s47.834 -67.334 48.501 -116.001
c0.666992 -63.333 -25.166 -113.666 -77.499 -150.999s-119.166 -56 -200.499 -56c-80 0 -143.833 19 -191.5 57s-72.167 86.667 -73.5 146h142c2.66699 -24 15.334 -43.667 38.001 -59s51 -23 85 -23c37.333 0 67.5 8.66699 90.5 26s34.5 40 34.5 68
c-0.666992 27.333 -12 49.5 -34 66.5s-51.333 25.5 -88 25.5h-77zM899.999 98.9961c85.333 0 166.5 16.333 243.5 49s142.833 76.834 197.5 132.501s98 121.667 130 198s48 156.833 48 241.5s-16 165.167 -48 241.5s-75.333 142.333 -130 198s-120.5 99.834 -197.5 132.501
s-158.167 49 -243.5 49s-166.5 -16.333 -243.5 -49s-142.833 -76.834 -197.5 -132.501s-98 -121.667 -130 -198s-48 -156.833 -48 -241.5s16 -165.167 48 -241.5s75.333 -142.333 130 -198s120.5 -99.834 197.5 -132.501s158.167 -49 243.5 -49zM899.999 -52.0039
c-104.667 0 -204.667 20.333 -300 61s-177.5 95.5 -246.5 164.5s-123.833 151.167 -164.5 246.5s-61 195.666 -61 300.999c0 104.667 20.333 204.834 61 300.501s95.5 178 164.5 247s151.167 123.833 246.5 164.5s195.333 61 300 61s204.667 -20.333 300 -61
s177.5 -95.5 246.5 -164.5s123.833 -151.333 164.5 -247s61 -195.834 61 -300.501c0 -105.333 -20.333 -205.666 -61 -300.999s-95.5 -177.5 -164.5 -246.5s-151.167 -123.833 -246.5 -164.5s-195.333 -61 -300 -61z" />
    <glyph glyph-name="uni2463" unicode="&#x34;&#x20dd;" 
d="M856 1078h219v-445h92v-124h-92v-124h-139v124h-350v126l66 114l63 103.5l73 117zM725 633h211v329h-9c-92 -142 -159.333 -250.667 -202 -326v-3zM900 99c85.333 0 166.5 16.333 243.5 49s142.833 76.834 197.5 132.501s98 121.667 130 198s48 156.833 48 241.5
s-16 165.167 -48 241.5s-75.333 142.333 -130 198s-120.5 99.834 -197.5 132.501s-158.167 49 -243.5 49s-166.5 -16.333 -243.5 -49s-142.833 -76.834 -197.5 -132.501s-98 -121.667 -130 -198s-48 -156.833 -48 -241.5s16 -165.167 48 -241.5s75.333 -142.333 130 -198
s120.5 -99.834 197.5 -132.501s158.167 -49 243.5 -49zM900 -52c-104.667 0 -204.667 20.333 -300 61s-177.5 95.5 -246.5 164.5s-123.833 151.167 -164.5 246.5s-61 195.666 -61 300.999c0 104.667 20.333 204.834 61 300.501s95.5 178 164.5 247
s151.167 123.833 246.5 164.5s195.333 61 300 61s204.667 -20.333 300 -61s177.5 -95.5 246.5 -164.5s123.833 -151.333 164.5 -247s61 -195.834 61 -300.501c0 -105.333 -20.333 -205.666 -61 -300.999s-95.5 -177.5 -164.5 -246.5s-151.167 -123.833 -246.5 -164.5
s-195.333 -61 -300 -61z" />
    <glyph glyph-name="uni2464" unicode="&#x35;&#x20dd;" 
d="M644 575h144.001c5.33301 -24.667 19.333 -43.667 42 -57s49 -20 79 -20c33.333 0 62.166 11 86.499 33s36.5 51.333 36.5 88c0 33.333 -12 60.5 -36 81.5s-53.333 31.5 -88 31.5c-27.333 0 -50.666 -5.83301 -69.999 -17.5s-33.333 -25.5 -42 -41.5h-137l30 408h451
v-122h-329l-16 -174h8c9.33301 16 27.166 30.333 53.499 43s57.833 19 94.5 19c66 0 121 -20.167 165 -60.5s66 -94.833 66 -163.5c0 -74.667 -25.333 -134.667 -76 -180s-117.667 -68 -201 -68c-75.333 0 -137 18.833 -185 56.5s-73.333 85.5 -76 143.5zM900.001 99
c85.333 0 166.5 16.333 243.5 49s142.833 76.834 197.5 132.501s98 121.667 130 198s48 156.833 48 241.5s-16 165.167 -48 241.5s-75.333 142.333 -130 198s-120.5 99.834 -197.5 132.501s-158.167 49 -243.5 49s-166.5 -16.333 -243.5 -49
s-142.833 -76.834 -197.5 -132.501s-98 -121.667 -130 -198s-48 -156.833 -48 -241.5s16 -165.167 48 -241.5s75.333 -142.333 130 -198s120.5 -99.834 197.5 -132.501s158.167 -49 243.5 -49zM900.001 -52c-104.667 0 -204.667 20.333 -300 61s-177.5 95.5 -246.5 164.5
s-123.833 151.167 -164.5 246.5s-61 195.666 -61 300.999c0 104.667 20.333 204.834 61 300.501s95.5 178 164.5 247s151.167 123.833 246.5 164.5s195.333 61 300 61s204.667 -20.333 300 -61s177.5 -95.5 246.5 -164.5s123.833 -151.333 164.5 -247
s61 -195.834 61 -300.501c0 -105.333 -20.333 -205.666 -61 -300.999s-95.5 -177.5 -164.5 -246.5s-151.167 -123.833 -246.5 -164.5s-195.333 -61 -300 -61z" />
    <glyph glyph-name="uni2465" unicode="&#x36;&#x20dd;" 
d="M1170 623c0 -74.667 -24.8311 -135 -74.498 -181s-114.5 -69 -194.5 -69c-80.667 0 -146.334 23.5 -197.001 70.5s-76 108.5 -76 184.5c0 82 32.667 169 98 261c6 10 27.667 39.5 65 88.5l78 100.5h179l-101 -124.5c-48 -60.333 -76.667 -97.5 -86 -111.5
c-8.66699 -11.333 -17.334 -24.333 -26.001 -39l9 -2c28 26 66.333 39 115 39c60.667 0 111 -20.5 151 -61.5s60 -92.833 60 -155.5zM780.002 615c0 -32.667 11.333 -60 34 -82s51.334 -33 86.001 -33s63.334 11 86.001 33s34 49.333 34 82c0 33.333 -11.333 61 -34 83
s-51.334 33 -86.001 33s-63.334 -11 -86.001 -33s-34 -49.667 -34 -83zM900.002 99c85.333 0 166.5 16.333 243.5 49s142.833 76.834 197.5 132.501s98 121.667 130 198s48 156.833 48 241.5s-16 165.167 -48 241.5s-75.333 142.333 -130 198s-120.5 99.834 -197.5 132.501
s-158.167 49 -243.5 49s-166.5 -16.333 -243.5 -49s-142.833 -76.834 -197.5 -132.501s-98 -121.667 -130 -198s-48 -156.833 -48 -241.5s16 -165.167 48 -241.5s75.333 -142.333 130 -198s120.5 -99.834 197.5 -132.501s158.167 -49 243.5 -49zM900.002 -52
c-104.667 0 -204.667 20.333 -300 61s-177.5 95.5 -246.5 164.5s-123.833 151.167 -164.5 246.5s-61 195.666 -61 300.999c0 104.667 20.333 204.834 61 300.501s95.5 178 164.5 247s151.167 123.833 246.5 164.5s195.333 61 300 61s204.667 -20.333 300 -61
s177.5 -95.5 246.5 -164.5s123.833 -151.333 164.5 -247s61 -195.834 61 -300.501c0 -105.333 -20.333 -205.666 -61 -300.999s-95.5 -177.5 -164.5 -246.5s-151.167 -123.833 -246.5 -164.5s-195.333 -61 -300 -61z" />
    <glyph glyph-name="uni2466" unicode="&#x37;&#x20dd;" 
d="M660 1071h509v-130l-288 -563h-164l295 558v6h-352v129zM900 99c85.333 0 166.5 16.333 243.5 49s142.833 76.834 197.5 132.501s98 121.667 130 198s48 156.833 48 241.5s-16 165.167 -48 241.5s-75.333 142.333 -130 198s-120.5 99.834 -197.5 132.501
s-158.167 49 -243.5 49s-166.5 -16.333 -243.5 -49s-142.833 -76.834 -197.5 -132.501s-98 -121.667 -130 -198s-48 -156.833 -48 -241.5s16 -165.167 48 -241.5s75.333 -142.333 130 -198s120.5 -99.834 197.5 -132.501s158.167 -49 243.5 -49zM900 -52
c-104.667 0 -204.667 20.333 -300 61s-177.5 95.5 -246.5 164.5s-123.833 151.167 -164.5 246.5s-61 195.666 -61 300.999c0 104.667 20.333 204.834 61 300.501s95.5 178 164.5 247s151.167 123.833 246.5 164.5s195.333 61 300 61s204.667 -20.333 300 -61
s177.5 -95.5 246.5 -164.5s123.833 -151.333 164.5 -247s61 -195.834 61 -300.501c0 -105.333 -20.333 -205.666 -61 -300.999s-95.5 -177.5 -164.5 -246.5s-151.167 -123.833 -246.5 -164.5s-195.333 -61 -300 -61z" />
    <glyph glyph-name="uni2467" unicode="&#x38;&#x20dd;" 
d="M900 484c37.333 0 68.167 9.83203 92.5 29.499s36.5 44.834 36.5 75.501s-12 55.834 -36 75.501s-55 29.5 -93 29.5s-69.167 -10 -93.5 -30s-36.5 -45 -36.5 -75c0 -30.667 12.167 -55.834 36.5 -75.501s55.5 -29.5 93.5 -29.5zM900.001 796.999
c31.333 0 57.166 8.66699 77.499 26s30.5 39.333 30.5 66c0 26 -10.167 47.5 -30.5 64.5s-46.166 25.5 -77.499 25.5s-57.166 -8.5 -77.499 -25.5s-30.5 -38.5 -30.5 -64.5c0 -26.667 10.167 -48.667 30.5 -66s46.166 -26 77.499 -26zM898.001 372.999
c-86 0 -154.833 18.668 -206.5 56.001s-77.5 87 -77.5 149c0 42.667 14 79.5 42 110.5s65 50.833 111 59.5v6c-39.333 12 -69.833 31.167 -91.5 57.5s-32.5 57.833 -32.5 94.5c0 54.667 23.833 99 71.5 133s109.5 51 185.5 51s137.833 -17 185.5 -51s71.5 -78.333 71.5 -133
c0 -36.667 -10.833 -68.334 -32.5 -95.001s-52.167 -45.667 -91.5 -57v-6c46 -8.66699 83 -28.5 111 -59.5s42 -67.833 42 -110.5c0 -62 -26.5 -111.667 -79.5 -149s-122.5 -56 -208.5 -56zM900.001 99c85.333 0 166.5 16.333 243.5 49s142.833 76.834 197.5 132.501
s98 121.667 130 198s48 156.833 48 241.5s-16 165.167 -48 241.5s-75.333 142.333 -130 198s-120.5 99.834 -197.5 132.501s-158.167 49 -243.5 49s-166.5 -16.333 -243.5 -49s-142.833 -76.834 -197.5 -132.501s-98 -121.667 -130 -198s-48 -156.833 -48 -241.5
s16 -165.167 48 -241.5s75.333 -142.333 130 -198s120.5 -99.834 197.5 -132.501s158.167 -49 243.5 -49zM900.001 -52c-104.667 0 -204.667 20.333 -300 61s-177.5 95.5 -246.5 164.5s-123.833 151.167 -164.5 246.5s-61 195.666 -61 300.999
c0 104.667 20.333 204.834 61 300.501s95.5 178 164.5 247s151.167 123.833 246.5 164.5s195.333 61 300 61s204.667 -20.333 300 -61s177.5 -95.5 246.5 -164.5s123.833 -151.333 164.5 -247s61 -195.834 61 -300.501c0 -105.333 -20.333 -205.666 -61 -300.999
s-95.5 -177.5 -164.5 -246.5s-151.167 -123.833 -246.5 -164.5s-195.333 -61 -300 -61z" />
    <glyph glyph-name="uni2468" unicode="&#x39;&#x20dd;" 
d="M629 841c0 74 24.834 134.001 74.501 180.001s114.5 69 194.5 69c80.667 0 146.167 -23.5 196.5 -70.5s75.5 -108.5 75.5 -184.5c0 -82 -32.333 -169 -97 -261c-6 -10 -28.167 -40.167 -66.5 -90.5s-63.833 -82.833 -76.5 -97.5h-179l100 123
c48.667 60.667 77.667 98 87 112c7.33301 9.33301 16 22.666 26 39.999l-9 1c-29.333 -26 -68 -39 -116 -39c-60.667 0 -110.834 20.667 -150.501 62s-59.5 93.333 -59.5 156zM1019 848.001c0 33.333 -11.333 60.833 -34 82.5s-51.334 32.5 -86.001 32.5
s-63.5 -10.833 -86.5 -32.5s-34.5 -49.167 -34.5 -82.5s11.5 -60.833 34.5 -82.5s51.833 -32.5 86.5 -32.5s63.334 10.833 86.001 32.5s34 49.167 34 82.5zM900.001 99.001c85.333 0 166.5 16.333 243.5 49s142.833 76.834 197.5 132.501s98 121.667 130 198
s48 156.833 48 241.5s-16 165.167 -48 241.5s-75.333 142.333 -130 198s-120.5 99.834 -197.5 132.501s-158.167 49 -243.5 49s-166.5 -16.333 -243.5 -49s-142.833 -76.834 -197.5 -132.501s-98 -121.667 -130 -198s-48 -156.833 -48 -241.5s16 -165.167 48 -241.5
s75.333 -142.333 130 -198s120.5 -99.834 197.5 -132.501s158.167 -49 243.5 -49zM900.001 -51.999c-104.667 0 -204.667 20.333 -300 61s-177.5 95.5 -246.5 164.5s-123.833 151.167 -164.5 246.5s-61 195.666 -61 300.999c0 104.667 20.333 204.834 61 300.501
s95.5 178 164.5 247s151.167 123.833 246.5 164.5s195.333 61 300 61s204.667 -20.333 300 -61s177.5 -95.5 246.5 -164.5s123.833 -151.333 164.5 -247s61 -195.834 61 -300.501c0 -105.333 -20.333 -205.666 -61 -300.999s-95.5 -177.5 -164.5 -246.5
s-151.167 -123.833 -246.5 -164.5s-195.333 -61 -300 -61z" />
    <glyph glyph-name="uni24B6" unicode="A&#x20dd;" 
d="M808 688h184l-86 266h-12zM725 408h-156l240 693h182l240 -693h-156l-53 163h-244zM900 99c85.333 0 166.5 16.333 243.5 49s142.833 76.834 197.5 132.501s98 121.667 130 198s48 156.833 48 241.5s-16 165.167 -48 241.5s-75.333 142.333 -130 198
s-120.5 99.834 -197.5 132.501s-158.167 49 -243.5 49s-166.5 -16.333 -243.5 -49s-142.833 -76.834 -197.5 -132.501s-98 -121.667 -130 -198s-48 -156.833 -48 -241.5s16 -165.167 48 -241.5s75.333 -142.333 130 -198s120.5 -99.834 197.5 -132.501
s158.167 -49 243.5 -49zM900 -52c-104.667 0 -204.667 20.333 -300 61s-177.5 95.5 -246.5 164.5s-123.833 151.167 -164.5 246.5s-61 195.666 -61 300.999c0 104.667 20.333 204.834 61 300.501s95.5 178 164.5 247s151.167 123.833 246.5 164.5s195.333 61 300 61
s204.667 -20.333 300 -61s177.5 -95.5 246.5 -164.5s123.833 -151.333 164.5 -247s61 -195.834 61 -300.501c0 -105.333 -20.333 -205.666 -61 -300.999s-95.5 -177.5 -164.5 -246.5s-151.167 -123.833 -246.5 -164.5s-195.333 -61 -300 -61z" />
    <glyph glyph-name="uni24B7" unicode="B&#x20dd;" 
d="M651 385v693.001h312c65.333 0 117.166 -15.333 155.499 -46s57.5 -72.334 57.5 -125.001c0 -39.333 -11.5 -72.166 -34.5 -98.499s-53.5 -43.833 -91.5 -52.5v-6c48.667 -6 87.834 -23.833 117.501 -53.5s44.5 -68.834 44.5 -117.501
c0 -59.333 -22.833 -106.5 -68.5 -141.5s-105.5 -52.5 -179.5 -52.5h-313zM801 967.001v-174h91c90 0 135 29.667 135 89c0 26 -9.16699 46.667 -27.5 62s-43.5 23 -75.5 23h-123zM801 693.001v-193.001h102c54 0 93.167 7.66699 117.5 23s36.5 39 36.5 71
c0 30.667 -11 54.834 -33 72.501s-52.667 26.5 -92 26.5h-131zM900 99c85.333 0 166.5 16.333 243.5 49s142.833 76.834 197.5 132.501s98 121.667 130 198s48 156.833 48 241.5s-16 165.167 -48 241.5s-75.333 142.333 -130 198s-120.5 99.834 -197.5 132.501
s-158.167 49 -243.5 49s-166.5 -16.333 -243.5 -49s-142.833 -76.834 -197.5 -132.501s-98 -121.667 -130 -198s-48 -156.833 -48 -241.5s16 -165.167 48 -241.5s75.333 -142.333 130 -198s120.5 -99.834 197.5 -132.501s158.167 -49 243.5 -49zM900 -52
c-104.667 0 -204.667 20.333 -300 61s-177.5 95.5 -246.5 164.5s-123.833 151.167 -164.5 246.5s-61 195.666 -61 300.999c0 104.667 20.333 204.834 61 300.501s95.5 178 164.5 247s151.167 123.833 246.5 164.5s195.333 61 300 61s204.667 -20.333 300 -61
s177.5 -95.5 246.5 -164.5s123.833 -151.333 164.5 -247s61 -195.834 61 -300.501c0 -105.333 -20.333 -205.666 -61 -300.999s-95.5 -177.5 -164.5 -246.5s-151.167 -123.833 -246.5 -164.5s-195.333 -61 -300 -61z" />
    <glyph glyph-name="uni24B8" unicode="C&#x20dd;" 
d="M1054 619l151.998 -0.000976562c-9.33301 -74 -41.833 -133.5 -97.5 -178.5s-125.5 -67.5 -209.5 -67.5c-98 0 -177.333 32.667 -238 98s-91 152 -91 260s30.333 194.833 91 260.5s140 98.5 238 98.5c86 0 156.833 -23.167 212.5 -69.5s87.5 -107.5 95.5 -183.5h-149
c-4.66699 35.333 -21.667 64.5 -51 87.5s-64.666 34.5 -105.999 34.5c-53.333 0 -96 -20.667 -128 -62s-48 -96.666 -48 -165.999s16 -124.5 48 -165.5s74.667 -61.5 128 -61.5c40 0 74.333 10.833 103 32.5s45.334 49.167 50.001 82.5zM899.998 98.999
c85.333 0 166.5 16.333 243.5 49s142.833 76.834 197.5 132.501s98 121.667 130 198s48 156.833 48 241.5s-16 165.167 -48 241.5s-75.333 142.333 -130 198s-120.5 99.834 -197.5 132.501s-158.167 49 -243.5 49s-166.5 -16.333 -243.5 -49
s-142.833 -76.834 -197.5 -132.501s-98 -121.667 -130 -198s-48 -156.833 -48 -241.5s16 -165.167 48 -241.5s75.333 -142.333 130 -198s120.5 -99.834 197.5 -132.501s158.167 -49 243.5 -49zM899.998 -52.001c-104.667 0 -204.667 20.333 -300 61
s-177.5 95.5 -246.5 164.5s-123.833 151.167 -164.5 246.5s-61 195.666 -61 300.999c0 104.667 20.333 204.834 61 300.501s95.5 178 164.5 247s151.167 123.833 246.5 164.5s195.333 61 300 61s204.667 -20.333 300 -61s177.5 -95.5 246.5 -164.5
s123.833 -151.333 164.5 -247s61 -195.834 61 -300.501c0 -105.333 -20.333 -205.666 -61 -300.999s-95.5 -177.5 -164.5 -246.5s-151.167 -123.833 -246.5 -164.5s-195.333 -61 -300 -61z" />
    <glyph glyph-name="uni24B9" unicode="D&#x20dd;" 
d="M646 1078h272c106.667 0 187.167 -29.5 241.5 -88.5s81.5 -144.5 81.5 -256.5s-27.167 -198 -81.5 -258s-134.833 -90 -241.5 -90h-272v693zM799 952v-440h97c64 0 111.167 18 141.5 54s45.5 91 45.5 165c0 74.667 -15.333 130.167 -46 166.5s-77.667 54.5 -141 54.5h-97
zM900 99c85.333 0 166.5 16.333 243.5 49s142.833 76.834 197.5 132.501s98 121.667 130 198s48 156.833 48 241.5s-16 165.167 -48 241.5s-75.333 142.333 -130 198s-120.5 99.834 -197.5 132.501s-158.167 49 -243.5 49s-166.5 -16.333 -243.5 -49
s-142.833 -76.834 -197.5 -132.501s-98 -121.667 -130 -198s-48 -156.833 -48 -241.5s16 -165.167 48 -241.5s75.333 -142.333 130 -198s120.5 -99.834 197.5 -132.501s158.167 -49 243.5 -49zM900 -52c-104.667 0 -204.667 20.333 -300 61s-177.5 95.5 -246.5 164.5
s-123.833 151.167 -164.5 246.5s-61 195.666 -61 300.999c0 104.667 20.333 204.834 61 300.501s95.5 178 164.5 247s151.167 123.833 246.5 164.5s195.333 61 300 61s204.667 -20.333 300 -61s177.5 -95.5 246.5 -164.5s123.833 -151.333 164.5 -247
s61 -195.834 61 -300.501c0 -105.333 -20.333 -205.666 -61 -300.999s-95.5 -177.5 -164.5 -246.5s-151.167 -123.833 -246.5 -164.5s-195.333 -61 -300 -61z" />
    <glyph glyph-name="uni24BA" unicode="E&#x20dd;" 
d="M1143 511v-126h-472v693h472v-125h-321v-161h302v-114h-302v-167h321zM900 99c85.333 0 166.5 16.333 243.5 49s142.833 76.834 197.5 132.501s98 121.667 130 198s48 156.833 48 241.5s-16 165.167 -48 241.5s-75.333 142.333 -130 198s-120.5 99.834 -197.5 132.501
s-158.167 49 -243.5 49s-166.5 -16.333 -243.5 -49s-142.833 -76.834 -197.5 -132.501s-98 -121.667 -130 -198s-48 -156.833 -48 -241.5s16 -165.167 48 -241.5s75.333 -142.333 130 -198s120.5 -99.834 197.5 -132.501s158.167 -49 243.5 -49zM900 -52
c-104.667 0 -204.667 20.333 -300 61s-177.5 95.5 -246.5 164.5s-123.833 151.167 -164.5 246.5s-61 195.666 -61 300.999c0 104.667 20.333 204.834 61 300.501s95.5 178 164.5 247s151.167 123.833 246.5 164.5s195.333 61 300 61s204.667 -20.333 300 -61
s177.5 -95.5 246.5 -164.5s123.833 -151.333 164.5 -247s61 -195.834 61 -300.501c0 -105.333 -20.333 -205.666 -61 -300.999s-95.5 -177.5 -164.5 -246.5s-151.167 -123.833 -246.5 -164.5s-195.333 -61 -300 -61z" />
    <glyph glyph-name="uni24BB" unicode="F&#x20dd;" 
d="M852 385h-155v693h468v-127h-313v-173h286v-126h-286v-267zM900 99c85.333 0 166.5 16.333 243.5 49s142.833 76.834 197.5 132.501s98 121.667 130 198s48 156.833 48 241.5s-16 165.167 -48 241.5s-75.333 142.333 -130 198s-120.5 99.834 -197.5 132.501
s-158.167 49 -243.5 49s-166.5 -16.333 -243.5 -49s-142.833 -76.834 -197.5 -132.501s-98 -121.667 -130 -198s-48 -156.833 -48 -241.5s16 -165.167 48 -241.5s75.333 -142.333 130 -198s120.5 -99.834 197.5 -132.501s158.167 -49 243.5 -49zM900 -52
c-104.667 0 -204.667 20.333 -300 61s-177.5 95.5 -246.5 164.5s-123.833 151.167 -164.5 246.5s-61 195.666 -61 300.999c0 104.667 20.333 204.834 61 300.501s95.5 178 164.5 247s151.167 123.833 246.5 164.5s195.333 61 300 61s204.667 -20.333 300 -61
s177.5 -95.5 246.5 -164.5s123.833 -151.333 164.5 -247s61 -195.834 61 -300.501c0 -105.333 -20.333 -205.666 -61 -300.999s-95.5 -177.5 -164.5 -246.5s-151.167 -123.833 -246.5 -164.5s-195.333 -61 -300 -61z" />
    <glyph glyph-name="uni24BC" unicode="G&#x20dd;" 
d="M1057 608l0.000976562 44h-148v108h293v-121c0 -79.333 -26.5 -143.5 -79.5 -192.5s-127.167 -73.5 -222.5 -73.5c-98.667 0 -178.334 33 -239.001 99s-91 152.333 -91 259c0 107.333 30.333 194 91 260s140.334 99 239.001 99c82.667 0 152.167 -21.667 208.5 -65
s88.833 -100.666 97.5 -171.999h-151c-4.66699 32.667 -21.334 59.334 -50.001 80.001s-62.667 31 -102 31c-54 0 -97.167 -21.167 -129.5 -63.5s-48.5 -98.833 -48.5 -169.5s16.167 -127.334 48.5 -170.001s75.5 -64 129.5 -64c48.667 0 86.5 10.167 113.5 30.5
s40.5 47.166 40.5 80.499zM900.001 99c85.333 0 166.5 16.333 243.5 49s142.833 76.834 197.5 132.501s98 121.667 130 198s48 156.833 48 241.5s-16 165.167 -48 241.5s-75.333 142.333 -130 198s-120.5 99.834 -197.5 132.501s-158.167 49 -243.5 49
s-166.5 -16.333 -243.5 -49s-142.833 -76.834 -197.5 -132.501s-98 -121.667 -130 -198s-48 -156.833 -48 -241.5s16 -165.167 48 -241.5s75.333 -142.333 130 -198s120.5 -99.834 197.5 -132.501s158.167 -49 243.5 -49zM900.001 -52c-104.667 0 -204.667 20.333 -300 61
s-177.5 95.5 -246.5 164.5s-123.833 151.167 -164.5 246.5s-61 195.666 -61 300.999c0 104.667 20.333 204.834 61 300.501s95.5 178 164.5 247s151.167 123.833 246.5 164.5s195.333 61 300 61s204.667 -20.333 300 -61s177.5 -95.5 246.5 -164.5
s123.833 -151.333 164.5 -247s61 -195.834 61 -300.501c0 -105.333 -20.333 -205.666 -61 -300.999s-95.5 -177.5 -164.5 -246.5s-151.167 -123.833 -246.5 -164.5s-195.333 -61 -300 -61z" />
    <glyph glyph-name="uni24BD" unicode="H&#x20dd;" 
d="M1198 385h-151v287h-293v-287h-151v693h151v-276h293v276h151v-693zM900 99c85.333 0 166.5 16.333 243.5 49s142.833 76.834 197.5 132.501s98 121.667 130 198s48 156.833 48 241.5s-16 165.167 -48 241.5s-75.333 142.333 -130 198s-120.5 99.834 -197.5 132.501
s-158.167 49 -243.5 49s-166.5 -16.333 -243.5 -49s-142.833 -76.834 -197.5 -132.501s-98 -121.667 -130 -198s-48 -156.833 -48 -241.5s16 -165.167 48 -241.5s75.333 -142.333 130 -198s120.5 -99.834 197.5 -132.501s158.167 -49 243.5 -49zM900 -52
c-104.667 0 -204.667 20.333 -300 61s-177.5 95.5 -246.5 164.5s-123.833 151.167 -164.5 246.5s-61 195.666 -61 300.999c0 104.667 20.333 204.834 61 300.501s95.5 178 164.5 247s151.167 123.833 246.5 164.5s195.333 61 300 61s204.667 -20.333 300 -61
s177.5 -95.5 246.5 -164.5s123.833 -151.333 164.5 -247s61 -195.834 61 -300.501c0 -105.333 -20.333 -205.666 -61 -300.999s-95.5 -177.5 -164.5 -246.5s-151.167 -123.833 -246.5 -164.5s-195.333 -61 -300 -61z" />
    <glyph glyph-name="uni24BE" unicode="I&#x20dd;" 
d="M981 385h-162v693h162v-693zM900 99c85.333 0 166.5 16.333 243.5 49s142.833 76.834 197.5 132.501s98 121.667 130 198s48 156.833 48 241.5s-16 165.167 -48 241.5s-75.333 142.333 -130 198s-120.5 99.834 -197.5 132.501s-158.167 49 -243.5 49
s-166.5 -16.333 -243.5 -49s-142.833 -76.834 -197.5 -132.501s-98 -121.667 -130 -198s-48 -156.833 -48 -241.5s16 -165.167 48 -241.5s75.333 -142.333 130 -198s120.5 -99.834 197.5 -132.501s158.167 -49 243.5 -49zM900 -52c-104.667 0 -204.667 20.333 -300 61
s-177.5 95.5 -246.5 164.5s-123.833 151.167 -164.5 246.5s-61 195.666 -61 300.999c0 104.667 20.333 204.834 61 300.501s95.5 178 164.5 247s151.167 123.833 246.5 164.5s195.333 61 300 61s204.667 -20.333 300 -61s177.5 -95.5 246.5 -164.5
s123.833 -151.333 164.5 -247s61 -195.834 61 -300.501c0 -105.333 -20.333 -205.666 -61 -300.999s-95.5 -177.5 -164.5 -246.5s-151.167 -123.833 -246.5 -164.5s-195.333 -61 -300 -61z" />
    <glyph glyph-name="uni24BF" unicode="J&#x20dd;" 
d="M624 596l150.001 0.00195312c0.666992 -26.667 9.16699 -47.834 25.5 -63.501s38.166 -23.5 65.499 -23.5c63.333 0 95 34.667 95 104v460h155v-459c0 -78 -22 -138.5 -66 -181.5s-104.667 -64.5 -182 -64.5c-76 0 -135.5 21.167 -178.5 63.5s-64.5 97.166 -64.5 164.499
zM900.001 99.002c85.333 0 166.5 16.333 243.5 49s142.833 76.834 197.5 132.501s98 121.667 130 198s48 156.833 48 241.5s-16 165.167 -48 241.5s-75.333 142.333 -130 198s-120.5 99.834 -197.5 132.501s-158.167 49 -243.5 49s-166.5 -16.333 -243.5 -49
s-142.833 -76.834 -197.5 -132.501s-98 -121.667 -130 -198s-48 -156.833 -48 -241.5s16 -165.167 48 -241.5s75.333 -142.333 130 -198s120.5 -99.834 197.5 -132.501s158.167 -49 243.5 -49zM900.001 -51.998c-104.667 0 -204.667 20.333 -300 61
s-177.5 95.5 -246.5 164.5s-123.833 151.167 -164.5 246.5s-61 195.666 -61 300.999c0 104.667 20.333 204.834 61 300.501s95.5 178 164.5 247s151.167 123.833 246.5 164.5s195.333 61 300 61s204.667 -20.333 300 -61s177.5 -95.5 246.5 -164.5
s123.833 -151.333 164.5 -247s61 -195.834 61 -300.501c0 -105.333 -20.333 -205.666 -61 -300.999s-95.5 -177.5 -164.5 -246.5s-151.167 -123.833 -246.5 -164.5s-195.333 -61 -300 -61z" />
    <glyph glyph-name="uni24C0" unicode="K&#x20dd;" 
d="M1222 1078l-251 -305l260 -388h-182l-193 287l-73 -80v-207h-148v693h148v-298h8l261 298h170zM900 99c85.333 0 166.5 16.333 243.5 49s142.833 76.834 197.5 132.501s98 121.667 130 198s48 156.833 48 241.5s-16 165.167 -48 241.5s-75.333 142.333 -130 198
s-120.5 99.834 -197.5 132.501s-158.167 49 -243.5 49s-166.5 -16.333 -243.5 -49s-142.833 -76.834 -197.5 -132.501s-98 -121.667 -130 -198s-48 -156.833 -48 -241.5s16 -165.167 48 -241.5s75.333 -142.333 130 -198s120.5 -99.834 197.5 -132.501
s158.167 -49 243.5 -49zM900 -52c-104.667 0 -204.667 20.333 -300 61s-177.5 95.5 -246.5 164.5s-123.833 151.167 -164.5 246.5s-61 195.666 -61 300.999c0 104.667 20.333 204.834 61 300.501s95.5 178 164.5 247s151.167 123.833 246.5 164.5s195.333 61 300 61
s204.667 -20.333 300 -61s177.5 -95.5 246.5 -164.5s123.833 -151.333 164.5 -247s61 -195.834 61 -300.501c0 -105.333 -20.333 -205.666 -61 -300.999s-95.5 -177.5 -164.5 -246.5s-151.167 -123.833 -246.5 -164.5s-195.333 -61 -300 -61z" />
    <glyph glyph-name="uni24C1" unicode="L&#x20dd;" 
d="M1173 525v-135h-461v693h157v-558h304zM900 99c85.333 0 166.5 16.333 243.5 49s142.833 76.834 197.5 132.501s98 121.667 130 198s48 156.833 48 241.5s-16 165.167 -48 241.5s-75.333 142.333 -130 198s-120.5 99.834 -197.5 132.501s-158.167 49 -243.5 49
s-166.5 -16.333 -243.5 -49s-142.833 -76.834 -197.5 -132.501s-98 -121.667 -130 -198s-48 -156.833 -48 -241.5s16 -165.167 48 -241.5s75.333 -142.333 130 -198s120.5 -99.834 197.5 -132.501s158.167 -49 243.5 -49zM900 -52c-104.667 0 -204.667 20.333 -300 61
s-177.5 95.5 -246.5 164.5s-123.833 151.167 -164.5 246.5s-61 195.666 -61 300.999c0 104.667 20.333 204.834 61 300.501s95.5 178 164.5 247s151.167 123.833 246.5 164.5s195.333 61 300 61s204.667 -20.333 300 -61s177.5 -95.5 246.5 -164.5
s123.833 -151.333 164.5 -247s61 -195.834 61 -300.501c0 -105.333 -20.333 -205.666 -61 -300.999s-95.5 -177.5 -164.5 -246.5s-151.167 -123.833 -246.5 -164.5s-195.333 -61 -300 -61z" />
    <glyph glyph-name="uni24C2" unicode="M&#x20dd;" 
d="M679 385h-130v693h153l197 -496h4l197 496h151v-693h-129v450h-10l-165 -421h-93l-166 421h-9v-450zM900 99c85.333 0 166.5 16.333 243.5 49s142.833 76.834 197.5 132.501s98 121.667 130 198s48 156.833 48 241.5s-16 165.167 -48 241.5s-75.333 142.333 -130 198
s-120.5 99.834 -197.5 132.501s-158.167 49 -243.5 49s-166.5 -16.333 -243.5 -49s-142.833 -76.834 -197.5 -132.501s-98 -121.667 -130 -198s-48 -156.833 -48 -241.5s16 -165.167 48 -241.5s75.333 -142.333 130 -198s120.5 -99.834 197.5 -132.501
s158.167 -49 243.5 -49zM900 -52c-104.667 0 -204.667 20.333 -300 61s-177.5 95.5 -246.5 164.5s-123.833 151.167 -164.5 246.5s-61 195.666 -61 300.999c0 104.667 20.333 204.834 61 300.501s95.5 178 164.5 247s151.167 123.833 246.5 164.5s195.333 61 300 61
s204.667 -20.333 300 -61s177.5 -95.5 246.5 -164.5s123.833 -151.333 164.5 -247s61 -195.834 61 -300.501c0 -105.333 -20.333 -205.666 -61 -300.999s-95.5 -177.5 -164.5 -246.5s-151.167 -123.833 -246.5 -164.5s-195.333 -61 -300 -61z" />
    <glyph glyph-name="uni24C3" unicode="N&#x20dd;" 
d="M749 385h-141v693h123l311 -437h9v437h141v-693h-123l-312 441h-8v-441zM900 99c85.333 0 166.5 16.333 243.5 49s142.833 76.834 197.5 132.501s98 121.667 130 198s48 156.833 48 241.5s-16 165.167 -48 241.5s-75.333 142.333 -130 198s-120.5 99.834 -197.5 132.501
s-158.167 49 -243.5 49s-166.5 -16.333 -243.5 -49s-142.833 -76.834 -197.5 -132.501s-98 -121.667 -130 -198s-48 -156.833 -48 -241.5s16 -165.167 48 -241.5s75.333 -142.333 130 -198s120.5 -99.834 197.5 -132.501s158.167 -49 243.5 -49zM900 -52
c-104.667 0 -204.667 20.333 -300 61s-177.5 95.5 -246.5 164.5s-123.833 151.167 -164.5 246.5s-61 195.666 -61 300.999c0 104.667 20.333 204.834 61 300.501s95.5 178 164.5 247s151.167 123.833 246.5 164.5s195.333 61 300 61s204.667 -20.333 300 -61
s177.5 -95.5 246.5 -164.5s123.833 -151.333 164.5 -247s61 -195.834 61 -300.501c0 -105.333 -20.333 -205.666 -61 -300.999s-95.5 -177.5 -164.5 -246.5s-151.167 -123.833 -246.5 -164.5s-195.333 -61 -300 -61z" />
    <glyph glyph-name="uni24C4" unicode="O&#x20dd;" 
d="M900 504c50.667 0 92.5 19.833 125.5 59.5s49.5 95.5 49.5 167.5s-16.5 128 -49.5 168s-74.833 60 -125.5 60s-92.5 -20 -125.5 -60s-49.5 -96 -49.5 -168s16.5 -127.833 49.5 -167.5s74.833 -59.5 125.5 -59.5zM900 373c-95.333 0 -174.333 31.833 -237 95.5
s-94 151.167 -94 262.5s31.333 199 94 263s141.667 96 237 96s174.333 -32 237 -96s94 -151.667 94 -263s-31.333 -198.833 -94 -262.5s-141.667 -95.5 -237 -95.5zM900 99c85.333 0 166.5 16.333 243.5 49s142.833 76.834 197.5 132.501s98 121.667 130 198
s48 156.833 48 241.5s-16 165.167 -48 241.5s-75.333 142.333 -130 198s-120.5 99.834 -197.5 132.501s-158.167 49 -243.5 49s-166.5 -16.333 -243.5 -49s-142.833 -76.834 -197.5 -132.501s-98 -121.667 -130 -198s-48 -156.833 -48 -241.5s16 -165.167 48 -241.5
s75.333 -142.333 130 -198s120.5 -99.834 197.5 -132.501s158.167 -49 243.5 -49zM900 -52c-104.667 0 -204.667 20.333 -300 61s-177.5 95.5 -246.5 164.5s-123.833 151.167 -164.5 246.5s-61 195.666 -61 300.999c0 104.667 20.333 204.834 61 300.501s95.5 178 164.5 247
s151.167 123.833 246.5 164.5s195.333 61 300 61s204.667 -20.333 300 -61s177.5 -95.5 246.5 -164.5s123.833 -151.333 164.5 -247s61 -195.834 61 -300.501c0 -105.333 -20.333 -205.666 -61 -300.999s-95.5 -177.5 -164.5 -246.5s-151.167 -123.833 -246.5 -164.5
s-195.333 -61 -300 -61z" />
    <glyph glyph-name="uni24C5" unicode="P&#x20dd;" 
d="M966 1078c76 0 136.168 -22 180.501 -66s66.5 -101.333 66.5 -172s-22.333 -127.667 -67 -171s-105.334 -65 -182.001 -65h-138v-219h-155v693h295zM1058 840c0 36.667 -10.333 64.832 -31 84.499s-50 29.5 -88 29.5h-117v-228h117c38 0 67.333 9.83301 88 29.5
s31 47.834 31 84.501zM900.001 98.998c85.333 0 166.5 16.333 243.5 49s142.833 76.834 197.5 132.501s98 121.667 130 198s48 156.833 48 241.5s-16 165.167 -48 241.5s-75.333 142.333 -130 198s-120.5 99.834 -197.5 132.501s-158.167 49 -243.5 49
s-166.5 -16.333 -243.5 -49s-142.833 -76.834 -197.5 -132.501s-98 -121.667 -130 -198s-48 -156.833 -48 -241.5s16 -165.167 48 -241.5s75.333 -142.333 130 -198s120.5 -99.834 197.5 -132.501s158.167 -49 243.5 -49zM900.001 -52.002
c-104.667 0 -204.667 20.333 -300 61s-177.5 95.5 -246.5 164.5s-123.833 151.167 -164.5 246.5s-61 195.666 -61 300.999c0 104.667 20.333 204.834 61 300.501s95.5 178 164.5 247s151.167 123.833 246.5 164.5s195.333 61 300 61s204.667 -20.333 300 -61
s177.5 -95.5 246.5 -164.5s123.833 -151.333 164.5 -247s61 -195.834 61 -300.501c0 -105.333 -20.333 -205.666 -61 -300.999s-95.5 -177.5 -164.5 -246.5s-151.167 -123.833 -246.5 -164.5s-195.333 -61 -300 -61z" />
    <glyph glyph-name="uni24C6" unicode="Q&#x20dd;" 
d="M1207 320h-150l-49 69c-36 -10.667 -72 -16 -108 -16c-95.333 0 -174.333 31.833 -237 95.5s-94 151.167 -94 262.5s31.333 199 94 263s141.667 96 237 96s174.333 -32 237 -96s94 -151.667 94 -263c0 -120.667 -39 -214.667 -117 -282zM900 504c14.667 0 28.667 2 42 6
l-73 106h120l36 -45c33.333 40 50 93.333 50 160c0 72 -16.5 128 -49.5 168s-74.833 60 -125.5 60s-92.5 -20 -125.5 -60s-49.5 -96 -49.5 -168s16.5 -127.833 49.5 -167.5s74.833 -59.5 125.5 -59.5zM900 99c85.333 0 166.5 16.333 243.5 49s142.833 76.834 197.5 132.501
s98 121.667 130 198s48 156.833 48 241.5s-16 165.167 -48 241.5s-75.333 142.333 -130 198s-120.5 99.834 -197.5 132.501s-158.167 49 -243.5 49s-166.5 -16.333 -243.5 -49s-142.833 -76.834 -197.5 -132.501s-98 -121.667 -130 -198s-48 -156.833 -48 -241.5
s16 -165.167 48 -241.5s75.333 -142.333 130 -198s120.5 -99.834 197.5 -132.501s158.167 -49 243.5 -49zM900 -52c-104.667 0 -204.667 20.333 -300 61s-177.5 95.5 -246.5 164.5s-123.833 151.167 -164.5 246.5s-61 195.666 -61 300.999
c0 104.667 20.333 204.834 61 300.501s95.5 178 164.5 247s151.167 123.833 246.5 164.5s195.333 61 300 61s204.667 -20.333 300 -61s177.5 -95.5 246.5 -164.5s123.833 -151.333 164.5 -247s61 -195.834 61 -300.501c0 -105.333 -20.333 -205.666 -61 -300.999
s-95.5 -177.5 -164.5 -246.5s-151.167 -123.833 -246.5 -164.5s-195.333 -61 -300 -61z" />
    <glyph glyph-name="uni24C7" unicode="R&#x20dd;" 
d="M935 1078c80.667 0 143.833 -19.667 189.5 -59s68.5 -93 68.5 -161c0 -46.667 -12.5 -87 -37.5 -121s-57.167 -58 -96.5 -72l147 -280h-168l-124 253h-124v-253h-148v693h293zM789.999 750h122c38.667 0 69 8.66699 91 26s33 42.333 33 75
c0 34 -10.833 60.167 -32.5 78.5s-51.167 27.5 -88.5 27.5h-125v-207zM899.999 99c85.333 0 166.5 16.333 243.5 49s142.833 76.834 197.5 132.501s98 121.667 130 198s48 156.833 48 241.5s-16 165.167 -48 241.5s-75.333 142.333 -130 198s-120.5 99.834 -197.5 132.501
s-158.167 49 -243.5 49s-166.5 -16.333 -243.5 -49s-142.833 -76.834 -197.5 -132.501s-98 -121.667 -130 -198s-48 -156.833 -48 -241.5s16 -165.167 48 -241.5s75.333 -142.333 130 -198s120.5 -99.834 197.5 -132.501s158.167 -49 243.5 -49zM899.999 -52
c-104.667 0 -204.667 20.333 -300 61s-177.5 95.5 -246.5 164.5s-123.833 151.167 -164.5 246.5s-61 195.666 -61 300.999c0 104.667 20.333 204.834 61 300.501s95.5 178 164.5 247s151.167 123.833 246.5 164.5s195.333 61 300 61s204.667 -20.333 300 -61
s177.5 -95.5 246.5 -164.5s123.833 -151.333 164.5 -247s61 -195.834 61 -300.501c0 -105.333 -20.333 -205.666 -61 -300.999s-95.5 -177.5 -164.5 -246.5s-151.167 -123.833 -246.5 -164.5s-195.333 -61 -300 -61z" />
    <glyph glyph-name="uni24C8" unicode="S&#x20dd;" 
d="M613 583l149.999 -0.0078125c3.33301 -27.333 17.833 -49.166 43.5 -65.499s58.5 -24.5 98.5 -24.5s72 7.83301 96 23.5s36 36.834 36 63.501c0 21.333 -8.66699 38.333 -26 51s-46.333 23.334 -87 32.001l-107 21c-60.667 12.667 -107 35.334 -139 68.001
s-48 74.334 -48 125.001c0 64.667 25.167 116.5 75.5 155.5s116.5 58.5 198.5 58.5c78.667 0 143 -18.833 193 -56.5s76.333 -87.5 79 -149.5h-146c-2.66699 26.667 -15.5 47.834 -38.5 63.501s-52.5 23.5 -88.5 23.5s-65 -7.66699 -87 -23s-33 -35.666 -33 -60.999
c0 -38 33 -63.333 99 -76l110 -22c66.667 -13.333 115.834 -36 147.501 -68s47.5 -74.667 47.5 -128c0 -68 -26 -121.833 -78 -161.5s-122.667 -59.5 -212 -59.5c-85.333 0 -153.5 18.833 -204.5 56.5s-77.5 88.834 -79.5 153.501zM899.999 98.9922
c85.333 0 166.5 16.333 243.5 49s142.833 76.834 197.5 132.501s98 121.667 130 198s48 156.833 48 241.5s-16 165.167 -48 241.5s-75.333 142.333 -130 198s-120.5 99.834 -197.5 132.501s-158.167 49 -243.5 49s-166.5 -16.333 -243.5 -49
s-142.833 -76.834 -197.5 -132.501s-98 -121.667 -130 -198s-48 -156.833 -48 -241.5s16 -165.167 48 -241.5s75.333 -142.333 130 -198s120.5 -99.834 197.5 -132.501s158.167 -49 243.5 -49zM899.999 -52.0078c-104.667 0 -204.667 20.333 -300 61
s-177.5 95.5 -246.5 164.5s-123.833 151.167 -164.5 246.5s-61 195.666 -61 300.999c0 104.667 20.333 204.834 61 300.501s95.5 178 164.5 247s151.167 123.833 246.5 164.5s195.333 61 300 61s204.667 -20.333 300 -61s177.5 -95.5 246.5 -164.5
s123.833 -151.333 164.5 -247s61 -195.834 61 -300.501c0 -105.333 -20.333 -205.666 -61 -300.999s-95.5 -177.5 -164.5 -246.5s-151.167 -123.833 -246.5 -164.5s-195.333 -61 -300 -61z" />
    <glyph glyph-name="uni24C9" unicode="T&#x20dd;" 
d="M979 364h-158v561h-205v132h568v-132h-205v-561zM900 99c85.333 0 166.5 16.333 243.5 49s142.833 76.834 197.5 132.501s98 121.667 130 198s48 156.833 48 241.5s-16 165.167 -48 241.5s-75.333 142.333 -130 198s-120.5 99.834 -197.5 132.501s-158.167 49 -243.5 49
s-166.5 -16.333 -243.5 -49s-142.833 -76.834 -197.5 -132.501s-98 -121.667 -130 -198s-48 -156.833 -48 -241.5s16 -165.167 48 -241.5s75.333 -142.333 130 -198s120.5 -99.834 197.5 -132.501s158.167 -49 243.5 -49zM900 -52c-104.667 0 -204.667 20.333 -300 61
s-177.5 95.5 -246.5 164.5s-123.833 151.167 -164.5 246.5s-61 195.666 -61 300.999c0 104.667 20.333 204.834 61 300.501s95.5 178 164.5 247s151.167 123.833 246.5 164.5s195.333 61 300 61s204.667 -20.333 300 -61s177.5 -95.5 246.5 -164.5
s123.833 -151.333 164.5 -247s61 -195.834 61 -300.501c0 -105.333 -20.333 -205.666 -61 -300.999s-95.5 -177.5 -164.5 -246.5s-151.167 -123.833 -246.5 -164.5s-195.333 -61 -300 -61z" />
    <glyph glyph-name="uni24CA" unicode="U&#x20dd;" 
d="M900 484c43.333 0 77.668 11.667 103.001 35s38 56 38 98v440h154v-454c0 -74.667 -27 -135.167 -81 -181.5s-125.333 -69.5 -214 -69.5s-160 23.167 -214 69.5s-81 106.833 -81 181.5v454h154v-440c0 -42 12.667 -74.667 38 -98s59.666 -35 102.999 -35zM900.002 99
c85.333 0 166.5 16.333 243.5 49s142.833 76.834 197.5 132.501s98 121.667 130 198s48 156.833 48 241.5s-16 165.167 -48 241.5s-75.333 142.333 -130 198s-120.5 99.834 -197.5 132.501s-158.167 49 -243.5 49s-166.5 -16.333 -243.5 -49
s-142.833 -76.834 -197.5 -132.501s-98 -121.667 -130 -198s-48 -156.833 -48 -241.5s16 -165.167 48 -241.5s75.333 -142.333 130 -198s120.5 -99.834 197.5 -132.501s158.167 -49 243.5 -49zM900.002 -52c-104.667 0 -204.667 20.333 -300 61s-177.5 95.5 -246.5 164.5
s-123.833 151.167 -164.5 246.5s-61 195.666 -61 300.999c0 104.667 20.333 204.834 61 300.501s95.5 178 164.5 247s151.167 123.833 246.5 164.5s195.333 61 300 61s204.667 -20.333 300 -61s177.5 -95.5 246.5 -164.5s123.833 -151.333 164.5 -247
s61 -195.834 61 -300.501c0 -105.333 -20.333 -205.666 -61 -300.999s-95.5 -177.5 -164.5 -246.5s-151.167 -123.833 -246.5 -164.5s-195.333 -61 -300 -61z" />
    <glyph glyph-name="uni24CB" unicode="V&#x20dd;" 
d="M802 362l-236 693h176l154 -530h8l154 530h176l-236 -693h-196zM900 99c85.333 0 166.5 16.333 243.5 49s142.833 76.834 197.5 132.501s98 121.667 130 198s48 156.833 48 241.5s-16 165.167 -48 241.5s-75.333 142.333 -130 198s-120.5 99.834 -197.5 132.501
s-158.167 49 -243.5 49s-166.5 -16.333 -243.5 -49s-142.833 -76.834 -197.5 -132.501s-98 -121.667 -130 -198s-48 -156.833 -48 -241.5s16 -165.167 48 -241.5s75.333 -142.333 130 -198s120.5 -99.834 197.5 -132.501s158.167 -49 243.5 -49zM900 -52
c-104.667 0 -204.667 20.333 -300 61s-177.5 95.5 -246.5 164.5s-123.833 151.167 -164.5 246.5s-61 195.666 -61 300.999c0 104.667 20.333 204.834 61 300.501s95.5 178 164.5 247s151.167 123.833 246.5 164.5s195.333 61 300 61s204.667 -20.333 300 -61
s177.5 -95.5 246.5 -164.5s123.833 -151.333 164.5 -247s61 -195.834 61 -300.501c0 -105.333 -20.333 -205.666 -61 -300.999s-95.5 -177.5 -164.5 -246.5s-151.167 -123.833 -246.5 -164.5s-195.333 -61 -300 -61z" />
    <glyph glyph-name="uni24CC" unicode="W&#x20dd;" 
d="M898 831l-128 -467h-136l-184 693h156l104 -494h7l122 494h122l122 -494h7l104 494h156l-183 -693h-137l-128 467h-4zM900 99c85.333 0 166.5 16.333 243.5 49s142.833 76.834 197.5 132.501s98 121.667 130 198s48 156.833 48 241.5s-16 165.167 -48 241.5
s-75.333 142.333 -130 198s-120.5 99.834 -197.5 132.501s-158.167 49 -243.5 49s-166.5 -16.333 -243.5 -49s-142.833 -76.834 -197.5 -132.501s-98 -121.667 -130 -198s-48 -156.833 -48 -241.5s16 -165.167 48 -241.5s75.333 -142.333 130 -198
s120.5 -99.834 197.5 -132.501s158.167 -49 243.5 -49zM900 -52c-104.667 0 -204.667 20.333 -300 61s-177.5 95.5 -246.5 164.5s-123.833 151.167 -164.5 246.5s-61 195.666 -61 300.999c0 104.667 20.333 204.834 61 300.501s95.5 178 164.5 247
s151.167 123.833 246.5 164.5s195.333 61 300 61s204.667 -20.333 300 -61s177.5 -95.5 246.5 -164.5s123.833 -151.333 164.5 -247s61 -195.834 61 -300.501c0 -105.333 -20.333 -205.666 -61 -300.999s-95.5 -177.5 -164.5 -246.5s-151.167 -123.833 -246.5 -164.5
s-195.333 -61 -300 -61z" />
    <glyph glyph-name="uni24CD" unicode="X&#x20dd;" 
d="M1221 1078l-227 -347l225 -346h-174l-146 240h-7l-148 -240h-169l225 349l-223 344h179l144 -241h7l144 241h170zM900 99c85.333 0 166.5 16.333 243.5 49s142.833 76.834 197.5 132.501s98 121.667 130 198s48 156.833 48 241.5s-16 165.167 -48 241.5
s-75.333 142.333 -130 198s-120.5 99.834 -197.5 132.501s-158.167 49 -243.5 49s-166.5 -16.333 -243.5 -49s-142.833 -76.834 -197.5 -132.501s-98 -121.667 -130 -198s-48 -156.833 -48 -241.5s16 -165.167 48 -241.5s75.333 -142.333 130 -198
s120.5 -99.834 197.5 -132.501s158.167 -49 243.5 -49zM900 -52c-104.667 0 -204.667 20.333 -300 61s-177.5 95.5 -246.5 164.5s-123.833 151.167 -164.5 246.5s-61 195.666 -61 300.999c0 104.667 20.333 204.834 61 300.501s95.5 178 164.5 247
s151.167 123.833 246.5 164.5s195.333 61 300 61s204.667 -20.333 300 -61s177.5 -95.5 246.5 -164.5s123.833 -151.333 164.5 -247s61 -195.834 61 -300.501c0 -105.333 -20.333 -205.666 -61 -300.999s-95.5 -177.5 -164.5 -246.5s-151.167 -123.833 -246.5 -164.5
s-195.333 -61 -300 -61z" />
    <glyph glyph-name="uni24CE" unicode="Y&#x20dd;" 
d="M980 376h-159v251l-241 441h172l146 -287h6l147 287h169l-240 -439v-253zM900 99c85.333 0 166.5 16.333 243.5 49s142.833 76.834 197.5 132.501s98 121.667 130 198s48 156.833 48 241.5s-16 165.167 -48 241.5s-75.333 142.333 -130 198s-120.5 99.834 -197.5 132.501
s-158.167 49 -243.5 49s-166.5 -16.333 -243.5 -49s-142.833 -76.834 -197.5 -132.501s-98 -121.667 -130 -198s-48 -156.833 -48 -241.5s16 -165.167 48 -241.5s75.333 -142.333 130 -198s120.5 -99.834 197.5 -132.501s158.167 -49 243.5 -49zM900 -52
c-104.667 0 -204.667 20.333 -300 61s-177.5 95.5 -246.5 164.5s-123.833 151.167 -164.5 246.5s-61 195.666 -61 300.999c0 104.667 20.333 204.834 61 300.501s95.5 178 164.5 247s151.167 123.833 246.5 164.5s195.333 61 300 61s204.667 -20.333 300 -61
s177.5 -95.5 246.5 -164.5s123.833 -151.333 164.5 -247s61 -195.834 61 -300.501c0 -105.333 -20.333 -205.666 -61 -300.999s-95.5 -177.5 -164.5 -246.5s-151.167 -123.833 -246.5 -164.5s-195.333 -61 -300 -61z" />
    <glyph glyph-name="uni24CF" unicode="Z&#x20dd;" 
d="M632 385v104l338 452v8h-331v129h521v-104l-338 -451v-9h348v-129h-538zM900 99c85.333 0 166.5 16.333 243.5 49s142.833 76.834 197.5 132.501s98 121.667 130 198s48 156.833 48 241.5s-16 165.167 -48 241.5s-75.333 142.333 -130 198s-120.5 99.834 -197.5 132.501
s-158.167 49 -243.5 49s-166.5 -16.333 -243.5 -49s-142.833 -76.834 -197.5 -132.501s-98 -121.667 -130 -198s-48 -156.833 -48 -241.5s16 -165.167 48 -241.5s75.333 -142.333 130 -198s120.5 -99.834 197.5 -132.501s158.167 -49 243.5 -49zM900 -52
c-104.667 0 -204.667 20.333 -300 61s-177.5 95.5 -246.5 164.5s-123.833 151.167 -164.5 246.5s-61 195.666 -61 300.999c0 104.667 20.333 204.834 61 300.501s95.5 178 164.5 247s151.167 123.833 246.5 164.5s195.333 61 300 61s204.667 -20.333 300 -61
s177.5 -95.5 246.5 -164.5s123.833 -151.333 164.5 -247s61 -195.834 61 -300.501c0 -105.333 -20.333 -205.666 -61 -300.999s-95.5 -177.5 -164.5 -246.5s-151.167 -123.833 -246.5 -164.5s-195.333 -61 -300 -61z" />
    <glyph glyph-name="uni24EA" unicode="&#x23;&#x20dd;" 
d="M900 505c40 0 71.5 19.333 94.5 58s34.5 94.667 34.5 168c0 74 -11.5 130.333 -34.5 169s-54.5 58 -94.5 58s-71.5 -19.333 -94.5 -58s-34.5 -95 -34.5 -169c0 -73.333 11.5 -129.333 34.5 -168s54.5 -58 94.5 -58zM899 373c-82.667 0 -149.334 31.833 -200.001 95.5
s-76 151.167 -76 262.5s25.333 198.833 76 262.5s117.334 95.5 200.001 95.5c83.333 0 150.5 -31.833 201.5 -95.5s76.5 -151.167 76.5 -262.5s-25.5 -198.833 -76.5 -262.5s-118.167 -95.5 -201.5 -95.5zM900 99c85.333 0 166.5 16.333 243.5 49
s142.833 76.834 197.5 132.501s98 121.667 130 198s48 156.833 48 241.5s-16 165.167 -48 241.5s-75.333 142.333 -130 198s-120.5 99.834 -197.5 132.501s-158.167 49 -243.5 49s-166.5 -16.333 -243.5 -49s-142.833 -76.834 -197.5 -132.501s-98 -121.667 -130 -198
s-48 -156.833 -48 -241.5s16 -165.167 48 -241.5s75.333 -142.333 130 -198s120.5 -99.834 197.5 -132.501s158.167 -49 243.5 -49zM900 -52c-104.667 0 -204.667 20.333 -300 61s-177.5 95.5 -246.5 164.5s-123.833 151.167 -164.5 246.5s-61 195.666 -61 300.999
c0 104.667 20.333 204.834 61 300.501s95.5 178 164.5 247s151.167 123.833 246.5 164.5s195.333 61 300 61s204.667 -20.333 300 -61s177.5 -95.5 246.5 -164.5s123.833 -151.333 164.5 -247s61 -195.834 61 -300.501c0 -105.333 -20.333 -205.666 -61 -300.999
s-95.5 -177.5 -164.5 -246.5s-151.167 -123.833 -246.5 -164.5s-195.333 -61 -300 -61z" />
    <glyph glyph-name="uni24FF" unicode="&#x30;&#x20dd;&#x25cf;" 
d="M897 481c-42.667 0 -75.5 21.333 -98.5 64s-34.5 104.667 -34.5 186c0 82 11.5 144.333 34.5 187s55.833 64 98.5 64s75.334 -21.333 98.001 -64s34 -105 34 -187s-11.333 -144.167 -34 -186.5s-55.334 -63.5 -98.001 -63.5zM896 338c94 0 169 35.168 225 105.501
s84 166.166 84 287.499c0 122 -28 218.167 -84 288.5s-131 105.5 -225 105.5s-168.833 -35.167 -224.5 -105.5s-83.5 -166.5 -83.5 -288.5s27.833 -218 83.5 -288s130.5 -105 224.5 -105zM900 -50.999c-104.667 0 -204.5 20.5 -299.5 61.5s-177 96 -246 165
s-124 151 -165 246s-61.5 194.833 -61.5 299.5s20.5 204.667 61.5 300s96 177.5 165 246.5s151.167 124 246.5 165s195 61.5 299 61.5s203.667 -20.5 299 -61.5s177.5 -96 246.5 -165s124 -151.167 165 -246.5s61.5 -195.333 61.5 -300s-20.5 -204.5 -61.5 -299.5
s-96 -177 -165 -246s-151 -124 -246 -165s-194.833 -61.5 -299.5 -61.5z" />
    <glyph glyph-name="uni278A" unicode="&#x31;&#x20dd;&#x25cf;" 
d="M1026 352v760h-174l-188 -128v-166l182 123h3v-589h177zM900 -51c-104.667 0 -204.5 20.5 -299.5 61.5s-177 96 -246 165s-124 151 -165 246s-61.5 194.833 -61.5 299.5s20.5 204.667 61.5 300s96 177.5 165 246.5s151.167 124 246.5 165s195 61.5 299 61.5
s203.667 -20.5 299 -61.5s177.5 -96 246.5 -165s124 -151.167 165 -246.5s61.5 -195.333 61.5 -300s-20.5 -204.5 -61.5 -299.5s-96 -177 -165 -246s-151 -124 -246 -165s-194.833 -61.5 -299.5 -61.5z" />
    <glyph glyph-name="uni278B" unicode="&#x32;&#x20dd;&#x25cf;" 
d="M783 870l0.000976562 7.99902c0 30.667 9.66699 56 29 76s46 30 80 30c30.667 0 56 -8.5 76 -25.5s30 -38.833 30 -65.5c0 -26 -7.33301 -50 -22 -72s-37.334 -48.667 -68.001 -80l-282 -277v-113h559v147h-325v2l180 175c44 44.667 76.667 83.834 98 117.501
s32 71.834 32 114.501c0 62 -25.333 113.667 -76 155s-116 62 -196 62c-88.667 0 -157.667 -23.833 -207 -71.5s-74 -105.834 -74 -174.501v-8h166zM900.001 -51.001c-104.667 0 -204.5 20.5 -299.5 61.5s-177 96 -246 165s-124 151 -165 246s-61.5 194.833 -61.5 299.5
s20.5 204.667 61.5 300s96 177.5 165 246.5s151.167 124 246.5 165s195 61.5 299 61.5s203.667 -20.5 299 -61.5s177.5 -96 246.5 -165s124 -151.167 165 -246.5s61.5 -195.333 61.5 -300s-20.5 -204.5 -61.5 -299.5s-96 -177 -165 -246s-151 -124 -246 -165
s-194.833 -61.5 -299.5 -61.5z" />
    <glyph glyph-name="uni278C" unicode="&#x33;&#x20dd;&#x25cf;" 
d="M807 674l89 0.000976562c38 0 68.667 -9 92 -27s35.333 -41.667 36 -71c0 -29.333 -12 -53.166 -36 -71.499s-56 -27.5 -96 -27.5c-36 0 -66 8.5 -90 25.5s-37.667 38.5 -41 64.5h-162c2 -66 29.333 -120.667 82 -164s123 -65 211 -65c88.667 0 162 20.833 220 62.5
s86.667 97.5 86 167.5c-1.33301 52.667 -18.833 95 -52.5 127s-71.5 50.333 -113.5 55v2c35.333 6 68 24.833 98 56.5s44.667 70.167 44 115.5c-1.33301 59.333 -27.333 107.666 -78 144.999s-117.334 56 -200.001 56c-88 0 -156.667 -20.833 -206 -62.5
s-75.333 -96.5 -78 -164.5h165c1.33301 25.333 12.5 46.666 33.5 63.999s48.167 26 81.5 26c32 0 58.333 -8.33301 79 -25s31.334 -37.667 32.001 -63c0 -27.333 -10.5 -49.5 -31.5 -66.5s-47.833 -25.5 -80.5 -25.5h-84v-134zM900 -50.999
c-104.667 0 -204.5 20.5 -299.5 61.5s-177 96 -246 165s-124 151 -165 246s-61.5 194.833 -61.5 299.5s20.5 204.667 61.5 300s96 177.5 165 246.5s151.167 124 246.5 165s195 61.5 299 61.5s203.667 -20.5 299 -61.5s177.5 -96 246.5 -165s124 -151.167 165 -246.5
s61.5 -195.333 61.5 -300s-20.5 -204.5 -61.5 -299.5s-96 -177 -165 -246s-151 -124 -246 -165s-194.833 -61.5 -299.5 -61.5z" />
    <glyph glyph-name="uni278D" unicode="&#x34;&#x20dd;&#x25cf;" 
d="M848 1112c-146.667 -228.667 -245 -390.333 -295 -485v-141h379v-134h160v134h101v143h-101v483h-244zM713 630.001l62 104l83 131l70 109h4v-345h-219v1zM900 -50.999c-104.667 0 -204.5 20.5 -299.5 61.5s-177 96 -246 165s-124 151 -165 246
s-61.5 194.833 -61.5 299.5s20.5 204.667 61.5 300s96 177.5 165 246.5s151.167 124 246.5 165s195 61.5 299 61.5s203.667 -20.5 299 -61.5s177.5 -96 246.5 -165s124 -151.167 165 -246.5s61.5 -195.333 61.5 -300s-20.5 -204.5 -61.5 -299.5s-96 -177 -165 -246
s-151 -124 -246 -165s-194.833 -61.5 -299.5 -61.5z" />
    <glyph glyph-name="uni278E" unicode="&#x35;&#x20dd;&#x25cf;" 
d="M613 564c2.66699 -65.333 30.335 -118.831 83.002 -160.498s120.667 -62.5 204 -62.5c92 0 165.833 25 221.5 75s83.5 116.333 83.5 199c0 75.333 -24.333 135.166 -73 179.499s-109.334 66.5 -182.001 66.5c-38.667 0 -72.167 -6.5 -100.5 -19.5
s-48.5 -28.167 -60.5 -45.5h-2l15 181h358v137h-498l-33 -448h152c10 18 25.667 33.5 47 46.5s46.666 19.5 75.999 19.5c37.333 0 68.666 -11.333 93.999 -34s38 -52.334 38 -89.001c0 -39.333 -13 -70.833 -39 -94.5s-56.667 -35.5 -92 -35.5
c-32.667 0 -61.167 7.5 -85.5 22.5s-39.166 35.833 -44.499 62.5h-162zM900.001 -50.998c-104.667 0 -204.5 20.5 -299.5 61.5s-177 96 -246 165s-124 151 -165 246s-61.5 194.833 -61.5 299.5s20.5 204.667 61.5 300s96 177.5 165 246.5s151.167 124 246.5 165
s195 61.5 299 61.5s203.667 -20.5 299 -61.5s177.5 -96 246.5 -165s124 -151.167 165 -246.5s61.5 -195.333 61.5 -300s-20.5 -204.5 -61.5 -299.5s-96 -177 -165 -246s-151 -124 -246 -165s-194.833 -61.5 -299.5 -61.5z" />
    <glyph glyph-name="uni278F" unicode="&#x36;&#x20dd;&#x25cf;" 
d="M1196 613c0 68.667 -21.832 125.5 -65.499 170.5s-98.5 67.5 -164.5 67.5c-51.333 0 -94.333 -14 -129 -42l-8 2c3.33301 6.66699 14.666 22.667 33.999 48c22.667 31.333 88.667 115.666 198 252.999h-195c-100 -130 -152.667 -200 -158 -210
c-70.667 -101.333 -106 -195.666 -106 -282.999c0 -84 27.667 -151.667 83 -203s127.333 -77 216 -77c88 0 159.167 25.167 213.5 75.5s81.5 116.5 81.5 198.5zM766.001 605c0 37.333 12.667 68.333 38 93s57.333 37 96 37s70.667 -12.333 96 -37s38 -55.667 38 -93
s-12.667 -68.333 -38 -93s-57.333 -37 -96 -37s-70.667 12.333 -96 37s-38 55.667 -38 93zM900.001 -51c-104.667 0 -204.5 20.5 -299.5 61.5s-177 96 -246 165s-124 151 -165 246s-61.5 194.833 -61.5 299.5s20.5 204.667 61.5 300s96 177.5 165 246.5
s151.167 124 246.5 165s195 61.5 299 61.5s203.667 -20.5 299 -61.5s177.5 -96 246.5 -165s124 -151.167 165 -246.5s61.5 -195.333 61.5 -300s-20.5 -204.5 -61.5 -299.5s-96 -177 -165 -246s-151 -124 -246 -165s-194.833 -61.5 -299.5 -61.5z" />
    <glyph glyph-name="uni2790" unicode="&#x37;&#x20dd;&#x25cf;" 
d="M630 1104v-148h382v-2l-323 -609h187l315 613v146h-561zM900 -51c-104.667 0 -204.5 20.5 -299.5 61.5s-177 96 -246 165s-124 151 -165 246s-61.5 194.833 -61.5 299.5s20.5 204.667 61.5 300s96 177.5 165 246.5s151.167 124 246.5 165s195 61.5 299 61.5
s203.667 -20.5 299 -61.5s177.5 -96 246.5 -165s124 -151.167 165 -246.5s61.5 -195.333 61.5 -300s-20.5 -204.5 -61.5 -299.5s-96 -177 -165 -246s-151 -124 -246 -165s-194.833 -61.5 -299.5 -61.5z" />
    <glyph glyph-name="uni2791" unicode="&#x38;&#x20dd;&#x25cf;" 
d="M897 803c-34 0 -61.5 9 -82.5 27s-31.5 41.667 -31.5 71s10.5 53.166 31.5 71.499s48.5 27.5 82.5 27.5c33.333 0 60.666 -9.16699 81.999 -27.5s32 -42.166 32 -71.499c0 -28.667 -10.667 -52.167 -32 -70.5s-48.666 -27.5 -81.999 -27.5zM897 463
c-40.667 0 -74.167 10.667 -100.5 32s-39.5 48.333 -39.5 81s13.167 59.834 39.5 81.501s59.833 32.5 100.5 32.5s74.167 -10.833 100.5 -32.5s39.5 -48.834 39.5 -81.501s-13.167 -59.667 -39.5 -81s-59.833 -32 -100.5 -32zM897 338
c94.667 0 170.668 20.665 228.001 61.998s86 96.333 86 165c0 47.333 -14.833 87.5 -44.5 120.5s-69.834 54.5 -120.501 64.5v1c43.333 14 76.333 35.667 99 65s34 64.333 34 105c0 60.667 -26 109.834 -78 147.501s-120 56.5 -204 56.5
c-84.667 0 -152.834 -18.667 -204.501 -56s-77.5 -86.666 -77.5 -147.999c0 -40.667 11.333 -75.667 34 -105s55.334 -51 98.001 -65v-1c-50.667 -10 -90.667 -31.667 -120 -65s-44 -73.333 -44 -120c0 -68.667 28.667 -123.667 86 -165s133.333 -62 228 -62z
M900.001 -51.002c-104.667 0 -204.5 20.5 -299.5 61.5s-177 96 -246 165s-124 151 -165 246s-61.5 194.833 -61.5 299.5s20.5 204.667 61.5 300s96 177.5 165 246.5s151.167 124 246.5 165s195 61.5 299 61.5s203.667 -20.5 299 -61.5s177.5 -96 246.5 -165
s124 -151.167 165 -246.5s61.5 -195.333 61.5 -300s-20.5 -204.5 -61.5 -299.5s-96 -177 -165 -246s-151 -124 -246 -165s-194.833 -61.5 -299.5 -61.5z" />
    <glyph glyph-name="uni2792" unicode="&#x39;&#x20dd;&#x25cf;" 
d="M1032 858c0 -36.667 -12.667 -67.5 -38 -92.5s-57.333 -37.5 -96 -37.5s-70.667 12.5 -96 37.5s-38 55.833 -38 92.5c0 37.333 12.667 68.333 38 93s57.333 37 96 37s70.667 -12.333 96 -37s38 -55.667 38 -93zM602 850c0 -68.667 21.8311 -125.499 65.498 -170.499
s98.5 -67.5 164.5 -67.5c51.333 0 94.333 14 129 42l8 -1c-3.33301 -7.33301 -13.666 -22.333 -30.999 -45c-30 -40.667 -97 -126 -201 -256h195c92.667 117.333 145.334 187 158.001 209c70.667 101.333 106 195.666 106 282.999c0 84 -27.667 151.667 -83 203
s-127.333 77 -216 77c-88 0 -159.167 -25.167 -213.5 -75.5s-81.5 -116.5 -81.5 -198.5zM899.998 -50.999c-104.667 0 -204.5 20.5 -299.5 61.5s-177 96 -246 165s-124 151 -165 246s-61.5 194.833 -61.5 299.5s20.5 204.667 61.5 300s96 177.5 165 246.5
s151.167 124 246.5 165s195 61.5 299 61.5s203.667 -20.5 299 -61.5s177.5 -96 246.5 -165s124 -151.167 165 -246.5s61.5 -195.333 61.5 -300s-20.5 -204.5 -61.5 -299.5s-96 -177 -165 -246s-151 -124 -246 -165s-194.833 -61.5 -299.5 -61.5z" />
    <glyph glyph-name="uni1F130" unicode="A&#x20de;" 
d="M808 673h184l-86 266h-12zM725 393h-156l240 692h182l240 -692h-156l-53 163h-244zM415 1467h970c72 0 133.167 -24.833 183.5 -74.5s75.5 -109.834 75.5 -180.501v-980c0 -70.667 -25.167 -130.834 -75.5 -180.501s-111.5 -74.5 -183.5 -74.5h-970
c-71.333 0 -132.333 24.833 -183 74.5s-76 109.834 -76 180.501v980c0 70.667 25.333 130.834 76 180.501s111.667 74.5 183 74.5zM1497 1193c0 36.667 -13.667 68.167 -41 94.5s-60.333 39.5 -99 39.5h-914c-38 0 -70.833 -13.167 -98.5 -39.5s-41.5 -57.833 -41.5 -94.5
v-942c0 -36.667 13.833 -68.167 41.5 -94.5s60.5 -39.5 98.5 -39.5h914c38 0 70.833 13.167 98.5 39.5s41.5 57.833 41.5 94.5v942z" />
    <glyph glyph-name="uni1F131" unicode="B&#x20de;" 
d="M651 385v693.001h312c65.333 0 117.166 -15.333 155.499 -46s57.5 -72.334 57.5 -125.001c0 -39.333 -11.5 -72.166 -34.5 -98.499s-53.5 -43.833 -91.5 -52.5v-6c48.667 -6 87.834 -23.833 117.501 -53.5s44.5 -68.834 44.5 -117.501
c0 -59.333 -22.833 -106.5 -68.5 -141.5s-105.5 -52.5 -179.5 -52.5h-313zM801 967.001v-174h91c90 0 135 29.667 135 89c0 26 -9.16699 46.667 -27.5 62s-43.5 23 -75.5 23h-123zM801 693.001v-193.001h102c54 0 93.167 7.66699 117.5 23s36.5 39 36.5 71
c0 30.667 -11 54.834 -33 72.501s-52.667 26.5 -92 26.5h-131zM415 1467h970c72 0 133.167 -24.833 183.5 -74.5s75.5 -109.834 75.5 -180.501v-980c0 -70.667 -25.167 -130.834 -75.5 -180.501s-111.5 -74.5 -183.5 -74.5h-970c-71.333 0 -132.333 24.833 -183 74.5
s-76 109.834 -76 180.501v980c0 70.667 25.333 130.834 76 180.501s111.667 74.5 183 74.5zM1497 1193c0 36.667 -13.667 68.167 -41 94.5s-60.333 39.5 -99 39.5h-914c-38 0 -70.833 -13.167 -98.5 -39.5s-41.5 -57.833 -41.5 -94.5v-942
c0 -36.667 13.833 -68.167 41.5 -94.5s60.5 -39.5 98.5 -39.5h914c38 0 70.833 13.167 98.5 39.5s41.5 57.833 41.5 94.5v942z" />
    <glyph glyph-name="uni1F132" unicode="C&#x20de;" 
d="M1054 619l151.998 -0.000976562c-9.33301 -74 -41.833 -133.5 -97.5 -178.5s-125.5 -67.5 -209.5 -67.5c-98 0 -177.333 32.667 -238 98s-91 152 -91 260s30.333 194.833 91 260.5s140 98.5 238 98.5c86 0 156.833 -23.167 212.5 -69.5s87.5 -107.5 95.5 -183.5h-149
c-4.66699 35.333 -21.667 64.5 -51 87.5s-64.666 34.5 -105.999 34.5c-53.333 0 -96 -20.667 -128 -62s-48 -96.666 -48 -165.999s16 -124.5 48 -165.5s74.667 -61.5 128 -61.5c40 0 74.333 10.833 103 32.5s45.334 49.167 50.001 82.5zM414.998 1467h970
c72 0 133.167 -24.833 183.5 -74.5s75.5 -109.834 75.5 -180.501v-980c0 -70.667 -25.167 -130.834 -75.5 -180.501s-111.5 -74.5 -183.5 -74.5h-970c-71.333 0 -132.333 24.833 -183 74.5s-76 109.834 -76 180.501v980c0 70.667 25.333 130.834 76 180.501
s111.667 74.5 183 74.5zM1497 1193c0 36.667 -13.667 68.167 -41 94.5s-60.333 39.5 -99 39.5h-914c-38 0 -70.833 -13.167 -98.5 -39.5s-41.5 -57.833 -41.5 -94.5v-942c0 -36.667 13.833 -68.167 41.5 -94.5s60.5 -39.5 98.5 -39.5h914c38 0 70.833 13.167 98.5 39.5
s41.5 57.833 41.5 94.5v942z" />
    <glyph glyph-name="uni1F133" unicode="D&#x20de;" 
d="M628 1078h271c106.667 0 187.167 -29.5 241.5 -88.5s81.5 -144.5 81.5 -256.5s-27.167 -198 -81.5 -258s-134.833 -90 -241.5 -90h-271v693zM780 952v-440h97c64 0 111.167 18 141.5 54s45.5 91 45.5 165c0 74.667 -15.333 130.167 -46 166.5s-77.667 54.5 -141 54.5h-97
zM415 1467h970c72 0 133.167 -24.833 183.5 -74.5s75.5 -109.834 75.5 -180.501v-980c0 -70.667 -25.167 -130.834 -75.5 -180.501s-111.5 -74.5 -183.5 -74.5h-970c-71.333 0 -132.333 24.833 -183 74.5s-76 109.834 -76 180.501v980c0 70.667 25.333 130.834 76 180.501
s111.667 74.5 183 74.5zM1497 1193c0 36.667 -13.667 68.167 -41 94.5s-60.333 39.5 -99 39.5h-914c-38 0 -70.833 -13.167 -98.5 -39.5s-41.5 -57.833 -41.5 -94.5v-942c0 -36.667 13.833 -68.167 41.5 -94.5s60.5 -39.5 98.5 -39.5h914c38 0 70.833 13.167 98.5 39.5
s41.5 57.833 41.5 94.5v942z" />
    <glyph glyph-name="uni1F134" unicode="E&#x20de;" 
d="M1143 511v-126h-472v693h472v-125h-321v-161h302v-114h-302v-167h321zM415 1467h970c72 0 133.167 -24.833 183.5 -74.5s75.5 -109.834 75.5 -180.501v-980c0 -70.667 -25.167 -130.834 -75.5 -180.501s-111.5 -74.5 -183.5 -74.5h-970
c-71.333 0 -132.333 24.833 -183 74.5s-76 109.834 -76 180.501v980c0 70.667 25.333 130.834 76 180.501s111.667 74.5 183 74.5zM1497 1193c0 36.667 -13.667 68.167 -41 94.5s-60.333 39.5 -99 39.5h-914c-38 0 -70.833 -13.167 -98.5 -39.5s-41.5 -57.833 -41.5 -94.5
v-942c0 -36.667 13.833 -68.167 41.5 -94.5s60.5 -39.5 98.5 -39.5h914c38 0 70.833 13.167 98.5 39.5s41.5 57.833 41.5 94.5v942z" />
    <glyph glyph-name="uni1F135" unicode="F&#x20de;" 
d="M852 385h-155v693h468v-127h-313v-173h286v-126h-286v-267zM415 1467h970c72 0 133.167 -24.833 183.5 -74.5s75.5 -109.834 75.5 -180.501v-980c0 -70.667 -25.167 -130.834 -75.5 -180.501s-111.5 -74.5 -183.5 -74.5h-970c-71.333 0 -132.333 24.833 -183 74.5
s-76 109.834 -76 180.501v980c0 70.667 25.333 130.834 76 180.501s111.667 74.5 183 74.5zM1497 1193c0 36.667 -13.667 68.167 -41 94.5s-60.333 39.5 -99 39.5h-914c-38 0 -70.833 -13.167 -98.5 -39.5s-41.5 -57.833 -41.5 -94.5v-942
c0 -36.667 13.833 -68.167 41.5 -94.5s60.5 -39.5 98.5 -39.5h914c38 0 70.833 13.167 98.5 39.5s41.5 57.833 41.5 94.5v942z" />
    <glyph glyph-name="uni1F136" unicode="G&#x20de;" 
d="M1057 608l0.000976562 44h-148v108h293v-121c0 -79.333 -26.5 -143.5 -79.5 -192.5s-127.167 -73.5 -222.5 -73.5c-98.667 0 -178.334 33 -239.001 99s-91 152.333 -91 259c0 107.333 30.333 194 91 260s140.334 99 239.001 99c82.667 0 152.167 -21.667 208.5 -65
s88.833 -100.666 97.5 -171.999h-151c-4.66699 32.667 -21.334 59.334 -50.001 80.001s-62.667 31 -102 31c-54 0 -97.167 -21.167 -129.5 -63.5s-48.5 -98.833 -48.5 -169.5s16.167 -127.334 48.5 -170.001s75.5 -64 129.5 -64c48.667 0 86.5 10.167 113.5 30.5
s40.5 47.166 40.5 80.499zM415.001 1467h970c72 0 133.167 -24.833 183.5 -74.5s75.5 -109.834 75.5 -180.501v-980c0 -70.667 -25.167 -130.834 -75.5 -180.501s-111.5 -74.5 -183.5 -74.5h-970c-71.333 0 -132.333 24.833 -183 74.5s-76 109.834 -76 180.501v980
c0 70.667 25.333 130.834 76 180.501s111.667 74.5 183 74.5zM1497 1193c0 36.667 -13.667 68.167 -41 94.5s-60.333 39.5 -99 39.5h-914c-38 0 -70.833 -13.167 -98.5 -39.5s-41.5 -57.833 -41.5 -94.5v-942c0 -36.667 13.833 -68.167 41.5 -94.5s60.5 -39.5 98.5 -39.5
h914c38 0 70.833 13.167 98.5 39.5s41.5 57.833 41.5 94.5v942z" />
    <glyph glyph-name="uni1F137" unicode="H&#x20de;" 
d="M1198 385h-151v287h-293v-287h-151v693h151v-276h293v276h151v-693zM415 1467h970c72 0 133.167 -24.833 183.5 -74.5s75.5 -109.834 75.5 -180.501v-980c0 -70.667 -25.167 -130.834 -75.5 -180.501s-111.5 -74.5 -183.5 -74.5h-970
c-71.333 0 -132.333 24.833 -183 74.5s-76 109.834 -76 180.501v980c0 70.667 25.333 130.834 76 180.501s111.667 74.5 183 74.5zM1497 1193c0 36.667 -13.667 68.167 -41 94.5s-60.333 39.5 -99 39.5h-914c-38 0 -70.833 -13.167 -98.5 -39.5s-41.5 -57.833 -41.5 -94.5
v-942c0 -36.667 13.833 -68.167 41.5 -94.5s60.5 -39.5 98.5 -39.5h914c38 0 70.833 13.167 98.5 39.5s41.5 57.833 41.5 94.5v942z" />
    <glyph glyph-name="uni1F138" unicode="I&#x20de;" 
d="M981 385h-162v693h162v-693zM415 1467h970c72 0 133.167 -24.833 183.5 -74.5s75.5 -109.834 75.5 -180.501v-980c0 -70.667 -25.167 -130.834 -75.5 -180.501s-111.5 -74.5 -183.5 -74.5h-970c-71.333 0 -132.333 24.833 -183 74.5s-76 109.834 -76 180.501v980
c0 70.667 25.333 130.834 76 180.501s111.667 74.5 183 74.5zM1497 1193c0 36.667 -13.667 68.167 -41 94.5s-60.333 39.5 -99 39.5h-914c-38 0 -70.833 -13.167 -98.5 -39.5s-41.5 -57.833 -41.5 -94.5v-942c0 -36.667 13.833 -68.167 41.5 -94.5s60.5 -39.5 98.5 -39.5
h914c38 0 70.833 13.167 98.5 39.5s41.5 57.833 41.5 94.5v942z" />
    <glyph glyph-name="uni1F139" unicode="J&#x20de;" 
d="M624 596l150.001 0.00195312c0.666992 -26.667 9.16699 -47.834 25.5 -63.501s38.166 -23.5 65.499 -23.5c63.333 0 95 34.667 95 104v460h155v-459c0 -78 -22 -138.5 -66 -181.5s-104.667 -64.5 -182 -64.5c-76 0 -135.5 21.167 -178.5 63.5s-64.5 97.166 -64.5 164.499
zM415.001 1467h970c72 0 133.167 -24.833 183.5 -74.5s75.5 -109.834 75.5 -180.501v-980c0 -70.667 -25.167 -130.834 -75.5 -180.501s-111.5 -74.5 -183.5 -74.5h-970c-71.333 0 -132.333 24.833 -183 74.5s-76 109.834 -76 180.501v980
c0 70.667 25.333 130.834 76 180.501s111.667 74.5 183 74.5zM1497 1193c0 36.667 -13.667 68.167 -41 94.5s-60.333 39.5 -99 39.5h-914c-38 0 -70.833 -13.167 -98.5 -39.5s-41.5 -57.833 -41.5 -94.5v-942c0 -36.667 13.833 -68.167 41.5 -94.5s60.5 -39.5 98.5 -39.5
h914c38 0 70.833 13.167 98.5 39.5s41.5 57.833 41.5 94.5v942z" />
    <glyph glyph-name="uni1F13A" unicode="K&#x20de;" 
d="M1222 1078l-251 -305l260 -388h-182l-193 287l-73 -80v-207h-148v693h148v-298h8l261 298h170zM415 1467h970c72 0 133.167 -24.833 183.5 -74.5s75.5 -109.834 75.5 -180.501v-980c0 -70.667 -25.167 -130.834 -75.5 -180.501s-111.5 -74.5 -183.5 -74.5h-970
c-71.333 0 -132.333 24.833 -183 74.5s-76 109.834 -76 180.501v980c0 70.667 25.333 130.834 76 180.501s111.667 74.5 183 74.5zM1497 1193c0 36.667 -13.667 68.167 -41 94.5s-60.333 39.5 -99 39.5h-914c-38 0 -70.833 -13.167 -98.5 -39.5s-41.5 -57.833 -41.5 -94.5
v-942c0 -36.667 13.833 -68.167 41.5 -94.5s60.5 -39.5 98.5 -39.5h914c38 0 70.833 13.167 98.5 39.5s41.5 57.833 41.5 94.5v942z" />
    <glyph glyph-name="uni1F13B" unicode="L&#x20de;" 
d="M1181 525v-135h-461v693h157v-558h304zM415 1467h970c72 0 133.167 -24.833 183.5 -74.5s75.5 -109.834 75.5 -180.501v-980c0 -70.667 -25.167 -130.834 -75.5 -180.501s-111.5 -74.5 -183.5 -74.5h-970c-71.333 0 -132.333 24.833 -183 74.5s-76 109.834 -76 180.501
v980c0 70.667 25.333 130.834 76 180.501s111.667 74.5 183 74.5zM1497 1193c0 36.667 -13.667 68.167 -41 94.5s-60.333 39.5 -99 39.5h-914c-38 0 -70.833 -13.167 -98.5 -39.5s-41.5 -57.833 -41.5 -94.5v-942c0 -36.667 13.833 -68.167 41.5 -94.5
s60.5 -39.5 98.5 -39.5h914c38 0 70.833 13.167 98.5 39.5s41.5 57.833 41.5 94.5v942z" />
    <glyph glyph-name="uni1F13C" unicode="M&#x20de;" 
d="M679 385h-130v693h153l197 -496h4l197 496h151v-693h-129v450h-10l-165 -421h-93l-166 421h-9v-450zM415 1467h970c72 0 133.167 -24.833 183.5 -74.5s75.5 -109.834 75.5 -180.501v-980c0 -70.667 -25.167 -130.834 -75.5 -180.501s-111.5 -74.5 -183.5 -74.5h-970
c-71.333 0 -132.333 24.833 -183 74.5s-76 109.834 -76 180.501v980c0 70.667 25.333 130.834 76 180.501s111.667 74.5 183 74.5zM1497 1193c0 36.667 -13.667 68.167 -41 94.5s-60.333 39.5 -99 39.5h-914c-38 0 -70.833 -13.167 -98.5 -39.5s-41.5 -57.833 -41.5 -94.5
v-942c0 -36.667 13.833 -68.167 41.5 -94.5s60.5 -39.5 98.5 -39.5h914c38 0 70.833 13.167 98.5 39.5s41.5 57.833 41.5 94.5v942z" />
    <glyph glyph-name="uni1F13D" unicode="N&#x20de;" 
d="M749 385h-141v693h123l311 -437h9v437h141v-693h-123l-312 441h-8v-441zM415 1467h970c72 0 133.167 -24.833 183.5 -74.5s75.5 -109.834 75.5 -180.501v-980c0 -70.667 -25.167 -130.834 -75.5 -180.501s-111.5 -74.5 -183.5 -74.5h-970
c-71.333 0 -132.333 24.833 -183 74.5s-76 109.834 -76 180.501v980c0 70.667 25.333 130.834 76 180.501s111.667 74.5 183 74.5zM1497 1193c0 36.667 -13.667 68.167 -41 94.5s-60.333 39.5 -99 39.5h-914c-38 0 -70.833 -13.167 -98.5 -39.5s-41.5 -57.833 -41.5 -94.5
v-942c0 -36.667 13.833 -68.167 41.5 -94.5s60.5 -39.5 98.5 -39.5h914c38 0 70.833 13.167 98.5 39.5s41.5 57.833 41.5 94.5v942z" />
    <glyph glyph-name="uni1F13E" unicode="O&#x20de;" 
d="M900 504c50.667 0 92.5 19.833 125.5 59.5s49.5 95.5 49.5 167.5s-16.5 128 -49.5 168s-74.833 60 -125.5 60s-92.5 -20 -125.5 -60s-49.5 -96 -49.5 -168s16.5 -127.833 49.5 -167.5s74.833 -59.5 125.5 -59.5zM900 373c-95.333 0 -174.333 31.833 -237 95.5
s-94 151.167 -94 262.5s31.333 199 94 263s141.667 96 237 96s174.333 -32 237 -96s94 -151.667 94 -263s-31.333 -198.833 -94 -262.5s-141.667 -95.5 -237 -95.5zM415 1467h970c72 0 133.167 -24.833 183.5 -74.5s75.5 -109.834 75.5 -180.501v-980
c0 -70.667 -25.167 -130.834 -75.5 -180.501s-111.5 -74.5 -183.5 -74.5h-970c-71.333 0 -132.333 24.833 -183 74.5s-76 109.834 -76 180.501v980c0 70.667 25.333 130.834 76 180.501s111.667 74.5 183 74.5zM1497 1193c0 36.667 -13.667 68.167 -41 94.5
s-60.333 39.5 -99 39.5h-914c-38 0 -70.833 -13.167 -98.5 -39.5s-41.5 -57.833 -41.5 -94.5v-942c0 -36.667 13.833 -68.167 41.5 -94.5s60.5 -39.5 98.5 -39.5h914c38 0 70.833 13.167 98.5 39.5s41.5 57.833 41.5 94.5v942z" />
    <glyph glyph-name="uni1F13F" unicode="P&#x20de;" 
d="M966 1078c76 0 136.168 -22 180.501 -66s66.5 -101.333 66.5 -172s-22.333 -127.667 -67 -171s-105.334 -65 -182.001 -65h-138v-219h-155v693h295zM1058 840c0 36.667 -10.333 64.832 -31 84.499s-50 29.5 -88 29.5h-117v-228h117c38 0 67.333 9.83301 88 29.5
s31 47.834 31 84.501zM415.001 1467h970c72 0 133.167 -24.833 183.5 -74.5s75.5 -109.834 75.5 -180.501v-980c0 -70.667 -25.167 -130.834 -75.5 -180.501s-111.5 -74.5 -183.5 -74.5h-970c-71.333 0 -132.333 24.833 -183 74.5s-76 109.834 -76 180.501v980
c0 70.667 25.333 130.834 76 180.501s111.667 74.5 183 74.5zM1497 1193c0 36.667 -13.667 68.167 -41 94.5s-60.333 39.5 -99 39.5h-914c-38 0 -70.833 -13.167 -98.5 -39.5s-41.5 -57.833 -41.5 -94.5v-942c0 -36.667 13.833 -68.167 41.5 -94.5s60.5 -39.5 98.5 -39.5
h914c38 0 70.833 13.167 98.5 39.5s41.5 57.833 41.5 94.5v942z" />
    <glyph glyph-name="uni1F140" unicode="Q&#x20de;" 
d="M1207 320h-150l-49 69c-36 -10.667 -72 -16 -108 -16c-95.333 0 -174.333 31.833 -237 95.5s-94 151.167 -94 262.5s31.333 199 94 263s141.667 96 237 96s174.333 -32 237 -96s94 -151.667 94 -263c0 -120.667 -39 -214.667 -117 -282zM900 504c14.667 0 28.667 2 42 6
l-73 106h120l36 -45c33.333 40 50 93.333 50 160c0 72 -16.5 128 -49.5 168s-74.833 60 -125.5 60s-92.5 -20 -125.5 -60s-49.5 -96 -49.5 -168s16.5 -127.833 49.5 -167.5s74.833 -59.5 125.5 -59.5zM415 1467h970c72 0 133.167 -24.833 183.5 -74.5
s75.5 -109.834 75.5 -180.501v-980c0 -70.667 -25.167 -130.834 -75.5 -180.501s-111.5 -74.5 -183.5 -74.5h-970c-71.333 0 -132.333 24.833 -183 74.5s-76 109.834 -76 180.501v980c0 70.667 25.333 130.834 76 180.501s111.667 74.5 183 74.5zM1497 1193
c0 36.667 -13.667 68.167 -41 94.5s-60.333 39.5 -99 39.5h-914c-38 0 -70.833 -13.167 -98.5 -39.5s-41.5 -57.833 -41.5 -94.5v-942c0 -36.667 13.833 -68.167 41.5 -94.5s60.5 -39.5 98.5 -39.5h914c38 0 70.833 13.167 98.5 39.5s41.5 57.833 41.5 94.5v942z" />
    <glyph glyph-name="uni1F141" unicode="R&#x20de;" 
d="M935 1078c80.667 0 143.833 -19.667 189.5 -59s68.5 -93 68.5 -161c0 -46.667 -12.5 -87 -37.5 -121s-57.167 -58 -96.5 -72l147 -280h-168l-124 253h-124v-253h-148v693h293zM789.999 750h122c38.667 0 69 8.66699 91 26s33 42.333 33 75
c0 34 -10.833 60.167 -32.5 78.5s-51.167 27.5 -88.5 27.5h-125v-207zM414.999 1467h970c72 0 133.167 -24.833 183.5 -74.5s75.5 -109.834 75.5 -180.501v-980c0 -70.667 -25.167 -130.834 -75.5 -180.501s-111.5 -74.5 -183.5 -74.5h-970
c-71.333 0 -132.333 24.833 -183 74.5s-76 109.834 -76 180.501v980c0 70.667 25.333 130.834 76 180.501s111.667 74.5 183 74.5zM1497 1193c0 36.667 -13.667 68.167 -41 94.5s-60.333 39.5 -99 39.5h-914c-38 0 -70.833 -13.167 -98.5 -39.5s-41.5 -57.833 -41.5 -94.5
v-942c0 -36.667 13.833 -68.167 41.5 -94.5s60.5 -39.5 98.5 -39.5h914c38 0 70.833 13.167 98.5 39.5s41.5 57.833 41.5 94.5v942z" />
    <glyph glyph-name="uni1F142" unicode="S&#x20de;" 
d="M613 583l149.999 -0.0078125c3.33301 -27.333 17.833 -49.166 43.5 -65.499s58.5 -24.5 98.5 -24.5s72 7.83301 96 23.5s36 36.834 36 63.501c0 21.333 -8.66699 38.333 -26 51s-46.333 23.334 -87 32.001l-107 21c-60.667 12.667 -107 35.334 -139 68.001
s-48 74.334 -48 125.001c0 64.667 25.167 116.5 75.5 155.5s116.5 58.5 198.5 58.5c78.667 0 143 -18.833 193 -56.5s76.333 -87.5 79 -149.5h-146c-2.66699 26.667 -15.5 47.834 -38.5 63.501s-52.5 23.5 -88.5 23.5s-65 -7.66699 -87 -23s-33 -35.666 -33 -60.999
c0 -38 33 -63.333 99 -76l110 -22c66.667 -13.333 115.834 -36 147.501 -68s47.5 -74.667 47.5 -128c0 -68 -26 -121.833 -78 -161.5s-122.667 -59.5 -212 -59.5c-85.333 0 -153.5 18.833 -204.5 56.5s-77.5 88.834 -79.5 153.501zM414.999 1466.99h970
c72 0 133.167 -24.833 183.5 -74.5s75.5 -109.834 75.5 -180.501v-980c0 -70.667 -25.167 -130.834 -75.5 -180.501s-111.5 -74.5 -183.5 -74.5h-970c-71.333 0 -132.333 24.833 -183 74.5s-76 109.834 -76 180.501v980c0 70.667 25.333 130.834 76 180.501
s111.667 74.5 183 74.5zM1497 1192.99c0 36.667 -13.667 68.167 -41 94.5s-60.333 39.5 -99 39.5h-914c-38 0 -70.833 -13.167 -98.5 -39.5s-41.5 -57.833 -41.5 -94.5v-942c0 -36.667 13.833 -68.167 41.5 -94.5s60.5 -39.5 98.5 -39.5h914c38 0 70.833 13.167 98.5 39.5
s41.5 57.833 41.5 94.5v942z" />
    <glyph glyph-name="uni1F143" unicode="T&#x20de;" 
d="M979 379h-158v561h-205v132h568v-132h-205v-561zM415 1467h970c72 0 133.167 -24.833 183.5 -74.5s75.5 -109.834 75.5 -180.501v-980c0 -70.667 -25.167 -130.834 -75.5 -180.501s-111.5 -74.5 -183.5 -74.5h-970c-71.333 0 -132.333 24.833 -183 74.5
s-76 109.834 -76 180.501v980c0 70.667 25.333 130.834 76 180.501s111.667 74.5 183 74.5zM1497 1193c0 36.667 -13.667 68.167 -41 94.5s-60.333 39.5 -99 39.5h-914c-38 0 -70.833 -13.167 -98.5 -39.5s-41.5 -57.833 -41.5 -94.5v-942
c0 -36.667 13.833 -68.167 41.5 -94.5s60.5 -39.5 98.5 -39.5h914c38 0 70.833 13.167 98.5 39.5s41.5 57.833 41.5 94.5v942z" />
    <glyph glyph-name="uni1F144" unicode="U&#x20de;" 
d="M900 499c42.667 0 76.832 11.833 102.499 35.5s38.5 56.167 38.5 97.5v440h154v-454c0 -74.667 -27 -135.167 -81 -181.5s-125.333 -69.5 -214 -69.5s-160 23.167 -214 69.5s-81 106.833 -81 181.5v454h154v-440c0 -41.333 12.833 -73.833 38.5 -97.5
s59.834 -35.5 102.501 -35.5zM414.998 1467h970c72 0 133.167 -24.833 183.5 -74.5s75.5 -109.834 75.5 -180.501v-980c0 -70.667 -25.167 -130.834 -75.5 -180.501s-111.5 -74.5 -183.5 -74.5h-970c-71.333 0 -132.333 24.833 -183 74.5s-76 109.834 -76 180.501v980
c0 70.667 25.333 130.834 76 180.501s111.667 74.5 183 74.5zM1497 1193c0 36.667 -13.667 68.167 -41 94.5s-60.333 39.5 -99 39.5h-914c-38 0 -70.833 -13.167 -98.5 -39.5s-41.5 -57.833 -41.5 -94.5v-942c0 -36.667 13.833 -68.167 41.5 -94.5s60.5 -39.5 98.5 -39.5
h914c38 0 70.833 13.167 98.5 39.5s41.5 57.833 41.5 94.5v942z" />
    <glyph glyph-name="uni1F145" unicode="V&#x20de;" 
d="M802 377l-236 693h176l154 -530h8l154 530h176l-236 -693h-196zM415 1467h970c72 0 133.167 -24.833 183.5 -74.5s75.5 -109.834 75.5 -180.501v-980c0 -70.667 -25.167 -130.834 -75.5 -180.501s-111.5 -74.5 -183.5 -74.5h-970c-71.333 0 -132.333 24.833 -183 74.5
s-76 109.834 -76 180.501v980c0 70.667 25.333 130.834 76 180.501s111.667 74.5 183 74.5zM1497 1193c0 36.667 -13.667 68.167 -41 94.5s-60.333 39.5 -99 39.5h-914c-38 0 -70.833 -13.167 -98.5 -39.5s-41.5 -57.833 -41.5 -94.5v-942
c0 -36.667 13.833 -68.167 41.5 -94.5s60.5 -39.5 98.5 -39.5h914c38 0 70.833 13.167 98.5 39.5s41.5 57.833 41.5 94.5v942z" />
    <glyph glyph-name="uni1F146" unicode="W&#x20de;" 
d="M898 847l-128 -468h-136l-184 693h156l104 -493h7l122 493h122l122 -493h7l104 493h156l-183 -693h-137l-128 468h-4zM415 1467h970c72 0 133.167 -24.833 183.5 -74.5s75.5 -109.834 75.5 -180.501v-980c0 -70.667 -25.167 -130.834 -75.5 -180.501
s-111.5 -74.5 -183.5 -74.5h-970c-71.333 0 -132.333 24.833 -183 74.5s-76 109.834 -76 180.501v980c0 70.667 25.333 130.834 76 180.501s111.667 74.5 183 74.5zM1497 1193c0 36.667 -13.667 68.167 -41 94.5s-60.333 39.5 -99 39.5h-914
c-38 0 -70.833 -13.167 -98.5 -39.5s-41.5 -57.833 -41.5 -94.5v-942c0 -36.667 13.833 -68.167 41.5 -94.5s60.5 -39.5 98.5 -39.5h914c38 0 70.833 13.167 98.5 39.5s41.5 57.833 41.5 94.5v942z" />
    <glyph glyph-name="uni1F147" unicode="X&#x20de;" 
d="M1221 1078l-227 -347l225 -346h-174l-146 240h-7l-148 -240h-169l225 349l-223 344h179l144 -241h7l144 241h170zM415 1467h970c72 0 133.167 -24.833 183.5 -74.5s75.5 -109.834 75.5 -180.501v-980c0 -70.667 -25.167 -130.834 -75.5 -180.501
s-111.5 -74.5 -183.5 -74.5h-970c-71.333 0 -132.333 24.833 -183 74.5s-76 109.834 -76 180.501v980c0 70.667 25.333 130.834 76 180.501s111.667 74.5 183 74.5zM1497 1193c0 36.667 -13.667 68.167 -41 94.5s-60.333 39.5 -99 39.5h-914
c-38 0 -70.833 -13.167 -98.5 -39.5s-41.5 -57.833 -41.5 -94.5v-942c0 -36.667 13.833 -68.167 41.5 -94.5s60.5 -39.5 98.5 -39.5h914c38 0 70.833 13.167 98.5 39.5s41.5 57.833 41.5 94.5v942z" />
    <glyph glyph-name="uni1F148" unicode="Y&#x20de;" 
d="M980 379h-159v252l-241 441h172l146 -287h6l147 287h169l-240 -439v-254zM415 1467h970c72 0 133.167 -24.833 183.5 -74.5s75.5 -109.834 75.5 -180.501v-980c0 -70.667 -25.167 -130.834 -75.5 -180.501s-111.5 -74.5 -183.5 -74.5h-970
c-71.333 0 -132.333 24.833 -183 74.5s-76 109.834 -76 180.501v980c0 70.667 25.333 130.834 76 180.501s111.667 74.5 183 74.5zM1497 1193c0 36.667 -13.667 68.167 -41 94.5s-60.333 39.5 -99 39.5h-914c-38 0 -70.833 -13.167 -98.5 -39.5s-41.5 -57.833 -41.5 -94.5
v-942c0 -36.667 13.833 -68.167 41.5 -94.5s60.5 -39.5 98.5 -39.5h914c38 0 70.833 13.167 98.5 39.5s41.5 57.833 41.5 94.5v942z" />
    <glyph glyph-name="uni1F149" unicode="Z&#x20de;" 
d="M632 385v104l338 452v8h-331v129h521v-104l-338 -451v-9h348v-129h-538zM415 1467h970c72 0 133.167 -24.833 183.5 -74.5s75.5 -109.834 75.5 -180.501v-980c0 -70.667 -25.167 -130.834 -75.5 -180.501s-111.5 -74.5 -183.5 -74.5h-970
c-71.333 0 -132.333 24.833 -183 74.5s-76 109.834 -76 180.501v980c0 70.667 25.333 130.834 76 180.501s111.667 74.5 183 74.5zM1497 1193c0 36.667 -13.667 68.167 -41 94.5s-60.333 39.5 -99 39.5h-914c-38 0 -70.833 -13.167 -98.5 -39.5s-41.5 -57.833 -41.5 -94.5
v-942c0 -36.667 13.833 -68.167 41.5 -94.5s60.5 -39.5 98.5 -39.5h914c38 0 70.833 13.167 98.5 39.5s41.5 57.833 41.5 94.5v942z" />
    <glyph glyph-name="uni1F150" unicode="A&#x20dd;&#x25cf;" 
d="M995 681h-190l92 290h6zM714 375l58 177h256l58 -177h179l-263 760h-204l-263 -760h179zM900 -51c-104.667 0 -204.5 20.5 -299.5 61.5s-177 96 -246 165s-124 151 -165 246s-61.5 194.833 -61.5 299.5s20.5 204.667 61.5 300s96 177.5 165 246.5s151.167 124 246.5 165
s195 61.5 299 61.5s203.667 -20.5 299 -61.5s177.5 -96 246.5 -165s124 -151.167 165 -246.5s61.5 -195.333 61.5 -300s-20.5 -204.5 -61.5 -299.5s-96 -177 -165 -246s-151 -124 -246 -165s-194.833 -61.5 -299.5 -61.5z" />
    <glyph glyph-name="uni1F151" unicode="B&#x20dd;&#x25cf;" 
d="M619 353l342.999 0.000976562c83.333 0 150.333 19.667 201 59s76 91.333 76 156c0 50.667 -15.167 92.667 -45.5 126s-72.166 54 -125.499 62v2c40.667 10.667 72.5 30.667 95.5 60s34.5 64.666 34.5 105.999c0 58 -21.167 104 -63.5 138s-99.833 51 -172.5 51h-343
v-760zM788.999 985.001h131c33.333 0 59.833 -8 79.5 -24s29.5 -37.667 29.5 -65c0 -62.667 -48 -94 -144 -94h-96v183zM788.999 687.001h140c42 0 74.5 -9 97.5 -27s34.5 -43.667 34.5 -77c0 -66 -54.667 -99 -164 -99h-108v203zM899.999 -50.999
c-104.667 0 -204.5 20.5 -299.5 61.5s-177 96 -246 165s-124 151 -165 246s-61.5 194.833 -61.5 299.5s20.5 204.667 61.5 300s96 177.5 165 246.5s151.167 124 246.5 165s195 61.5 299 61.5s203.667 -20.5 299 -61.5s177.5 -96 246.5 -165s124 -151.167 165 -246.5
s61.5 -195.333 61.5 -300s-20.5 -204.5 -61.5 -299.5s-96 -177 -165 -246s-151 -124 -246 -165s-194.833 -61.5 -299.5 -61.5z" />
    <glyph glyph-name="uni1F152" unicode="C&#x20dd;&#x25cf;" 
d="M1061 607c-5.33301 -32 -23 -58.833 -53 -80.5s-65.333 -32.5 -106 -32.5c-55.333 0 -99.666 21.333 -132.999 64s-50 100 -50 172s16.667 129.667 50 173s77.666 65 132.999 65c42 0 78.333 -11.833 109 -35.5s48.667 -52.167 54 -85.5h173
c-8.66699 83.333 -43.667 150.333 -105 201s-139 76 -233 76c-107.333 0 -194.333 -36 -261 -108s-100 -167.333 -100 -286c0 -118 33.333 -212.833 100 -284.5s153.667 -107.5 261 -107.5c92 0 168.5 24.667 229.5 74s96.5 114.333 106.5 195h-175zM900 -51
c-104.667 0 -204.5 20.5 -299.5 61.5s-177 96 -246 165s-124 151 -165 246s-61.5 194.833 -61.5 299.5s20.5 204.667 61.5 300s96 177.5 165 246.5s151.167 124 246.5 165s195 61.5 299 61.5s203.667 -20.5 299 -61.5s177.5 -96 246.5 -165s124 -151.167 165 -246.5
s61.5 -195.333 61.5 -300s-20.5 -204.5 -61.5 -299.5s-96 -177 -165 -246s-151 -124 -246 -165s-194.833 -61.5 -299.5 -61.5z" />
    <glyph glyph-name="uni1F153" unicode="D&#x20dd;&#x25cf;" 
d="M613 1113v-760.001h299c116 0 204.333 32.333 265 97s91 159.334 91 284.001s-30.167 219 -90.5 283s-148.833 96 -265.5 96h-299zM785 970.999l103 -0.000976562c68.667 0 119.167 -19.333 151.5 -58s48.5 -99 48.5 -181c0 -81.333 -16.167 -141.166 -48.5 -179.499
s-82.833 -57.5 -151.5 -57.5h-103v476zM900 -51.002c-104.667 0 -204.5 20.5 -299.5 61.5s-177 96 -246 165s-124 151 -165 246s-61.5 194.833 -61.5 299.5s20.5 204.667 61.5 300s96 177.5 165 246.5s151.167 124 246.5 165s195 61.5 299 61.5s203.667 -20.5 299 -61.5
s177.5 -96 246.5 -165s124 -151.167 165 -246.5s61.5 -195.333 61.5 -300s-20.5 -204.5 -61.5 -299.5s-96 -177 -165 -246s-151 -124 -246 -165s-194.833 -61.5 -299.5 -61.5z" />
    <glyph glyph-name="uni1F154" unicode="E&#x20dd;&#x25cf;" 
d="M1166 493h-352v178h330v130h-330v172h352v140h-525v-760h525v140zM900 -51c-104.667 0 -204.5 20.5 -299.5 61.5s-177 96 -246 165s-124 151 -165 246s-61.5 194.833 -61.5 299.5s20.5 204.667 61.5 300s96 177.5 165 246.5s151.167 124 246.5 165s195 61.5 299 61.5
s203.667 -20.5 299 -61.5s177.5 -96 246.5 -165s124 -151.167 165 -246.5s61.5 -195.333 61.5 -300s-20.5 -204.5 -61.5 -299.5s-96 -177 -165 -246s-151 -124 -246 -165s-194.833 -61.5 -299.5 -61.5z" />
    <glyph glyph-name="uni1F155" unicode="F&#x20dd;&#x25cf;" 
d="M845 353v289h312v144h-312v183h341v144h-517v-760h176zM900 -51c-104.667 0 -204.5 20.5 -299.5 61.5s-177 96 -246 165s-124 151 -165 246s-61.5 194.833 -61.5 299.5s20.5 204.667 61.5 300s96 177.5 165 246.5s151.167 124 246.5 165s195 61.5 299 61.5
s203.667 -20.5 299 -61.5s177.5 -96 246.5 -165s124 -151.167 165 -246.5s61.5 -195.333 61.5 -300s-20.5 -204.5 -61.5 -299.5s-96 -177 -165 -246s-151 -124 -246 -165s-194.833 -61.5 -299.5 -61.5z" />
    <glyph glyph-name="uni1F156" unicode="G&#x20dd;&#x25cf;" 
d="M1063 618c0 -36 -14.001 -66 -42.001 -90s-67 -36 -117 -36c-56 0 -100.833 21.333 -134.5 64s-50.5 100.667 -50.5 174s16.667 131.166 50 173.499s78.333 63.5 135 63.5c43.333 0 79.333 -9 108 -27s45 -40.667 49 -68h176c-10.667 74.667 -46.667 135.167 -108 181.5
s-137 69.5 -227 69.5c-108 0 -195.667 -36.167 -263 -108.5s-101 -167.166 -101 -284.499c0 -116.667 33.333 -211 100 -283s154.334 -108 263.001 -108c100 0 180.167 28.833 240.5 86.5s90.5 129.5 90.5 215.5v133h-320v-135h151v-21zM899.999 -51
c-104.667 0 -204.5 20.5 -299.5 61.5s-177 96 -246 165s-124 151 -165 246s-61.5 194.833 -61.5 299.5s20.5 204.667 61.5 300s96 177.5 165 246.5s151.167 124 246.5 165s195 61.5 299 61.5s203.667 -20.5 299 -61.5s177.5 -96 246.5 -165s124 -151.167 165 -246.5
s61.5 -195.333 61.5 -300s-20.5 -204.5 -61.5 -299.5s-96 -177 -165 -246s-151 -124 -246 -165s-194.833 -61.5 -299.5 -61.5z" />
    <glyph glyph-name="uni1F157" unicode="H&#x20dd;&#x25cf;" 
d="M1227 353v760h-171v-299h-311v299h-172v-760h172v310h311v-310h171zM900 -51c-104.667 0 -204.5 20.5 -299.5 61.5s-177 96 -246 165s-124 151 -165 246s-61.5 194.833 -61.5 299.5s20.5 204.667 61.5 300s96 177.5 165 246.5s151.167 124 246.5 165s195 61.5 299 61.5
s203.667 -20.5 299 -61.5s177.5 -96 246.5 -165s124 -151.167 165 -246.5s61.5 -195.333 61.5 -300s-20.5 -204.5 -61.5 -299.5s-96 -177 -165 -246s-151 -124 -246 -165s-194.833 -61.5 -299.5 -61.5z" />
    <glyph glyph-name="uni1F158" unicode="I&#x20dd;&#x25cf;" 
d="M991 353v760h-182v-760h182zM900 -51c-104.667 0 -204.5 20.5 -299.5 61.5s-177 96 -246 165s-124 151 -165 246s-61.5 194.833 -61.5 299.5s20.5 204.667 61.5 300s96 177.5 165 246.5s151.167 124 246.5 165s195 61.5 299 61.5s203.667 -20.5 299 -61.5
s177.5 -96 246.5 -165s124 -151.167 165 -246.5s61.5 -195.333 61.5 -300s-20.5 -204.5 -61.5 -299.5s-96 -177 -165 -246s-151 -124 -246 -165s-194.833 -61.5 -299.5 -61.5z" />
    <glyph glyph-name="uni1F159" unicode="J&#x20dd;&#x25cf;" 
d="M594 591c0 -78 24.501 -140.166 73.501 -186.499s114.5 -69.5 196.5 -69.5c86.667 0 154 23.667 202 71s72 113.666 72 198.999v503h-178v-504c0 -71.333 -33 -107 -99 -107c-28 0 -50.333 8.5 -67 25.5s-25.334 39.833 -26.001 68.5h-174zM900.001 -50.999
c-104.667 0 -204.5 20.5 -299.5 61.5s-177 96 -246 165s-124 151 -165 246s-61.5 194.833 -61.5 299.5s20.5 204.667 61.5 300s96 177.5 165 246.5s151.167 124 246.5 165s195 61.5 299 61.5s203.667 -20.5 299 -61.5s177.5 -96 246.5 -165s124 -151.167 165 -246.5
s61.5 -195.333 61.5 -300s-20.5 -204.5 -61.5 -299.5s-96 -177 -165 -246s-151 -124 -246 -165s-194.833 -61.5 -299.5 -61.5z" />
    <glyph glyph-name="uni1F15A" unicode="K&#x20dd;&#x25cf;" 
d="M1253 1113h-196l-282 -321h-4v321h-170v-760h170v228l74 80l208 -308h209l-287 424zM900 -51c-104.667 0 -204.5 20.5 -299.5 61.5s-177 96 -246 165s-124 151 -165 246s-61.5 194.833 -61.5 299.5s20.5 204.667 61.5 300s96 177.5 165 246.5s151.167 124 246.5 165
s195 61.5 299 61.5s203.667 -20.5 299 -61.5s177.5 -96 246.5 -165s124 -151.167 165 -246.5s61.5 -195.333 61.5 -300s-20.5 -204.5 -61.5 -299.5s-96 -177 -165 -246s-151 -124 -246 -165s-194.833 -61.5 -299.5 -61.5z" />
    <glyph glyph-name="uni1F15B" unicode="L&#x20dd;&#x25cf;" 
d="M1194 512h-331v606h-179v-760h510v154zM900 -51c-104.667 0 -204.5 20.5 -299.5 61.5s-177 96 -246 165s-124 151 -165 246s-61.5 194.833 -61.5 299.5s20.5 204.667 61.5 300s96 177.5 165 246.5s151.167 124 246.5 165s195 61.5 299 61.5s203.667 -20.5 299 -61.5
s177.5 -96 246.5 -165s124 -151.167 165 -246.5s61.5 -195.333 61.5 -300s-20.5 -204.5 -61.5 -299.5s-96 -177 -165 -246s-151 -124 -246 -165s-194.833 -61.5 -299.5 -61.5z" />
    <glyph glyph-name="uni1F15C" unicode="M&#x20dd;&#x25cf;" 
d="M662 353v493h5l179 -459h107l180 456h4v-490h150v760h-172l-215 -539h-1l-212 539h-174v-760h149zM900 -51c-104.667 0 -204.5 20.5 -299.5 61.5s-177 96 -246 165s-124 151 -165 246s-61.5 194.833 -61.5 299.5s20.5 204.667 61.5 300s96 177.5 165 246.5
s151.167 124 246.5 165s195 61.5 299 61.5s203.667 -20.5 299 -61.5s177.5 -96 246.5 -165s124 -151.167 165 -246.5s61.5 -195.333 61.5 -300s-20.5 -204.5 -61.5 -299.5s-96 -177 -165 -246s-151 -124 -246 -165s-194.833 -61.5 -299.5 -61.5z" />
    <glyph glyph-name="uni1F15D" unicode="N&#x20dd;&#x25cf;" 
d="M740 353v475h3l338 -475h141v760h-162v-474h-3l-339 474h-140v-760h162zM900 -51c-104.667 0 -204.5 20.5 -299.5 61.5s-177 96 -246 165s-124 151 -165 246s-61.5 194.833 -61.5 299.5s20.5 204.667 61.5 300s96 177.5 165 246.5s151.167 124 246.5 165
s195 61.5 299 61.5s203.667 -20.5 299 -61.5s177.5 -96 246.5 -165s124 -151.167 165 -246.5s61.5 -195.333 61.5 -300s-20.5 -204.5 -61.5 -299.5s-96 -177 -165 -246s-151 -124 -246 -165s-194.833 -61.5 -299.5 -61.5z" />
    <glyph glyph-name="uni1F15E" unicode="O&#x20dd;&#x25cf;" 
d="M900 489c-54 0 -98.5 21.167 -133.5 63.5s-52.5 101.5 -52.5 177.5c0 76.667 17.5 136.167 52.5 178.5s79.5 63.5 133.5 63.5s98.5 -21.167 133.5 -63.5s52.5 -101.833 52.5 -178.5c0 -76 -17.5 -135.167 -52.5 -177.5s-79.5 -63.5 -133.5 -63.5zM900 338
c104.667 0 191.334 35 260.001 105s103 165.667 103 287c0 122 -34.333 218.167 -103 288.5s-155.334 105.5 -260.001 105.5s-191.334 -35.167 -260.001 -105.5s-103 -166.5 -103 -288.5c0 -121.333 34.333 -217 103 -287s155.334 -105 260.001 -105zM900 -51
c-104.667 0 -204.5 20.5 -299.5 61.5s-177 96 -246 165s-124 151 -165 246s-61.5 194.833 -61.5 299.5s20.5 204.667 61.5 300s96 177.5 165 246.5s151.167 124 246.5 165s195 61.5 299 61.5s203.667 -20.5 299 -61.5s177.5 -96 246.5 -165s124 -151.167 165 -246.5
s61.5 -195.333 61.5 -300s-20.5 -204.5 -61.5 -299.5s-96 -177 -165 -246s-151 -124 -246 -165s-194.833 -61.5 -299.5 -61.5z" />
    <glyph glyph-name="uni1F15F" unicode="P&#x20dd;&#x25cf;" 
d="M964 1113h-325v-760h178v238h145c83.333 0 150.333 23.5 201 70.5s76 109.833 76 188.5s-25.167 142.167 -75.5 190.5s-116.833 72.5 -199.5 72.5zM1062 850c0 -38.667 -11 -68.667 -33 -90s-53.333 -32 -94 -32h-123v244h123c40.667 0 72 -10.667 94 -32
s33 -51.333 33 -90zM900 -51c-104.667 0 -204.5 20.5 -299.5 61.5s-177 96 -246 165s-124 151 -165 246s-61.5 194.833 -61.5 299.5s20.5 204.667 61.5 300s96 177.5 165 246.5s151.167 124 246.5 165s195 61.5 299 61.5s203.667 -20.5 299 -61.5s177.5 -96 246.5 -165
s124 -151.167 165 -246.5s61.5 -195.333 61.5 -300s-20.5 -204.5 -61.5 -299.5s-96 -177 -165 -246s-151 -124 -246 -165s-194.833 -61.5 -299.5 -61.5z" />
    <glyph glyph-name="uni1F160" unicode="Q&#x20dd;&#x25cf;" 
d="M1244 284l-103.999 141c82 72 123 173.667 123 305c0 122 -34.333 218.167 -103 288.5s-155.334 105.5 -260.001 105.5s-191.334 -35.167 -260.001 -105.5s-103 -166.5 -103 -288.5c0 -121.333 34.333 -217 103 -287s155.334 -105 260.001 -105c40 0 79 5.66699 117 17
l49 -71h178zM900.001 489c-54 0 -98.5 21.168 -133.5 63.501s-52.5 101.5 -52.5 177.5c0 76.667 17.5 136.167 52.5 178.5s79.5 63.5 133.5 63.5s98.5 -21.167 133.5 -63.5s52.5 -101.833 52.5 -178.5c0 -66.667 -16.333 -121.334 -49 -164.001l-38 47h-142l81 -119
c-13.333 -3.33301 -26 -5 -38 -5zM900.001 -50.999c-104.667 0 -204.5 20.5 -299.5 61.5s-177 96 -246 165s-124 151 -165 246s-61.5 194.833 -61.5 299.5s20.5 204.667 61.5 300s96 177.5 165 246.5s151.167 124 246.5 165s195 61.5 299 61.5s203.667 -20.5 299 -61.5
s177.5 -96 246.5 -165s124 -151.167 165 -246.5s61.5 -195.333 61.5 -300s-20.5 -204.5 -61.5 -299.5s-96 -177 -165 -246s-151 -124 -246 -165s-194.833 -61.5 -299.5 -61.5z" />
    <glyph glyph-name="uni1F161" unicode="R&#x20dd;&#x25cf;" 
d="M777 755l-0.000976562 218.999h133c40.667 0 72.334 -9.66699 95.001 -29s34 -46.666 34 -81.999c0 -34 -11.333 -60.5 -34 -79.5s-55 -28.5 -97 -28.5h-131zM931.999 1113l-323.001 -0.000976562v-760h170v274h128l134 -274h195l-161 304c44 16 78.667 42.833 104 80.5
s38 81.834 38 132.501c0 76 -25.167 135.5 -75.5 178.5s-120.166 64.5 -209.499 64.5zM899.998 -51.002c-104.667 0 -204.5 20.5 -299.5 61.5s-177 96 -246 165s-124 151 -165 246s-61.5 194.833 -61.5 299.5s20.5 204.667 61.5 300s96 177.5 165 246.5
s151.167 124 246.5 165s195 61.5 299 61.5s203.667 -20.5 299 -61.5s177.5 -96 246.5 -165s124 -151.167 165 -246.5s61.5 -195.333 61.5 -300s-20.5 -204.5 -61.5 -299.5s-96 -177 -165 -246s-151 -124 -246 -165s-194.833 -61.5 -299.5 -61.5z" />
    <glyph glyph-name="uni1F162" unicode="S&#x20dd;&#x25cf;" 
d="M584 576c2.66699 -72.667 32.001 -130.168 88.001 -172.501s131 -63.5 225 -63.5c98 0 175.833 21.833 233.5 65.5s86.5 102.834 86.5 177.501c0 59.333 -17.667 106.833 -53 142.5s-90 60.834 -164 75.501l-119 24c-70 12.667 -105 39 -105 79c0 26.667 11.5 48 34.5 64
s53.833 24 92.5 24c38 0 69.167 -8.66699 93.5 -26s38.166 -40.333 41.499 -69h166c-2.66699 69.333 -31.5 125.166 -86.5 167.499s-126.167 63.5 -213.5 63.5c-90 0 -162.833 -21.667 -218.5 -65s-83.5 -100.333 -83.5 -171c0 -56 17.667 -102.333 53 -139
s86.333 -61.667 153 -75l117 -24c43.333 -9.33301 74 -20.333 92 -33s27 -30 27 -52c0 -28 -12.5 -50.167 -37.5 -66.5s-58.833 -24.5 -101.5 -24.5s-77.667 9 -105 27s-42.333 41.667 -45 71h-171zM900.001 -51.001c-104.667 0 -204.5 20.5 -299.5 61.5s-177 96 -246 165
s-124 151 -165 246s-61.5 194.833 -61.5 299.5s20.5 204.667 61.5 300s96 177.5 165 246.5s151.167 124 246.5 165s195 61.5 299 61.5s203.667 -20.5 299 -61.5s177.5 -96 246.5 -165s124 -151.167 165 -246.5s61.5 -195.333 61.5 -300s-20.5 -204.5 -61.5 -299.5
s-96 -177 -165 -246s-151 -124 -246 -165s-194.833 -61.5 -299.5 -61.5z" />
    <glyph glyph-name="uni1F163" unicode="T&#x20dd;&#x25cf;" 
d="M989 332v608h223v152h-623v-152h222v-608h178zM900 -51c-104.667 0 -204.5 20.5 -299.5 61.5s-177 96 -246 165s-124 151 -165 246s-61.5 194.833 -61.5 299.5s20.5 204.667 61.5 300s96 177.5 165 246.5s151.167 124 246.5 165s195 61.5 299 61.5
s203.667 -20.5 299 -61.5s177.5 -96 246.5 -165s124 -151.167 165 -246.5s61.5 -195.333 61.5 -300s-20.5 -204.5 -61.5 -299.5s-96 -177 -165 -246s-151 -124 -246 -165s-194.833 -61.5 -299.5 -61.5z" />
    <glyph glyph-name="uni1F164" unicode="U&#x20dd;&#x25cf;" 
d="M900 471c-46.667 0 -83 12.5 -109 37.5s-39 59.167 -39 102.5v481h-177v-502c0 -81.333 29.667 -146.833 89 -196.5s138 -74.5 236 -74.5s176.667 24.833 236 74.5s89 115.167 89 196.5v502h-176v-481c0 -43.333 -13.333 -77.5 -40 -102.5s-63 -37.5 -109 -37.5zM900 -51
c-104.667 0 -204.5 20.5 -299.5 61.5s-177 96 -246 165s-124 151 -165 246s-61.5 194.833 -61.5 299.5s20.5 204.667 61.5 300s96 177.5 165 246.5s151.167 124 246.5 165s195 61.5 299 61.5s203.667 -20.5 299 -61.5s177.5 -96 246.5 -165s124 -151.167 165 -246.5
s61.5 -195.333 61.5 -300s-20.5 -204.5 -61.5 -299.5s-96 -177 -165 -246s-151 -124 -246 -165s-194.833 -61.5 -299.5 -61.5z" />
    <glyph glyph-name="uni1F165" unicode="V&#x20dd;&#x25cf;" 
d="M1007 330l261 759h-200l-165 -577h-6l-165 577h-200l261 -759h214zM900 -51c-104.667 0 -204.5 20.5 -299.5 61.5s-177 96 -246 165s-124 151 -165 246s-61.5 194.833 -61.5 299.5s20.5 204.667 61.5 300s96 177.5 165 246.5s151.167 124 246.5 165s195 61.5 299 61.5
s203.667 -20.5 299 -61.5s177.5 -96 246.5 -165s124 -151.167 165 -246.5s61.5 -195.333 61.5 -300s-20.5 -204.5 -61.5 -299.5s-96 -177 -165 -246s-151 -124 -246 -165s-194.833 -61.5 -299.5 -61.5z" />
    <glyph glyph-name="uni1F166" unicode="W&#x20dd;&#x25cf;" 
d="M898 835h4l137 -503h157l202 760h-180l-109 -536h-5l-132 536h-144l-132 -536h-5l-108 536h-181l203 -760h156zM900 -51c-104.667 0 -204.5 20.5 -299.5 61.5s-177 96 -246 165s-124 151 -165 246s-61.5 194.833 -61.5 299.5s20.5 204.667 61.5 300s96 177.5 165 246.5
s151.167 124 246.5 165s195 61.5 299 61.5s203.667 -20.5 299 -61.5s177.5 -96 246.5 -165s124 -151.167 165 -246.5s61.5 -195.333 61.5 -300s-20.5 -204.5 -61.5 -299.5s-96 -177 -165 -246s-151 -124 -246 -165s-194.833 -61.5 -299.5 -61.5z" />
    <glyph glyph-name="uni1F167" unicode="X&#x20dd;&#x25cf;" 
d="M1257 1113h-195l-153 -262h-6l-156 262h-205l245 -378l-247 -382h195l157 259h6l158 -259h198l-247 379zM900 -51c-104.667 0 -204.5 20.5 -299.5 61.5s-177 96 -246 165s-124 151 -165 246s-61.5 194.833 -61.5 299.5s20.5 204.667 61.5 300s96 177.5 165 246.5
s151.167 124 246.5 165s195 61.5 299 61.5s203.667 -20.5 299 -61.5s177.5 -96 246.5 -165s124 -151.167 165 -246.5s61.5 -195.333 61.5 -300s-20.5 -204.5 -61.5 -299.5s-96 -177 -165 -246s-151 -124 -246 -165s-194.833 -61.5 -299.5 -61.5z" />
    <glyph glyph-name="uni1F168" unicode="Y&#x20dd;&#x25cf;" 
d="M810 343h181v277l267 483h-197l-159 -311h-4l-159 311h-196l267 -483v-277zM900 -51c-104.667 0 -204.5 20.5 -299.5 61.5s-177 96 -246 165s-124 151 -165 246s-61.5 194.833 -61.5 299.5s20.5 204.667 61.5 300s96 177.5 165 246.5s151.167 124 246.5 165
s195 61.5 299 61.5s203.667 -20.5 299 -61.5s177.5 -96 246.5 -165s124 -151.167 165 -246.5s61.5 -195.333 61.5 -300s-20.5 -204.5 -61.5 -299.5s-96 -177 -165 -246s-151 -124 -246 -165s-194.833 -61.5 -299.5 -61.5z" />
    <glyph glyph-name="uni1F169" unicode="Z&#x20dd;&#x25cf;" 
d="M604 353h594v149h-377v2l366 491v118h-575v-149h359v-2l-367 -491v-118zM900 -51c-104.667 0 -204.5 20.5 -299.5 61.5s-177 96 -246 165s-124 151 -165 246s-61.5 194.833 -61.5 299.5s20.5 204.667 61.5 300s96 177.5 165 246.5s151.167 124 246.5 165
s195 61.5 299 61.5s203.667 -20.5 299 -61.5s177.5 -96 246.5 -165s124 -151.167 165 -246.5s61.5 -195.333 61.5 -300s-20.5 -204.5 -61.5 -299.5s-96 -177 -165 -246s-151 -124 -246 -165s-194.833 -61.5 -299.5 -61.5z" />
    <glyph glyph-name="uni1F170" unicode="A&#x20de;&#x25a0;" 
d="M995 666h-190l92 290h6zM714 360l58 177h256l58 -177h179l-263 760h-204l-263 -760h179zM415 1467h970c72 0 133.167 -24.833 183.5 -74.5s75.5 -109.834 75.5 -180.501v-980c0 -70.667 -25.167 -130.834 -75.5 -180.501s-111.5 -74.5 -183.5 -74.5h-970
c-71.333 0 -132.333 24.833 -183 74.5s-76 109.834 -76 180.501v980c0 70.667 25.333 130.834 76 180.501s111.667 74.5 183 74.5z" />
    <glyph glyph-name="uni1F171" unicode="B&#x20de;&#x25a0;" 
d="M619 353l342.999 -0.000976562c82 0 148.667 19.5 200 58.5s77 91.167 77 156.5c0 52 -15.667 94.333 -47 127s-72.666 53 -123.999 61v2c40 10 71.667 29.5 95 58.5s35 64.833 35 107.5c0 58.667 -21.167 104.834 -63.5 138.501s-99.833 50.5 -172.5 50.5h-343v-760z
M788.999 984.999h131c34 0 60.667 -8 80 -24s29 -37.667 29 -65c0 -62.667 -48 -94 -144 -94h-96v183zM788.999 686.999l140 -0.000976562c42 0 74.5 -9.16699 97.5 -27.5s34.5 -43.833 34.5 -76.5c0 -33.333 -13.167 -58.166 -39.5 -74.499s-67.833 -24.5 -124.5 -24.5
h-108v203zM414.999 1467h970c72 0 133.167 -24.833 183.5 -74.5s75.5 -109.834 75.5 -180.501v-980c0 -70.667 -25.167 -130.834 -75.5 -180.501s-111.5 -74.5 -183.5 -74.5h-970c-71.333 0 -132.333 24.833 -183 74.5s-76 109.834 -76 180.501v980
c0 70.667 25.333 130.834 76 180.501s111.667 74.5 183 74.5z" />
    <glyph glyph-name="uni1F172" unicode="C&#x20de;&#x25a0;" 
d="M1061 607c-5.33301 -32 -23 -58.833 -53 -80.5s-65.333 -32.5 -106 -32.5c-55.333 0 -99.666 21.333 -132.999 64s-50 100 -50 172s16.667 129.667 50 173s77.666 65 132.999 65c42 0 78.333 -11.833 109 -35.5s48.667 -52.167 54 -85.5h173
c-8.66699 83.333 -43.667 150.333 -105 201s-139 76 -233 76c-107.333 0 -194.333 -36 -261 -108s-100 -167.333 -100 -286c0 -118 33.333 -212.833 100 -284.5s153.667 -107.5 261 -107.5c92 0 168.5 24.667 229.5 74s96.5 114.333 106.5 195h-175zM415 1467h970
c72 0 133.167 -24.833 183.5 -74.5s75.5 -109.834 75.5 -180.501v-980c0 -70.667 -25.167 -130.834 -75.5 -180.501s-111.5 -74.5 -183.5 -74.5h-970c-71.333 0 -132.333 24.833 -183 74.5s-76 109.834 -76 180.501v980c0 70.667 25.333 130.834 76 180.501
s111.667 74.5 183 74.5z" />
    <glyph glyph-name="uni1F173" unicode="D&#x20de;&#x25a0;" 
d="M594 1113v-759.999h299c118 0 206.833 32.667 266.5 98s89.5 159.666 89.5 282.999c0 122.667 -29.833 216.5 -89.5 281.5s-148.5 97.5 -266.5 97.5h-299zM767 971.001l102 0.000976562c68.667 0 119.334 -19.5 152.001 -58.5s49 -99.167 49 -180.5
c0 -80.667 -16.333 -140.334 -49 -179.001s-83.334 -58 -152.001 -58h-102v476zM415 1467h970c72 0 133.167 -24.833 183.5 -74.5s75.5 -109.834 75.5 -180.501v-980c0 -70.667 -25.167 -130.834 -75.5 -180.501s-111.5 -74.5 -183.5 -74.5h-970
c-71.333 0 -132.333 24.833 -183 74.5s-76 109.834 -76 180.501v980c0 70.667 25.333 130.834 76 180.501s111.667 74.5 183 74.5z" />
    <glyph glyph-name="uni1F174" unicode="E&#x20de;&#x25a0;" 
d="M1166 493h-352v178h330v130h-330v172h352v140h-525v-760h525v140zM415 1467h970c72 0 133.167 -24.833 183.5 -74.5s75.5 -109.834 75.5 -180.501v-980c0 -70.667 -25.167 -130.834 -75.5 -180.501s-111.5 -74.5 -183.5 -74.5h-970c-71.333 0 -132.333 24.833 -183 74.5
s-76 109.834 -76 180.501v980c0 70.667 25.333 130.834 76 180.501s111.667 74.5 183 74.5z" />
    <glyph glyph-name="uni1F175" unicode="F&#x20de;&#x25a0;" 
d="M845 353v289h312v144h-312v183h341v144h-517v-760h176zM415 1467h970c72 0 133.167 -24.833 183.5 -74.5s75.5 -109.834 75.5 -180.501v-980c0 -70.667 -25.167 -130.834 -75.5 -180.501s-111.5 -74.5 -183.5 -74.5h-970c-71.333 0 -132.333 24.833 -183 74.5
s-76 109.834 -76 180.501v980c0 70.667 25.333 130.834 76 180.501s111.667 74.5 183 74.5z" />
    <glyph glyph-name="uni1F176" unicode="G&#x20de;&#x25a0;" 
d="M1063 618c0 -36 -14.001 -66 -42.001 -90s-67 -36 -117 -36c-56 0 -100.833 21.333 -134.5 64s-50.5 100.667 -50.5 174s16.667 131.166 50 173.499s78.333 63.5 135 63.5c43.333 0 79.333 -9 108 -27s45 -40.667 49 -68h176c-10.667 74.667 -46.667 135.167 -108 181.5
s-137 69.5 -227 69.5c-108 0 -195.667 -36.167 -263 -108.5s-101 -167.166 -101 -284.499c0 -116.667 33.333 -211 100 -283s154.334 -108 263.001 -108c100 0 180.167 28.833 240.5 86.5s90.5 129.5 90.5 215.5v133h-320v-135h151v-21zM414.999 1467h970
c72 0 133.167 -24.833 183.5 -74.5s75.5 -109.834 75.5 -180.501v-980c0 -70.667 -25.167 -130.834 -75.5 -180.501s-111.5 -74.5 -183.5 -74.5h-970c-71.333 0 -132.333 24.833 -183 74.5s-76 109.834 -76 180.501v980c0 70.667 25.333 130.834 76 180.501
s111.667 74.5 183 74.5z" />
    <glyph glyph-name="uni1F177" unicode="H&#x20de;&#x25a0;" 
d="M1227 353v760h-171v-299h-311v299h-172v-760h172v310h311v-310h171zM415 1467h970c72 0 133.167 -24.833 183.5 -74.5s75.5 -109.834 75.5 -180.501v-980c0 -70.667 -25.167 -130.834 -75.5 -180.501s-111.5 -74.5 -183.5 -74.5h-970
c-71.333 0 -132.333 24.833 -183 74.5s-76 109.834 -76 180.501v980c0 70.667 25.333 130.834 76 180.501s111.667 74.5 183 74.5z" />
    <glyph glyph-name="uni1F178" unicode="I&#x20de;&#x25a0;" 
d="M991 353v760h-182v-760h182zM415 1467h970c72 0 133.167 -24.833 183.5 -74.5s75.5 -109.834 75.5 -180.501v-980c0 -70.667 -25.167 -130.834 -75.5 -180.501s-111.5 -74.5 -183.5 -74.5h-970c-71.333 0 -132.333 24.833 -183 74.5s-76 109.834 -76 180.501v980
c0 70.667 25.333 130.834 76 180.501s111.667 74.5 183 74.5z" />
    <glyph glyph-name="uni1F179" unicode="J&#x20de;&#x25a0;" 
d="M594 591c0 -76 23.833 -137.667 71.5 -185s113.834 -71 198.501 -71c86 0 153.167 23.5 201.5 70.5s72.5 113.5 72.5 199.5v503h-178v-504c0 -71.333 -33 -107 -99 -107c-28 0 -50.333 8.5 -67 25.5s-25.334 39.833 -26.001 68.5h-174zM415 1467h970
c72 0 133.167 -24.833 183.5 -74.5s75.5 -109.834 75.5 -180.501v-980c0 -70.667 -25.167 -130.834 -75.5 -180.501s-111.5 -74.5 -183.5 -74.5h-970c-71.333 0 -132.333 24.833 -183 74.5s-76 109.834 -76 180.501v980c0 70.667 25.333 130.834 76 180.501
s111.667 74.5 183 74.5z" />
    <glyph glyph-name="uni1F17A" unicode="K&#x20de;&#x25a0;" 
d="M1253 1113h-196l-282 -321h-4v321h-170v-760h170v228l74 80l208 -308h209c-24.667 33.333 -71.5 102.833 -140.5 208.5s-117.833 177.5 -146.5 215.5zM415 1467h970c72 0 133.167 -24.833 183.5 -74.5s75.5 -109.834 75.5 -180.501v-980
c0 -70.667 -25.167 -130.834 -75.5 -180.501s-111.5 -74.5 -183.5 -74.5h-970c-71.333 0 -132.333 24.833 -183 74.5s-76 109.834 -76 180.501v980c0 70.667 25.333 130.834 76 180.501s111.667 74.5 183 74.5z" />
    <glyph glyph-name="uni1F17B" unicode="L&#x20de;&#x25a0;" 
d="M1202 512h-331v606h-179v-760h510v154zM415 1467h970c72 0 133.167 -24.833 183.5 -74.5s75.5 -109.834 75.5 -180.501v-980c0 -70.667 -25.167 -130.834 -75.5 -180.501s-111.5 -74.5 -183.5 -74.5h-970c-71.333 0 -132.333 24.833 -183 74.5s-76 109.834 -76 180.501
v980c0 70.667 25.333 130.834 76 180.501s111.667 74.5 183 74.5z" />
    <glyph glyph-name="uni1F17C" unicode="M&#x20de;&#x25a0;" 
d="M662 353v493h5l179 -459h107l180 456h4v-490h150v760h-172l-215 -539h-1l-212 539h-174v-760h149zM415 1467h970c72 0 133.167 -24.833 183.5 -74.5s75.5 -109.834 75.5 -180.501v-980c0 -70.667 -25.167 -130.834 -75.5 -180.501s-111.5 -74.5 -183.5 -74.5h-970
c-71.333 0 -132.333 24.833 -183 74.5s-76 109.834 -76 180.501v980c0 70.667 25.333 130.834 76 180.501s111.667 74.5 183 74.5z" />
    <glyph glyph-name="uni1F17D" unicode="N&#x20de;&#x25a0;" 
d="M740 353v475h3l338 -475h141v760h-162v-474h-3l-339 474h-140v-760h162zM415 1467h970c72 0 133.167 -24.833 183.5 -74.5s75.5 -109.834 75.5 -180.501v-980c0 -70.667 -25.167 -130.834 -75.5 -180.501s-111.5 -74.5 -183.5 -74.5h-970
c-71.333 0 -132.333 24.833 -183 74.5s-76 109.834 -76 180.501v980c0 70.667 25.333 130.834 76 180.501s111.667 74.5 183 74.5z" />
    <glyph glyph-name="uni1F17E" unicode="O&#x20de;&#x25a0;" 
d="M900 489c-54 0 -98.5 21.167 -133.5 63.5s-52.5 101.5 -52.5 177.5c0 76.667 17.5 136.167 52.5 178.5s79.5 63.5 133.5 63.5s98.5 -21.167 133.5 -63.5s52.5 -101.833 52.5 -178.5c0 -76 -17.5 -135.167 -52.5 -177.5s-79.5 -63.5 -133.5 -63.5zM900 338
c104.667 0 191.334 35 260.001 105s103 165.667 103 287c0 122 -34.333 218.167 -103 288.5s-155.334 105.5 -260.001 105.5s-191.334 -35.167 -260.001 -105.5s-103 -166.5 -103 -288.5c0 -121.333 34.333 -217 103 -287s155.334 -105 260.001 -105zM415 1467h970
c72 0 133.167 -24.833 183.5 -74.5s75.5 -109.834 75.5 -180.501v-980c0 -70.667 -25.167 -130.834 -75.5 -180.501s-111.5 -74.5 -183.5 -74.5h-970c-71.333 0 -132.333 24.833 -183 74.5s-76 109.834 -76 180.501v980c0 70.667 25.333 130.834 76 180.501
s111.667 74.5 183 74.5z" />
    <glyph glyph-name="uni1F17F" unicode="P&#x20de;&#x25a0;" 
d="M964 1113h-325v-760h178v238h145c84.667 0 152 23.833 202 71.5s75 110.167 75 187.5c0 78 -24.833 141.333 -74.5 190s-116.5 73 -200.5 73zM1062 850c0 -38.667 -11 -68.667 -33 -90s-53.333 -32 -94 -32h-123v244h123c40 0 71.167 -10.667 93.5 -32
s33.5 -51.333 33.5 -90zM415 1467h970c72 0 133.167 -24.833 183.5 -74.5s75.5 -109.834 75.5 -180.501v-980c0 -70.667 -25.167 -130.834 -75.5 -180.501s-111.5 -74.5 -183.5 -74.5h-970c-71.333 0 -132.333 24.833 -183 74.5s-76 109.834 -76 180.501v980
c0 70.667 25.333 130.834 76 180.501s111.667 74.5 183 74.5z" />
    <glyph glyph-name="uni1F180" unicode="Q&#x20de;&#x25a0;" 
d="M1244 284l-103.999 141c82 72 123 173.667 123 305c0 122 -34.333 218.167 -103 288.5s-155.334 105.5 -260.001 105.5s-191.334 -35.167 -260.001 -105.5s-103 -166.5 -103 -288.5c0 -121.333 34.333 -217 103 -287s155.334 -105 260.001 -105c40 0 79 5.66699 117 17
l49 -71h178zM900.001 489c-54 0 -98.5 21.168 -133.5 63.501s-52.5 101.5 -52.5 177.5c0 76.667 17.5 136.167 52.5 178.5s79.5 63.5 133.5 63.5s98.5 -21.167 133.5 -63.5s52.5 -101.833 52.5 -178.5c0 -66.667 -16.333 -121.334 -49 -164.001l-38 47h-142l81 -119
c-13.333 -3.33301 -26 -5 -38 -5zM415.001 1467h970c72 0 133.167 -24.833 183.5 -74.5s75.5 -109.834 75.5 -180.501v-980c0 -70.667 -25.167 -130.834 -75.5 -180.501s-111.5 -74.5 -183.5 -74.5h-970c-71.333 0 -132.333 24.833 -183 74.5s-76 109.834 -76 180.501v980
c0 70.667 25.333 130.834 76 180.501s111.667 74.5 183 74.5z" />
    <glyph glyph-name="uni1F181" unicode="R&#x20de;&#x25a0;" 
d="M777 755v219h133c40 0 71.5 -9.66699 94.5 -29s34.5 -46.666 34.5 -81.999c0 -34.667 -11.5 -61.334 -34.5 -80.001s-55.167 -28 -96.5 -28h-131zM932 1113h-323.001v-760h170v274h128l134 -274h195l-161 304c42.667 16 77 42.5 103 79.5s39 81.5 39 133.5
c0 76 -25.167 135.5 -75.5 178.5s-120.166 64.5 -209.499 64.5zM414.999 1467h970c72 0 133.167 -24.833 183.5 -74.5s75.5 -109.834 75.5 -180.501v-980c0 -70.667 -25.167 -130.834 -75.5 -180.501s-111.5 -74.5 -183.5 -74.5h-970c-71.333 0 -132.333 24.833 -183 74.5
s-76 109.834 -76 180.501v980c0 70.667 25.333 130.834 76 180.501s111.667 74.5 183 74.5z" />
    <glyph glyph-name="uni1F182" unicode="S&#x20de;&#x25a0;" 
d="M584 576c2.66699 -72.667 32.001 -130.168 88.001 -172.501s131 -63.5 225 -63.5c98 0 175.833 21.833 233.5 65.5s86.5 102.834 86.5 177.501c0 59.333 -17.667 106.833 -53 142.5s-90 60.834 -164 75.501l-119 24c-70 12.667 -105 39 -105 79c0 26.667 11.5 48 34.5 64
s53.833 24 92.5 24c38 0 69.167 -8.66699 93.5 -26s38.166 -40.333 41.499 -69h166c-2.66699 69.333 -31.5 125.166 -86.5 167.499s-126.167 63.5 -213.5 63.5c-90 0 -162.833 -21.667 -218.5 -65s-83.5 -100.333 -83.5 -171c0 -56 17.667 -102.333 53 -139
s86.333 -61.667 153 -75l117 -24c43.333 -9.33301 74 -20.333 92 -33s27 -30 27 -52c0 -28 -12.5 -50.167 -37.5 -66.5s-58.833 -24.5 -101.5 -24.5s-77.667 9 -105 27s-42.333 41.667 -45 71h-171zM415.001 1467h970c72 0 133.167 -24.833 183.5 -74.5
s75.5 -109.834 75.5 -180.501v-980c0 -70.667 -25.167 -130.834 -75.5 -180.501s-111.5 -74.5 -183.5 -74.5h-970c-71.333 0 -132.333 24.833 -183 74.5s-76 109.834 -76 180.501v980c0 70.667 25.333 130.834 76 180.501s111.667 74.5 183 74.5z" />
    <glyph glyph-name="uni1F183" unicode="T&#x20de;&#x25a0;" 
d="M989 347v609h223v151h-623v-151h222v-609h178zM415 1467h970c72 0 133.167 -24.833 183.5 -74.5s75.5 -109.834 75.5 -180.501v-980c0 -70.667 -25.167 -130.834 -75.5 -180.501s-111.5 -74.5 -183.5 -74.5h-970c-71.333 0 -132.333 24.833 -183 74.5
s-76 109.834 -76 180.501v980c0 70.667 25.333 130.834 76 180.501s111.667 74.5 183 74.5z" />
    <glyph glyph-name="uni1F184" unicode="U&#x20de;&#x25a0;" 
d="M900 486c-46.667 0 -83 12.5 -109 37.5s-39 59.167 -39 102.5v481h-177v-501c0 -82 29.5 -147.833 88.5 -197.5s137.833 -74.5 236.5 -74.5c98 0 176.667 25 236 75s89 115.667 89 197v501h-176v-481c0 -43.333 -13.333 -77.5 -40 -102.5s-63 -37.5 -109 -37.5zM415 1467
h970c72 0 133.167 -24.833 183.5 -74.5s75.5 -109.834 75.5 -180.501v-980c0 -70.667 -25.167 -130.834 -75.5 -180.501s-111.5 -74.5 -183.5 -74.5h-970c-71.333 0 -132.333 24.833 -183 74.5s-76 109.834 -76 180.501v980c0 70.667 25.333 130.834 76 180.501
s111.667 74.5 183 74.5z" />
    <glyph glyph-name="uni1F185" unicode="V&#x20de;&#x25a0;" 
d="M1007 345l261 760h-200l-165 -577h-6l-165 577h-200l261 -760h214zM415 1467h970c72 0 133.167 -24.833 183.5 -74.5s75.5 -109.834 75.5 -180.501v-980c0 -70.667 -25.167 -130.834 -75.5 -180.501s-111.5 -74.5 -183.5 -74.5h-970c-71.333 0 -132.333 24.833 -183 74.5
s-76 109.834 -76 180.501v980c0 70.667 25.333 130.834 76 180.501s111.667 74.5 183 74.5z" />
    <glyph glyph-name="uni1F186" unicode="W&#x20de;&#x25a0;" 
d="M898 850h4l137 -503h157l202 760h-180l-109 -536h-5l-132 536h-144l-132 -536h-5l-108 536h-181l203 -760h156zM415 1467h970c72 0 133.167 -24.833 183.5 -74.5s75.5 -109.834 75.5 -180.501v-980c0 -70.667 -25.167 -130.834 -75.5 -180.501s-111.5 -74.5 -183.5 -74.5
h-970c-71.333 0 -132.333 24.833 -183 74.5s-76 109.834 -76 180.501v980c0 70.667 25.333 130.834 76 180.501s111.667 74.5 183 74.5z" />
    <glyph glyph-name="uni1F187" unicode="X&#x20de;&#x25a0;" 
d="M1257 1113h-195l-153 -262h-6l-156 262h-205l245 -378l-247 -382h195l157 259h6l158 -259h198l-247 379zM415 1467h970c72 0 133.167 -24.833 183.5 -74.5s75.5 -109.834 75.5 -180.501v-980c0 -70.667 -25.167 -130.834 -75.5 -180.501s-111.5 -74.5 -183.5 -74.5h-970
c-71.333 0 -132.333 24.833 -183 74.5s-76 109.834 -76 180.501v980c0 70.667 25.333 130.834 76 180.501s111.667 74.5 183 74.5z" />
    <glyph glyph-name="uni1F188" unicode="Y&#x20de;&#x25a0;" 
d="M810 347h181v277l267 483h-197l-159 -311h-4l-159 311h-196l267 -483v-277zM415 1467h970c72 0 133.167 -24.833 183.5 -74.5s75.5 -109.834 75.5 -180.501v-980c0 -70.667 -25.167 -130.834 -75.5 -180.501s-111.5 -74.5 -183.5 -74.5h-970
c-71.333 0 -132.333 24.833 -183 74.5s-76 109.834 -76 180.501v980c0 70.667 25.333 130.834 76 180.501s111.667 74.5 183 74.5z" />
    <glyph glyph-name="uni1F189" unicode="Z&#x20de;&#x25a0;" 
d="M604 353h594v149h-377v2l366 491v118h-575v-149h359v-2l-367 -491v-118zM415 1467h970c72 0 133.167 -24.833 183.5 -74.5s75.5 -109.834 75.5 -180.501v-980c0 -70.667 -25.167 -130.834 -75.5 -180.501s-111.5 -74.5 -183.5 -74.5h-970
c-71.333 0 -132.333 24.833 -183 74.5s-76 109.834 -76 180.501v980c0 70.667 25.333 130.834 76 180.501s111.667 74.5 183 74.5z" />
    <glyph glyph-name="plus.uc.whitecircle" unicode="&#x2b;&#x20dd;" 
d="M966 664v-214h-132v214h-209v132h209v208h132v-208h209v-132h-209zM900 99c85.333 0 166.5 16.333 243.5 49s142.833 76.834 197.5 132.501s98 121.667 130 198s48 156.833 48 241.5s-16 165.167 -48 241.5s-75.333 142.333 -130 198s-120.5 99.834 -197.5 132.501
s-158.167 49 -243.5 49s-166.5 -16.333 -243.5 -49s-142.833 -76.834 -197.5 -132.501s-98 -121.667 -130 -198s-48 -156.833 -48 -241.5s16 -165.167 48 -241.5s75.333 -142.333 130 -198s120.5 -99.834 197.5 -132.501s158.167 -49 243.5 -49zM900 -52
c-104.667 0 -204.667 20.333 -300 61s-177.5 95.5 -246.5 164.5s-123.833 151.167 -164.5 246.5s-61 195.666 -61 300.999c0 104.667 20.333 204.834 61 300.501s95.5 178 164.5 247s151.167 123.833 246.5 164.5s195.333 61 300 61s204.667 -20.333 300 -61
s177.5 -95.5 246.5 -164.5s123.833 -151.333 164.5 -247s61 -195.834 61 -300.501c0 -105.333 -20.333 -205.666 -61 -300.999s-95.5 -177.5 -164.5 -246.5s-151.167 -123.833 -246.5 -164.5s-195.333 -61 -300 -61z" />
    <glyph glyph-name="minus.uc.whitecircle" unicode="&#x2212;&#x20dd;" 
d="M1159 659h-518v136h518v-136zM900 99c85.333 0 166.5 16.333 243.5 49s142.833 76.834 197.5 132.501s98 121.667 130 198s48 156.833 48 241.5s-16 165.167 -48 241.5s-75.333 142.333 -130 198s-120.5 99.834 -197.5 132.501s-158.167 49 -243.5 49
s-166.5 -16.333 -243.5 -49s-142.833 -76.834 -197.5 -132.501s-98 -121.667 -130 -198s-48 -156.833 -48 -241.5s16 -165.167 48 -241.5s75.333 -142.333 130 -198s120.5 -99.834 197.5 -132.501s158.167 -49 243.5 -49zM900 -52c-104.667 0 -204.667 20.333 -300 61
s-177.5 95.5 -246.5 164.5s-123.833 151.167 -164.5 246.5s-61 195.666 -61 300.999c0 104.667 20.333 204.834 61 300.501s95.5 178 164.5 247s151.167 123.833 246.5 164.5s195.333 61 300 61s204.667 -20.333 300 -61s177.5 -95.5 246.5 -164.5
s123.833 -151.333 164.5 -247s61 -195.834 61 -300.501c0 -105.333 -20.333 -205.666 -61 -300.999s-95.5 -177.5 -164.5 -246.5s-151.167 -123.833 -246.5 -164.5s-195.333 -61 -300 -61z" />
    <glyph glyph-name="multiply.uc.whitecircle" unicode="&#xd7;&#x20dd;" 
d="M900 823l161 156l94 -96l-161 -156l161 -156l-94 -95l-161 156l-162 -156l-93 95l162 156l-162 156l93 96zM900 99c85.333 0 166.5 16.333 243.5 49s142.833 76.834 197.5 132.501s98 121.667 130 198s48 156.833 48 241.5s-16 165.167 -48 241.5
s-75.333 142.333 -130 198s-120.5 99.834 -197.5 132.501s-158.167 49 -243.5 49s-166.5 -16.333 -243.5 -49s-142.833 -76.834 -197.5 -132.501s-98 -121.667 -130 -198s-48 -156.833 -48 -241.5s16 -165.167 48 -241.5s75.333 -142.333 130 -198
s120.5 -99.834 197.5 -132.501s158.167 -49 243.5 -49zM900 -52c-104.667 0 -204.667 20.333 -300 61s-177.5 95.5 -246.5 164.5s-123.833 151.167 -164.5 246.5s-61 195.666 -61 300.999c0 104.667 20.333 204.834 61 300.501s95.5 178 164.5 247
s151.167 123.833 246.5 164.5s195.333 61 300 61s204.667 -20.333 300 -61s177.5 -95.5 246.5 -164.5s123.833 -151.333 164.5 -247s61 -195.834 61 -300.501c0 -105.333 -20.333 -205.666 -61 -300.999s-95.5 -177.5 -164.5 -246.5s-151.167 -123.833 -246.5 -164.5
s-195.333 -61 -300 -61z" />
    <glyph glyph-name="divide.uc.whitecircle" unicode="&#xf7;&#x20dd;" 
d="M1159 671h-518v112h518v-112zM814 941c0 24 8.16699 43.5 24.5 58.5s36.5 22.5 60.5 22.5c25.333 0 46.333 -7.5 63 -22.5s25 -34.5 25 -58.5c0 -22.667 -8.33301 -41.667 -25 -57s-37.667 -23 -63 -23c-24 0 -44.167 7.66699 -60.5 23s-24.5 34.333 -24.5 57zM814 516
c0 24 8.16699 43.667 24.5 59s36.833 23 61.5 23c25.333 0 46.166 -7.66699 62.499 -23s24.5 -35 24.5 -59c0 -22.667 -8.16699 -41.5 -24.5 -56.5s-37.166 -22.5 -62.499 -22.5c-24.667 0 -45.167 7.5 -61.5 22.5s-24.5 33.833 -24.5 56.5zM900 99
c85.333 0 166.5 16.333 243.5 49s142.833 76.834 197.5 132.501s98 121.667 130 198s48 156.833 48 241.5s-16 165.167 -48 241.5s-75.333 142.333 -130 198s-120.5 99.834 -197.5 132.501s-158.167 49 -243.5 49s-166.5 -16.333 -243.5 -49
s-142.833 -76.834 -197.5 -132.501s-98 -121.667 -130 -198s-48 -156.833 -48 -241.5s16 -165.167 48 -241.5s75.333 -142.333 130 -198s120.5 -99.834 197.5 -132.501s158.167 -49 243.5 -49zM900 -52c-104.667 0 -204.667 20.333 -300 61s-177.5 95.5 -246.5 164.5
s-123.833 151.167 -164.5 246.5s-61 195.666 -61 300.999c0 104.667 20.333 204.834 61 300.501s95.5 178 164.5 247s151.167 123.833 246.5 164.5s195.333 61 300 61s204.667 -20.333 300 -61s177.5 -95.5 246.5 -164.5s123.833 -151.333 164.5 -247
s61 -195.834 61 -300.501c0 -105.333 -20.333 -205.666 -61 -300.999s-95.5 -177.5 -164.5 -246.5s-151.167 -123.833 -246.5 -164.5s-195.333 -61 -300 -61z" />
    <glyph glyph-name="equal.uc.whitecircle" unicode="&#x3d;&#x20dd;" 
d="M1152 544h-504v121h504v-121zM1152 788h-504v122h504v-122zM900 99c85.333 0 166.5 16.333 243.5 49s142.833 76.834 197.5 132.501s98 121.667 130 198s48 156.833 48 241.5s-16 165.167 -48 241.5s-75.333 142.333 -130 198s-120.5 99.834 -197.5 132.501
s-158.167 49 -243.5 49s-166.5 -16.333 -243.5 -49s-142.833 -76.834 -197.5 -132.501s-98 -121.667 -130 -198s-48 -156.833 -48 -241.5s16 -165.167 48 -241.5s75.333 -142.333 130 -198s120.5 -99.834 197.5 -132.501s158.167 -49 243.5 -49zM900 -52
c-104.667 0 -204.667 20.333 -300 61s-177.5 95.5 -246.5 164.5s-123.833 151.167 -164.5 246.5s-61 195.666 -61 300.999c0 104.667 20.333 204.834 61 300.501s95.5 178 164.5 247s151.167 123.833 246.5 164.5s195.333 61 300 61s204.667 -20.333 300 -61
s177.5 -95.5 246.5 -164.5s123.833 -151.333 164.5 -247s61 -195.834 61 -300.501c0 -105.333 -20.333 -205.666 -61 -300.999s-95.5 -177.5 -164.5 -246.5s-151.167 -123.833 -246.5 -164.5s-195.333 -61 -300 -61z" />
    <glyph glyph-name="greater.uc.whitecircle" unicode="&#x3e;&#x20dd;" 
d="M1174 770v-96l-497 -249v151l318 146v6l-318 148v154zM900 99c85.333 0 166.5 16.333 243.5 49s142.833 76.834 197.5 132.501s98 121.667 130 198s48 156.833 48 241.5s-16 165.167 -48 241.5s-75.333 142.333 -130 198s-120.5 99.834 -197.5 132.501
s-158.167 49 -243.5 49s-166.5 -16.333 -243.5 -49s-142.833 -76.834 -197.5 -132.501s-98 -121.667 -130 -198s-48 -156.833 -48 -241.5s16 -165.167 48 -241.5s75.333 -142.333 130 -198s120.5 -99.834 197.5 -132.501s158.167 -49 243.5 -49zM900 -52
c-104.667 0 -204.667 20.333 -300 61s-177.5 95.5 -246.5 164.5s-123.833 151.167 -164.5 246.5s-61 195.666 -61 300.999c0 104.667 20.333 204.834 61 300.501s95.5 178 164.5 247s151.167 123.833 246.5 164.5s195.333 61 300 61s204.667 -20.333 300 -61
s177.5 -95.5 246.5 -164.5s123.833 -151.333 164.5 -247s61 -195.834 61 -300.501c0 -105.333 -20.333 -205.666 -61 -300.999s-95.5 -177.5 -164.5 -246.5s-151.167 -123.833 -246.5 -164.5s-195.333 -61 -300 -61z" />
    <glyph glyph-name="less.uc.whitecircle" unicode="&#x3c;&#x20dd;" 
d="M627 674v96l496 260v-154l-319 -148v-6l319 -146v-151zM900 99c85.333 0 166.5 16.333 243.5 49s142.833 76.834 197.5 132.501s98 121.667 130 198s48 156.833 48 241.5s-16 165.167 -48 241.5s-75.333 142.333 -130 198s-120.5 99.834 -197.5 132.501
s-158.167 49 -243.5 49s-166.5 -16.333 -243.5 -49s-142.833 -76.834 -197.5 -132.501s-98 -121.667 -130 -198s-48 -156.833 -48 -241.5s16 -165.167 48 -241.5s75.333 -142.333 130 -198s120.5 -99.834 197.5 -132.501s158.167 -49 243.5 -49zM900 -52
c-104.667 0 -204.667 20.333 -300 61s-177.5 95.5 -246.5 164.5s-123.833 151.167 -164.5 246.5s-61 195.666 -61 300.999c0 104.667 20.333 204.834 61 300.501s95.5 178 164.5 247s151.167 123.833 246.5 164.5s195.333 61 300 61s204.667 -20.333 300 -61
s177.5 -95.5 246.5 -164.5s123.833 -151.333 164.5 -247s61 -195.834 61 -300.501c0 -105.333 -20.333 -205.666 -61 -300.999s-95.5 -177.5 -164.5 -246.5s-151.167 -123.833 -246.5 -164.5s-195.333 -61 -300 -61z" />
    <glyph glyph-name="numbersign.whitecircle" unicode="&#x30;&#x20dd;" 
d="M1190 791h-108l-26 -119h104l-22 -109h-104l-38 -181h-113l39 181h-118l-38 -181h-112l38 181h-102l21 109h102l27 119h-100l21 109h101l36 174h112l-36 -174h116l37 174h112l-36 -174h107zM846 798l-31 -140h135l30 140h-134zM900 99c85.333 0 166.5 16.333 243.5 49
s142.833 76.834 197.5 132.501s98 121.667 130 198s48 156.833 48 241.5s-16 165.167 -48 241.5s-75.333 142.333 -130 198s-120.5 99.834 -197.5 132.501s-158.167 49 -243.5 49s-166.5 -16.333 -243.5 -49s-142.833 -76.834 -197.5 -132.501s-98 -121.667 -130 -198
s-48 -156.833 -48 -241.5s16 -165.167 48 -241.5s75.333 -142.333 130 -198s120.5 -99.834 197.5 -132.501s158.167 -49 243.5 -49zM900 -52c-104.667 0 -204.667 20.333 -300 61s-177.5 95.5 -246.5 164.5s-123.833 151.167 -164.5 246.5s-61 195.666 -61 300.999
c0 104.667 20.333 204.834 61 300.501s95.5 178 164.5 247s151.167 123.833 246.5 164.5s195.333 61 300 61s204.667 -20.333 300 -61s177.5 -95.5 246.5 -164.5s123.833 -151.333 164.5 -247s61 -195.834 61 -300.501c0 -105.333 -20.333 -205.666 -61 -300.999
s-95.5 -177.5 -164.5 -246.5s-151.167 -123.833 -246.5 -164.5s-195.333 -61 -300 -61z" />
    <glyph glyph-name="uni25BC.whitecircle" unicode="&#x25bc;&#x20dd;" 
d="M1219 946l-319 -555l-318 555h637zM900 99c85.333 0 166.5 16.333 243.5 49s142.833 76.834 197.5 132.501s98 121.667 130 198s48 156.833 48 241.5s-16 165.167 -48 241.5s-75.333 142.333 -130 198s-120.5 99.834 -197.5 132.501s-158.167 49 -243.5 49
s-166.5 -16.333 -243.5 -49s-142.833 -76.834 -197.5 -132.501s-98 -121.667 -130 -198s-48 -156.833 -48 -241.5s16 -165.167 48 -241.5s75.333 -142.333 130 -198s120.5 -99.834 197.5 -132.501s158.167 -49 243.5 -49zM900 -52c-104.667 0 -204.667 20.333 -300 61
s-177.5 95.5 -246.5 164.5s-123.833 151.167 -164.5 246.5s-61 195.666 -61 300.999c0 104.667 20.333 204.834 61 300.501s95.5 178 164.5 247s151.167 123.833 246.5 164.5s195.333 61 300 61s204.667 -20.333 300 -61s177.5 -95.5 246.5 -164.5
s123.833 -151.333 164.5 -247s61 -195.834 61 -300.501c0 -105.333 -20.333 -205.666 -61 -300.999s-95.5 -177.5 -164.5 -246.5s-151.167 -123.833 -246.5 -164.5s-195.333 -61 -300 -61z" />
    <glyph glyph-name="uni25B2.whitecircle" unicode="&#x25b2;&#x20dd;" 
d="M1219 509h-637l318 555zM900 99c85.333 0 166.5 16.333 243.5 49s142.833 76.834 197.5 132.501s98 121.667 130 198s48 156.833 48 241.5s-16 165.167 -48 241.5s-75.333 142.333 -130 198s-120.5 99.834 -197.5 132.501s-158.167 49 -243.5 49
s-166.5 -16.333 -243.5 -49s-142.833 -76.834 -197.5 -132.501s-98 -121.667 -130 -198s-48 -156.833 -48 -241.5s16 -165.167 48 -241.5s75.333 -142.333 130 -198s120.5 -99.834 197.5 -132.501s158.167 -49 243.5 -49zM900 -52c-104.667 0 -204.667 20.333 -300 61
s-177.5 95.5 -246.5 164.5s-123.833 151.167 -164.5 246.5s-61 195.666 -61 300.999c0 104.667 20.333 204.834 61 300.501s95.5 178 164.5 247s151.167 123.833 246.5 164.5s195.333 61 300 61s204.667 -20.333 300 -61s177.5 -95.5 246.5 -164.5
s123.833 -151.333 164.5 -247s61 -195.834 61 -300.501c0 -105.333 -20.333 -205.666 -61 -300.999s-95.5 -177.5 -164.5 -246.5s-151.167 -123.833 -246.5 -164.5s-195.333 -61 -300 -61z" />
    <glyph glyph-name="uni25C0.whitecircle" unicode="&#x25c0;&#x20dd;" 
d="M1117 408l-552 321l552 319v-640zM900 99c85.333 0 166.5 16.333 243.5 49s142.833 76.834 197.5 132.501s98 121.667 130 198s48 156.833 48 241.5s-16 165.167 -48 241.5s-75.333 142.333 -130 198s-120.5 99.834 -197.5 132.501s-158.167 49 -243.5 49
s-166.5 -16.333 -243.5 -49s-142.833 -76.834 -197.5 -132.501s-98 -121.667 -130 -198s-48 -156.833 -48 -241.5s16 -165.167 48 -241.5s75.333 -142.333 130 -198s120.5 -99.834 197.5 -132.501s158.167 -49 243.5 -49zM900 -52c-104.667 0 -204.667 20.333 -300 61
s-177.5 95.5 -246.5 164.5s-123.833 151.167 -164.5 246.5s-61 195.666 -61 300.999c0 104.667 20.333 204.834 61 300.501s95.5 178 164.5 247s151.167 123.833 246.5 164.5s195.333 61 300 61s204.667 -20.333 300 -61s177.5 -95.5 246.5 -164.5
s123.833 -151.333 164.5 -247s61 -195.834 61 -300.501c0 -105.333 -20.333 -205.666 -61 -300.999s-95.5 -177.5 -164.5 -246.5s-151.167 -123.833 -246.5 -164.5s-195.333 -61 -300 -61z" />
    <glyph glyph-name="uni25B6.whitecircle" unicode="&#x25b6;&#x20dd;" 
d="M683 408v640l552 -319zM900 99c85.333 0 166.5 16.333 243.5 49s142.833 76.834 197.5 132.501s98 121.667 130 198s48 156.833 48 241.5s-16 165.167 -48 241.5s-75.333 142.333 -130 198s-120.5 99.834 -197.5 132.501s-158.167 49 -243.5 49
s-166.5 -16.333 -243.5 -49s-142.833 -76.834 -197.5 -132.501s-98 -121.667 -130 -198s-48 -156.833 -48 -241.5s16 -165.167 48 -241.5s75.333 -142.333 130 -198s120.5 -99.834 197.5 -132.501s158.167 -49 243.5 -49zM900 -52c-104.667 0 -204.667 20.333 -300 61
s-177.5 95.5 -246.5 164.5s-123.833 151.167 -164.5 246.5s-61 195.666 -61 300.999c0 104.667 20.333 204.834 61 300.501s95.5 178 164.5 247s151.167 123.833 246.5 164.5s195.333 61 300 61s204.667 -20.333 300 -61s177.5 -95.5 246.5 -164.5
s123.833 -151.333 164.5 -247s61 -195.834 61 -300.501c0 -105.333 -20.333 -205.666 -61 -300.999s-95.5 -177.5 -164.5 -246.5s-151.167 -123.833 -246.5 -164.5s-195.333 -61 -300 -61z" />
    <glyph glyph-name="question.whitecircle" unicode="&#x3f;&#x20dd;" 
d="M790 457c0 25.333 9 45.5 27 60.5s41.667 22.5 71 22.5c30 0 54 -7.5 72 -22.5s27 -35.167 27 -60.5c0 -24 -9 -43.667 -27 -59s-42 -23 -72 -23c-28.667 0 -52.167 7.66699 -70.5 23s-27.5 35 -27.5 59zM815 606c0 0.666992 -0.168945 5.83203 -0.501953 15.499
s-0.5 15.167 -0.5 16.5c-2.66699 60.667 28.333 112.667 93 156c30.667 21.333 52 38.5 64 51.5s18 29.5 18 49.5c0 24.667 -8.83301 43.5 -26.5 56.5s-39.5 19.5 -65.5 19.5c-30 0 -53.5 -8.5 -70.5 -25.5s-25.5 -38.5 -25.5 -64.5h-139
c-1.33301 70 21.334 122.333 68.001 157s105.334 52 176.001 52c68 0 124.333 -16.667 169 -50s67 -79.666 67 -138.999c0 -38 -8.83301 -69 -26.5 -93s-43.167 -47.333 -76.5 -70c-37.333 -26 -61.5 -45.333 -72.5 -58s-16.5 -30.667 -16.5 -54v-20h-135zM899.998 98.998
c85.333 0 166.5 16.333 243.5 49s142.833 76.834 197.5 132.501s98 121.667 130 198s48 156.833 48 241.5s-16 165.167 -48 241.5s-75.333 142.333 -130 198s-120.5 99.834 -197.5 132.501s-158.167 49 -243.5 49s-166.5 -16.333 -243.5 -49
s-142.833 -76.834 -197.5 -132.501s-98 -121.667 -130 -198s-48 -156.833 -48 -241.5s16 -165.167 48 -241.5s75.333 -142.333 130 -198s120.5 -99.834 197.5 -132.501s158.167 -49 243.5 -49zM899.998 -52.002c-104.667 0 -204.667 20.333 -300 61
s-177.5 95.5 -246.5 164.5s-123.833 151.167 -164.5 246.5s-61 195.666 -61 300.999c0 104.667 20.333 204.834 61 300.501s95.5 178 164.5 247s151.167 123.833 246.5 164.5s195.333 61 300 61s204.667 -20.333 300 -61s177.5 -95.5 246.5 -164.5
s123.833 -151.333 164.5 -247s61 -195.834 61 -300.501c0 -105.333 -20.333 -205.666 -61 -300.999s-95.5 -177.5 -164.5 -246.5s-151.167 -123.833 -246.5 -164.5s-195.333 -61 -300 -61z" />
    <glyph glyph-name="exclam.whitecircle" unicode="&#x21;&#x20dd;" 
d="M803 457c0 25.333 9 45.666 27 60.999s41.667 23 71 23c30 0 53.833 -7.66699 71.5 -23s26.5 -35.666 26.5 -60.999c0 -24 -8.83301 -43.667 -26.5 -59s-41.5 -23 -71.5 -23c-29.333 0 -53 7.66699 -71 23s-27 35 -27 59zM818 1078h167l-18 -455h-131zM900 99
c85.333 0 166.5 16.333 243.5 49s142.833 76.834 197.5 132.501s98 121.667 130 198s48 156.833 48 241.5s-16 165.167 -48 241.5s-75.333 142.333 -130 198s-120.5 99.834 -197.5 132.501s-158.167 49 -243.5 49s-166.5 -16.333 -243.5 -49
s-142.833 -76.834 -197.5 -132.501s-98 -121.667 -130 -198s-48 -156.833 -48 -241.5s16 -165.167 48 -241.5s75.333 -142.333 130 -198s120.5 -99.834 197.5 -132.501s158.167 -49 243.5 -49zM900 -52c-104.667 0 -204.667 20.333 -300 61s-177.5 95.5 -246.5 164.5
s-123.833 151.167 -164.5 246.5s-61 195.666 -61 300.999c0 104.667 20.333 204.834 61 300.501s95.5 178 164.5 247s151.167 123.833 246.5 164.5s195.333 61 300 61s204.667 -20.333 300 -61s177.5 -95.5 246.5 -164.5s123.833 -151.333 164.5 -247
s61 -195.834 61 -300.501c0 -105.333 -20.333 -205.666 -61 -300.999s-95.5 -177.5 -164.5 -246.5s-151.167 -123.833 -246.5 -164.5s-195.333 -61 -300 -61z" />
    <glyph glyph-name="uni2717.whitecircle" unicode="&#x2717;&#x20dd;" 
d="M904 824l247 242l95 -99l-246 -243l246 -243l-95 -101l-247 242l-247 -242l-96 100l246 244l-247 243l95 100zM900 99c85.333 0 166.5 16.333 243.5 49s142.833 76.834 197.5 132.501s98 121.667 130 198s48 156.833 48 241.5s-16 165.167 -48 241.5
s-75.333 142.333 -130 198s-120.5 99.834 -197.5 132.501s-158.167 49 -243.5 49s-166.5 -16.333 -243.5 -49s-142.833 -76.834 -197.5 -132.501s-98 -121.667 -130 -198s-48 -156.833 -48 -241.5s16 -165.167 48 -241.5s75.333 -142.333 130 -198
s120.5 -99.834 197.5 -132.501s158.167 -49 243.5 -49zM900 -52c-104.667 0 -204.667 20.333 -300 61s-177.5 95.5 -246.5 164.5s-123.833 151.167 -164.5 246.5s-61 195.666 -61 300.999c0 104.667 20.333 204.834 61 300.501s95.5 178 164.5 247
s151.167 123.833 246.5 164.5s195.333 61 300 61s204.667 -20.333 300 -61s177.5 -95.5 246.5 -164.5s123.833 -151.333 164.5 -247s61 -195.834 61 -300.501c0 -105.333 -20.333 -205.666 -61 -300.999s-95.5 -177.5 -164.5 -246.5s-151.167 -123.833 -246.5 -164.5
s-195.333 -61 -300 -61z" />
    <glyph glyph-name="uni2713.whitecircle" unicode="&#x2713;&#x20dd;" 
d="M1325 931l-545 -539l-296 295l101 104l195 -193l445 440zM900 99c85.333 0 166.5 16.333 243.5 49s142.833 76.834 197.5 132.501s98 121.667 130 198s48 156.833 48 241.5s-16 165.167 -48 241.5s-75.333 142.333 -130 198s-120.5 99.834 -197.5 132.501
s-158.167 49 -243.5 49s-166.5 -16.333 -243.5 -49s-142.833 -76.834 -197.5 -132.501s-98 -121.667 -130 -198s-48 -156.833 -48 -241.5s16 -165.167 48 -241.5s75.333 -142.333 130 -198s120.5 -99.834 197.5 -132.501s158.167 -49 243.5 -49zM900 -52
c-104.667 0 -204.667 20.333 -300 61s-177.5 95.5 -246.5 164.5s-123.833 151.167 -164.5 246.5s-61 195.666 -61 300.999c0 104.667 20.333 204.834 61 300.501s95.5 178 164.5 247s151.167 123.833 246.5 164.5s195.333 61 300 61s204.667 -20.333 300 -61
s177.5 -95.5 246.5 -164.5s123.833 -151.333 164.5 -247s61 -195.834 61 -300.501c0 -105.333 -20.333 -205.666 -61 -300.999s-95.5 -177.5 -164.5 -246.5s-151.167 -123.833 -246.5 -164.5s-195.333 -61 -300 -61z" />
    <glyph glyph-name="zero.whitesquare" unicode="&#x30;&#x20de;" 
d="M900 505c40 0 71.5 19.333 94.5 58s34.5 94.667 34.5 168c0 74 -11.5 130.333 -34.5 169s-54.5 58 -94.5 58s-71.5 -19.333 -94.5 -58s-34.5 -95 -34.5 -169c0 -73.333 11.5 -129.333 34.5 -168s54.5 -58 94.5 -58zM899 373c-82.667 0 -149.334 31.833 -200.001 95.5
s-76 151.167 -76 262.5s25.333 198.833 76 262.5s117.334 95.5 200.001 95.5c83.333 0 150.5 -31.833 201.5 -95.5s76.5 -151.167 76.5 -262.5s-25.5 -198.833 -76.5 -262.5s-118.167 -95.5 -201.5 -95.5zM415 1467h970c72 0 133.167 -24.833 183.5 -74.5
s75.5 -109.834 75.5 -180.501v-980c0 -70.667 -25.167 -130.834 -75.5 -180.501s-111.5 -74.5 -183.5 -74.5h-970c-71.333 0 -132.333 24.833 -183 74.5s-76 109.834 -76 180.501v980c0 70.667 25.333 130.834 76 180.501s111.667 74.5 183 74.5zM1497 1193
c0 36.667 -13.667 68.167 -41 94.5s-60.333 39.5 -99 39.5h-914c-38 0 -70.833 -13.167 -98.5 -39.5s-41.5 -57.833 -41.5 -94.5v-942c0 -36.667 13.833 -68.167 41.5 -94.5s60.5 -39.5 98.5 -39.5h914c38 0 70.833 13.167 98.5 39.5s41.5 57.833 41.5 94.5v942z" />
    <glyph glyph-name="one.whitesquare" unicode="&#x31;&#x20de;" 
d="M1020 385h-155v545h-8l-163 -111v143l171 116h155v-693zM415 1467h970c72 0 133.167 -24.833 183.5 -74.5s75.5 -109.834 75.5 -180.501v-980c0 -70.667 -25.167 -130.834 -75.5 -180.501s-111.5 -74.5 -183.5 -74.5h-970c-71.333 0 -132.333 24.833 -183 74.5
s-76 109.834 -76 180.501v980c0 70.667 25.333 130.834 76 180.501s111.667 74.5 183 74.5zM1497 1193c0 36.667 -13.667 68.167 -41 94.5s-60.333 39.5 -99 39.5h-914c-38 0 -70.833 -13.167 -98.5 -39.5s-41.5 -57.833 -41.5 -94.5v-942
c0 -36.667 13.833 -68.167 41.5 -94.5s60.5 -39.5 98.5 -39.5h914c38 0 70.833 13.167 98.5 39.5s41.5 57.833 41.5 94.5v942z" />
    <glyph glyph-name="two.whitesquare" unicode="&#x32;&#x20de;" 
d="M794 864l-146.001 -0.00292969v4c0 62.667 22.167 115.334 66.5 158.001s106.5 64 186.5 64c74.667 0 134.834 -18.667 180.501 -56s68.5 -85 68.5 -143c0 -27.333 -6.5 -54.166 -19.5 -80.499s-27 -48.333 -42 -66s-37.167 -41.167 -66.5 -70.5l-154 -154v-7h295v-128
h-508v99l262 260c18 18.667 31.5 33.167 40.5 43.5s17.833 24 26.5 41s13 33.5 13 49.5c0 25.333 -9.5 46 -28.5 62s-42.833 24 -71.5 24c-32 0 -57.167 -9.16699 -75.5 -27.5s-27.5 -41.166 -27.5 -68.499v-4zM414.999 1467h970c72 0 133.167 -24.833 183.5 -74.5
s75.5 -109.834 75.5 -180.501v-980c0 -70.667 -25.167 -130.834 -75.5 -180.501s-111.5 -74.5 -183.5 -74.5h-970c-71.333 0 -132.333 24.833 -183 74.5s-76 109.834 -76 180.501v980c0 70.667 25.333 130.834 76 180.501s111.667 74.5 183 74.5zM1497 1193
c0 36.667 -13.667 68.167 -41 94.5s-60.333 39.5 -99 39.5h-914c-38 0 -70.833 -13.167 -98.5 -39.5s-41.5 -57.833 -41.5 -94.5v-942c0 -36.667 13.833 -68.167 41.5 -94.5s60.5 -39.5 98.5 -39.5h914c38 0 70.833 13.167 98.5 39.5s41.5 57.833 41.5 94.5v942z" />
    <glyph glyph-name="three.whitesquare" unicode="&#x33;&#x20de;" 
d="M822 680l-0.000976562 119.996h74c30.667 0 56 8.33301 76 25s30 37.667 30 63c-0.666992 24.667 -10.834 44.667 -30.501 60s-44.834 23 -75.501 23c-31.333 0 -57 -8 -77 -24s-30.667 -35.667 -32 -59h-144c2 60.667 25.333 109.334 70 146.001
s106.667 55.334 186 56.001c76 0 137 -16.833 183 -50.5s69.667 -77.5 71 -131.5c0.666992 -41.333 -13.333 -76.166 -42 -104.499s-59.334 -45.166 -92.001 -50.499v-8c39.333 -4 74.833 -20.333 106.5 -49s47.834 -67.334 48.501 -116.001
c0.666992 -63.333 -25.166 -113.666 -77.499 -150.999s-119.166 -56 -200.499 -56c-80 0 -143.833 19 -191.5 57s-72.167 86.667 -73.5 146h142c2.66699 -24 15.334 -43.667 38.001 -59s51 -23 85 -23c37.333 0 67.5 8.66699 90.5 26s34.5 40 34.5 68
c-0.666992 27.333 -12 49.5 -34 66.5s-51.333 25.5 -88 25.5h-77zM414.999 1467h970c72 0 133.167 -24.833 183.5 -74.5s75.5 -109.834 75.5 -180.501v-980c0 -70.667 -25.167 -130.834 -75.5 -180.501s-111.5 -74.5 -183.5 -74.5h-970c-71.333 0 -132.333 24.833 -183 74.5
s-76 109.834 -76 180.501v980c0 70.667 25.333 130.834 76 180.501s111.667 74.5 183 74.5zM1497 1193c0 36.667 -13.667 68.167 -41 94.5s-60.333 39.5 -99 39.5h-914c-38 0 -70.833 -13.167 -98.5 -39.5s-41.5 -57.833 -41.5 -94.5v-942
c0 -36.667 13.833 -68.167 41.5 -94.5s60.5 -39.5 98.5 -39.5h914c38 0 70.833 13.167 98.5 39.5s41.5 57.833 41.5 94.5v942z" />
    <glyph glyph-name="four.whitesquare" unicode="&#x34;&#x20de;" 
d="M873 1078h218v-445h93v-124h-93v-124h-139v124h-349v126l65.5 113.5l63.5 104.5l72.5 116zM742 633h210v329h-9c-100.667 -158 -167.667 -266.667 -201 -326v-3zM415 1467h970c72 0 133.167 -24.833 183.5 -74.5s75.5 -109.834 75.5 -180.501v-980
c0 -70.667 -25.167 -130.834 -75.5 -180.501s-111.5 -74.5 -183.5 -74.5h-970c-71.333 0 -132.333 24.833 -183 74.5s-76 109.834 -76 180.501v980c0 70.667 25.333 130.834 76 180.501s111.667 74.5 183 74.5zM1497 1193c0 36.667 -13.667 68.167 -41 94.5
s-60.333 39.5 -99 39.5h-914c-38 0 -70.833 -13.167 -98.5 -39.5s-41.5 -57.833 -41.5 -94.5v-942c0 -36.667 13.833 -68.167 41.5 -94.5s60.5 -39.5 98.5 -39.5h914c38 0 70.833 13.167 98.5 39.5s41.5 57.833 41.5 94.5v942z" />
    <glyph glyph-name="five.whitesquare" unicode="&#x35;&#x20de;" 
d="M644 575h144.001c5.33301 -24.667 19.333 -43.667 42 -57s49 -20 79 -20c33.333 0 62.166 11 86.499 33s36.5 51.333 36.5 88c0 33.333 -12 60.5 -36 81.5s-53.333 31.5 -88 31.5c-27.333 0 -50.666 -5.83301 -69.999 -17.5s-33.333 -25.5 -42 -41.5h-137l30 408h451
v-122h-329l-16 -174h8c9.33301 16 27.166 30.333 53.499 43s57.833 19 94.5 19c66 0 121 -20.167 165 -60.5s66 -94.833 66 -163.5c0 -74.667 -25.333 -134.667 -76 -180s-117.667 -68 -201 -68c-75.333 0 -137 18.833 -185 56.5s-73.333 85.5 -76 143.5zM415.001 1467h970
c72 0 133.167 -24.833 183.5 -74.5s75.5 -109.834 75.5 -180.501v-980c0 -70.667 -25.167 -130.834 -75.5 -180.501s-111.5 -74.5 -183.5 -74.5h-970c-71.333 0 -132.333 24.833 -183 74.5s-76 109.834 -76 180.501v980c0 70.667 25.333 130.834 76 180.501
s111.667 74.5 183 74.5zM1497 1193c0 36.667 -13.667 68.167 -41 94.5s-60.333 39.5 -99 39.5h-914c-38 0 -70.833 -13.167 -98.5 -39.5s-41.5 -57.833 -41.5 -94.5v-942c0 -36.667 13.833 -68.167 41.5 -94.5s60.5 -39.5 98.5 -39.5h914c38 0 70.833 13.167 98.5 39.5
s41.5 57.833 41.5 94.5v942z" />
    <glyph glyph-name="six.whitesquare" unicode="&#x36;&#x20de;" 
d="M1170 623c0 -74.667 -24.8311 -135 -74.498 -181s-114.5 -69 -194.5 -69c-80.667 0 -146.334 23.5 -197.001 70.5s-76 108.5 -76 184.5c0 82 32.333 168.333 97 259c6 10 27.833 39.667 65.5 89l78.5 102h179c-112.667 -138.667 -175.334 -217.667 -188.001 -237l-25 -38
l9 -2c28 26 66.333 39 115 39c60.667 0 111 -20.5 151 -61.5s60 -92.833 60 -155.5zM780.002 615c0 -32.667 11.333 -60 34 -82s51.334 -33 86.001 -33s63.334 11 86.001 33s34 49.333 34 82c0 33.333 -11.333 61 -34 83s-51.334 33 -86.001 33s-63.334 -11 -86.001 -33
s-34 -49.667 -34 -83zM415.002 1467h970c72 0 133.167 -24.833 183.5 -74.5s75.5 -109.834 75.5 -180.501v-980c0 -70.667 -25.167 -130.834 -75.5 -180.501s-111.5 -74.5 -183.5 -74.5h-970c-71.333 0 -132.333 24.833 -183 74.5s-76 109.834 -76 180.501v980
c0 70.667 25.333 130.834 76 180.501s111.667 74.5 183 74.5zM1497 1193c0 36.667 -13.667 68.167 -41 94.5s-60.333 39.5 -99 39.5h-914c-38 0 -70.833 -13.167 -98.5 -39.5s-41.5 -57.833 -41.5 -94.5v-942c0 -36.667 13.833 -68.167 41.5 -94.5s60.5 -39.5 98.5 -39.5
h914c38 0 70.833 13.167 98.5 39.5s41.5 57.833 41.5 94.5v942z" />
    <glyph glyph-name="seven.whitesquare" unicode="&#x37;&#x20de;" 
d="M652 1078h509v-130l-288 -563h-164l295 558v7h-352v128zM415 1467h970c72 0 133.167 -24.833 183.5 -74.5s75.5 -109.834 75.5 -180.501v-980c0 -70.667 -25.167 -130.834 -75.5 -180.501s-111.5 -74.5 -183.5 -74.5h-970c-71.333 0 -132.333 24.833 -183 74.5
s-76 109.834 -76 180.501v980c0 70.667 25.333 130.834 76 180.501s111.667 74.5 183 74.5zM1497 1193c0 36.667 -13.667 68.167 -41 94.5s-60.333 39.5 -99 39.5h-914c-38 0 -70.833 -13.167 -98.5 -39.5s-41.5 -57.833 -41.5 -94.5v-942
c0 -36.667 13.833 -68.167 41.5 -94.5s60.5 -39.5 98.5 -39.5h914c38 0 70.833 13.167 98.5 39.5s41.5 57.833 41.5 94.5v942z" />
    <glyph glyph-name="eight.whitesquare" unicode="&#x38;&#x20de;" 
d="M900 484c37.333 0 68.167 9.83203 92.5 29.499s36.5 44.834 36.5 75.501s-12 55.834 -36 75.501s-55 29.5 -93 29.5s-69.167 -10 -93.5 -30s-36.5 -45 -36.5 -75c0 -30.667 12.167 -55.834 36.5 -75.501s55.5 -29.5 93.5 -29.5zM900.001 796.999
c31.333 0 57.166 8.66699 77.499 26s30.5 39.333 30.5 66c0 26 -10.167 47.5 -30.5 64.5s-46.166 25.5 -77.499 25.5s-57.166 -8.5 -77.499 -25.5s-30.5 -38.5 -30.5 -64.5c0 -26.667 10.167 -48.667 30.5 -66s46.166 -26 77.499 -26zM898.001 372.999
c-86 0 -154.833 18.668 -206.5 56.001s-77.5 87 -77.5 149c0 42.667 14 79.5 42 110.5s65 50.833 111 59.5v6c-39.333 12 -69.833 31.167 -91.5 57.5s-32.5 57.833 -32.5 94.5c0 54.667 23.833 99 71.5 133s109.5 51 185.5 51s137.833 -17 185.5 -51s71.5 -78.333 71.5 -133
c0 -36.667 -10.833 -68.334 -32.5 -95.001s-52.167 -45.667 -91.5 -57v-6c46 -8.66699 83 -28.5 111 -59.5s42 -67.833 42 -110.5c0 -62 -26.5 -111.667 -79.5 -149s-122.5 -56 -208.5 -56zM415.001 1467h970c72 0 133.167 -24.833 183.5 -74.5s75.5 -109.834 75.5 -180.501
v-980c0 -70.667 -25.167 -130.834 -75.5 -180.501s-111.5 -74.5 -183.5 -74.5h-970c-71.333 0 -132.333 24.833 -183 74.5s-76 109.834 -76 180.501v980c0 70.667 25.333 130.834 76 180.501s111.667 74.5 183 74.5zM1497 1193c0 36.667 -13.667 68.167 -41 94.5
s-60.333 39.5 -99 39.5h-914c-38 0 -70.833 -13.167 -98.5 -39.5s-41.5 -57.833 -41.5 -94.5v-942c0 -36.667 13.833 -68.167 41.5 -94.5s60.5 -39.5 98.5 -39.5h914c38 0 70.833 13.167 98.5 39.5s41.5 57.833 41.5 94.5v942z" />
    <glyph glyph-name="nine.whitesquare" unicode="&#x39;&#x20de;" 
d="M629 841c0 74 24.834 133.999 74.501 179.999s114.5 69 194.5 69c80.667 0 146.167 -23.5 196.5 -70.5s75.5 -108.5 75.5 -184.5c0 -82 -32.667 -169.333 -98 -262c-5.33301 -9.33301 -27.166 -39.166 -65.499 -89.499s-63.833 -82.833 -76.5 -97.5h-179
c101.333 122 163.666 200 186.999 234c12 17.333 20.667 31 26 41l-9 1c-29.333 -26 -68 -39 -116 -39c-60.667 0 -110.834 20.667 -150.501 62s-59.5 93.333 -59.5 156zM1019 847.999c0 33.333 -11.333 60.833 -34 82.5s-51.334 32.5 -86.001 32.5
s-63.5 -10.833 -86.5 -32.5s-34.5 -49.167 -34.5 -82.5s11.5 -60.833 34.5 -82.5s51.833 -32.5 86.5 -32.5s63.334 10.833 86.001 32.5s34 49.167 34 82.5zM415.001 1467h970c72 0 133.167 -24.833 183.5 -74.5s75.5 -109.834 75.5 -180.501v-980
c0 -70.667 -25.167 -130.834 -75.5 -180.501s-111.5 -74.5 -183.5 -74.5h-970c-71.333 0 -132.333 24.833 -183 74.5s-76 109.834 -76 180.501v980c0 70.667 25.333 130.834 76 180.501s111.667 74.5 183 74.5zM1497 1193c0 36.667 -13.667 68.167 -41 94.5
s-60.333 39.5 -99 39.5h-914c-38 0 -70.833 -13.167 -98.5 -39.5s-41.5 -57.833 -41.5 -94.5v-942c0 -36.667 13.833 -68.167 41.5 -94.5s60.5 -39.5 98.5 -39.5h914c38 0 70.833 13.167 98.5 39.5s41.5 57.833 41.5 94.5v942z" />
    <glyph glyph-name="plus.uc.whitesquare" unicode="&#x2b;&#x20de;" 
d="M966 664v-214h-132v214h-209v132h209v208h132v-208h209v-132h-209zM415 1467h970c72 0 133.167 -24.833 183.5 -74.5s75.5 -109.834 75.5 -180.501v-980c0 -70.667 -25.167 -130.834 -75.5 -180.501s-111.5 -74.5 -183.5 -74.5h-970c-71.333 0 -132.333 24.833 -183 74.5
s-76 109.834 -76 180.501v980c0 70.667 25.333 130.834 76 180.501s111.667 74.5 183 74.5zM1497 1193c0 36.667 -13.667 68.167 -41 94.5s-60.333 39.5 -99 39.5h-914c-38 0 -70.833 -13.167 -98.5 -39.5s-41.5 -57.833 -41.5 -94.5v-942
c0 -36.667 13.833 -68.167 41.5 -94.5s60.5 -39.5 98.5 -39.5h914c38 0 70.833 13.167 98.5 39.5s41.5 57.833 41.5 94.5v942z" />
    <glyph glyph-name="minus.uc.whitesquare" unicode="&#x2212;&#x20de;" 
d="M1159 659h-518v136h518v-136zM415 1467h970c72 0 133.167 -24.833 183.5 -74.5s75.5 -109.834 75.5 -180.501v-980c0 -70.667 -25.167 -130.834 -75.5 -180.501s-111.5 -74.5 -183.5 -74.5h-970c-71.333 0 -132.333 24.833 -183 74.5s-76 109.834 -76 180.501v980
c0 70.667 25.333 130.834 76 180.501s111.667 74.5 183 74.5zM1497 1193c0 36.667 -13.667 68.167 -41 94.5s-60.333 39.5 -99 39.5h-914c-38 0 -70.833 -13.167 -98.5 -39.5s-41.5 -57.833 -41.5 -94.5v-942c0 -36.667 13.833 -68.167 41.5 -94.5s60.5 -39.5 98.5 -39.5
h914c38 0 70.833 13.167 98.5 39.5s41.5 57.833 41.5 94.5v942z" />
    <glyph glyph-name="multiply.uc.whitesquare" unicode="&#xd7;&#x20de;" 
d="M900 823l162 156l93 -95l-162 -156l162 -156l-93 -96l-162 156l-162 -156l-93 96l161 156l-161 156l93 95zM415 1467h970c72 0 133.167 -24.833 183.5 -74.5s75.5 -109.834 75.5 -180.501v-980c0 -70.667 -25.167 -130.834 -75.5 -180.501s-111.5 -74.5 -183.5 -74.5
h-970c-71.333 0 -132.333 24.833 -183 74.5s-76 109.834 -76 180.501v980c0 70.667 25.333 130.834 76 180.501s111.667 74.5 183 74.5zM1497 1193c0 36.667 -13.667 68.167 -41 94.5s-60.333 39.5 -99 39.5h-914c-38 0 -70.833 -13.167 -98.5 -39.5
s-41.5 -57.833 -41.5 -94.5v-942c0 -36.667 13.833 -68.167 41.5 -94.5s60.5 -39.5 98.5 -39.5h914c38 0 70.833 13.167 98.5 39.5s41.5 57.833 41.5 94.5v942z" />
    <glyph glyph-name="divide.uc.whitesquare" unicode="&#xf7;&#x20de;" 
d="M1159 671h-518v112h518v-112zM814 941c0 24 8.16699 43.5 24.5 58.5s36.5 22.5 60.5 22.5c25.333 0 46.333 -7.5 63 -22.5s25 -34.5 25 -58.5c0 -22.667 -8.33301 -41.667 -25 -57s-37.667 -23 -63 -23c-24 0 -44.167 7.66699 -60.5 23s-24.5 34.333 -24.5 57zM814 516
c0 24 8.16699 43.667 24.5 59s36.833 23 61.5 23c25.333 0 46.166 -7.66699 62.499 -23s24.5 -35 24.5 -59c0 -22.667 -8.16699 -41.5 -24.5 -56.5s-37.166 -22.5 -62.499 -22.5c-24.667 0 -45.167 7.5 -61.5 22.5s-24.5 33.833 -24.5 56.5zM415 1467h970
c72 0 133.167 -24.833 183.5 -74.5s75.5 -109.834 75.5 -180.501v-980c0 -70.667 -25.167 -130.834 -75.5 -180.501s-111.5 -74.5 -183.5 -74.5h-970c-71.333 0 -132.333 24.833 -183 74.5s-76 109.834 -76 180.501v980c0 70.667 25.333 130.834 76 180.501
s111.667 74.5 183 74.5zM1497 1193c0 36.667 -13.667 68.167 -41 94.5s-60.333 39.5 -99 39.5h-914c-38 0 -70.833 -13.167 -98.5 -39.5s-41.5 -57.833 -41.5 -94.5v-942c0 -36.667 13.833 -68.167 41.5 -94.5s60.5 -39.5 98.5 -39.5h914c38 0 70.833 13.167 98.5 39.5
s41.5 57.833 41.5 94.5v942z" />
    <glyph glyph-name="equal.uc.whitesquare" unicode="&#x3d;&#x20de;" 
d="M1152 544h-504v121h504v-121zM1152 788h-504v122h504v-122zM415 1467h970c72 0 133.167 -24.833 183.5 -74.5s75.5 -109.834 75.5 -180.501v-980c0 -70.667 -25.167 -130.834 -75.5 -180.501s-111.5 -74.5 -183.5 -74.5h-970c-71.333 0 -132.333 24.833 -183 74.5
s-76 109.834 -76 180.501v980c0 70.667 25.333 130.834 76 180.501s111.667 74.5 183 74.5zM1497 1193c0 36.667 -13.667 68.167 -41 94.5s-60.333 39.5 -99 39.5h-914c-38 0 -70.833 -13.167 -98.5 -39.5s-41.5 -57.833 -41.5 -94.5v-942
c0 -36.667 13.833 -68.167 41.5 -94.5s60.5 -39.5 98.5 -39.5h914c38 0 70.833 13.167 98.5 39.5s41.5 57.833 41.5 94.5v942z" />
    <glyph glyph-name="greater.uc.whitesquare" unicode="&#x3e;&#x20de;" 
d="M1174 770v-96l-497 -249v151l318 146v6l-318 148v154zM415 1467h970c72 0 133.167 -24.833 183.5 -74.5s75.5 -109.834 75.5 -180.501v-980c0 -70.667 -25.167 -130.834 -75.5 -180.501s-111.5 -74.5 -183.5 -74.5h-970c-71.333 0 -132.333 24.833 -183 74.5
s-76 109.834 -76 180.501v980c0 70.667 25.333 130.834 76 180.501s111.667 74.5 183 74.5zM1497 1193c0 36.667 -13.667 68.167 -41 94.5s-60.333 39.5 -99 39.5h-914c-38 0 -70.833 -13.167 -98.5 -39.5s-41.5 -57.833 -41.5 -94.5v-942
c0 -36.667 13.833 -68.167 41.5 -94.5s60.5 -39.5 98.5 -39.5h914c38 0 70.833 13.167 98.5 39.5s41.5 57.833 41.5 94.5v942z" />
    <glyph glyph-name="less.uc.whitesquare" unicode="&#x3c;&#x20de;" 
d="M627 674v96l496 260v-154l-319 -148v-6l319 -146v-151zM415 1467h970c72 0 133.167 -24.833 183.5 -74.5s75.5 -109.834 75.5 -180.501v-980c0 -70.667 -25.167 -130.834 -75.5 -180.501s-111.5 -74.5 -183.5 -74.5h-970c-71.333 0 -132.333 24.833 -183 74.5
s-76 109.834 -76 180.501v980c0 70.667 25.333 130.834 76 180.501s111.667 74.5 183 74.5zM1497 1193c0 36.667 -13.667 68.167 -41 94.5s-60.333 39.5 -99 39.5h-914c-38 0 -70.833 -13.167 -98.5 -39.5s-41.5 -57.833 -41.5 -94.5v-942
c0 -36.667 13.833 -68.167 41.5 -94.5s60.5 -39.5 98.5 -39.5h914c38 0 70.833 13.167 98.5 39.5s41.5 57.833 41.5 94.5v942z" />
    <glyph glyph-name="numbersign.whitesquare" unicode="&#x23;&#x20de;" 
d="M1190 791h-108l-26 -119h104l-22 -109h-104l-38 -181h-113l39 181h-118l-38 -181h-112l38 181h-102l21 109h102l27 119h-100l21 109h101l36 174h112l-36 -174h116l37 174h112l-36 -174h107zM846 798l-31 -140h135l30 140h-134zM415 1467h970
c72 0 133.167 -24.833 183.5 -74.5s75.5 -109.834 75.5 -180.501v-980c0 -70.667 -25.167 -130.834 -75.5 -180.501s-111.5 -74.5 -183.5 -74.5h-970c-71.333 0 -132.333 24.833 -183 74.5s-76 109.834 -76 180.501v980c0 70.667 25.333 130.834 76 180.501
s111.667 74.5 183 74.5zM1497 1193c0 36.667 -13.667 68.167 -41 94.5s-60.333 39.5 -99 39.5h-914c-38 0 -70.833 -13.167 -98.5 -39.5s-41.5 -57.833 -41.5 -94.5v-942c0 -36.667 13.833 -68.167 41.5 -94.5s60.5 -39.5 98.5 -39.5h914c38 0 70.833 13.167 98.5 39.5
s41.5 57.833 41.5 94.5v942z" />
    <glyph glyph-name="uni25BC.whitesquare" unicode="&#x25bc;&#x20de;" 
d="M1220 946l-319 -555l-319 555h638zM415 1467h970c72 0 133.167 -24.833 183.5 -74.5s75.5 -109.834 75.5 -180.501v-980c0 -70.667 -25.167 -130.834 -75.5 -180.501s-111.5 -74.5 -183.5 -74.5h-970c-71.333 0 -132.333 24.833 -183 74.5s-76 109.834 -76 180.501v980
c0 70.667 25.333 130.834 76 180.501s111.667 74.5 183 74.5zM1497 1193c0 36.667 -13.667 68.167 -41 94.5s-60.333 39.5 -99 39.5h-914c-38 0 -70.833 -13.167 -98.5 -39.5s-41.5 -57.833 -41.5 -94.5v-942c0 -36.667 13.833 -68.167 41.5 -94.5s60.5 -39.5 98.5 -39.5
h914c38 0 70.833 13.167 98.5 39.5s41.5 57.833 41.5 94.5v942z" />
    <glyph glyph-name="uni25B2.whitesquare" unicode="&#x25b2;&#x20de;" 
d="M1219 509h-637l318 555zM415 1467h970c72 0 133.167 -24.833 183.5 -74.5s75.5 -109.834 75.5 -180.501v-980c0 -70.667 -25.167 -130.834 -75.5 -180.501s-111.5 -74.5 -183.5 -74.5h-970c-71.333 0 -132.333 24.833 -183 74.5s-76 109.834 -76 180.501v980
c0 70.667 25.333 130.834 76 180.501s111.667 74.5 183 74.5zM1497 1193c0 36.667 -13.667 68.167 -41 94.5s-60.333 39.5 -99 39.5h-914c-38 0 -70.833 -13.167 -98.5 -39.5s-41.5 -57.833 -41.5 -94.5v-942c0 -36.667 13.833 -68.167 41.5 -94.5s60.5 -39.5 98.5 -39.5
h914c38 0 70.833 13.167 98.5 39.5s41.5 57.833 41.5 94.5v942z" />
    <glyph glyph-name="uni25C0.whitesquare" unicode="&#x25c0;&#x20de;" 
d="M1117 408l-552 321l552 319v-640zM415 1467h970c72 0 133.167 -24.833 183.5 -74.5s75.5 -109.834 75.5 -180.501v-980c0 -70.667 -25.167 -130.834 -75.5 -180.501s-111.5 -74.5 -183.5 -74.5h-970c-71.333 0 -132.333 24.833 -183 74.5s-76 109.834 -76 180.501v980
c0 70.667 25.333 130.834 76 180.501s111.667 74.5 183 74.5zM1497 1193c0 36.667 -13.667 68.167 -41 94.5s-60.333 39.5 -99 39.5h-914c-38 0 -70.833 -13.167 -98.5 -39.5s-41.5 -57.833 -41.5 -94.5v-942c0 -36.667 13.833 -68.167 41.5 -94.5s60.5 -39.5 98.5 -39.5
h914c38 0 70.833 13.167 98.5 39.5s41.5 57.833 41.5 94.5v942z" />
    <glyph glyph-name="uni25B6.whitesquare" unicode="&#x25b6;&#x20de;" 
d="M683 408v640l552 -319zM415 1467h970c72 0 133.167 -24.833 183.5 -74.5s75.5 -109.834 75.5 -180.501v-980c0 -70.667 -25.167 -130.834 -75.5 -180.501s-111.5 -74.5 -183.5 -74.5h-970c-71.333 0 -132.333 24.833 -183 74.5s-76 109.834 -76 180.501v980
c0 70.667 25.333 130.834 76 180.501s111.667 74.5 183 74.5zM1497 1193c0 36.667 -13.667 68.167 -41 94.5s-60.333 39.5 -99 39.5h-914c-38 0 -70.833 -13.167 -98.5 -39.5s-41.5 -57.833 -41.5 -94.5v-942c0 -36.667 13.833 -68.167 41.5 -94.5s60.5 -39.5 98.5 -39.5
h914c38 0 70.833 13.167 98.5 39.5s41.5 57.833 41.5 94.5v942z" />
    <glyph glyph-name="question.whitesquare" unicode="&#x3f;&#x20de;" 
d="M790 457c0 25.333 9 45.5 27 60.5s41.667 22.5 71 22.5c30 0 54 -7.5 72 -22.5s27 -35.167 27 -60.5c0 -24 -9 -43.667 -27 -59s-42 -23 -72 -23c-28.667 0 -52.167 7.66699 -70.5 23s-27.5 35 -27.5 59zM662 881c-1.33301 70 21.332 122.331 67.999 156.998
s105.334 52 176.001 52c68 0 124.333 -16.667 169 -50s67 -79.666 67 -138.999c0 -38 -8.83301 -69 -26.5 -93s-43.167 -47.333 -76.5 -70c-37.333 -26 -61.5 -45.333 -72.5 -58s-16.5 -30.667 -16.5 -54v-20h-135c0 0.666992 -0.166992 5.83398 -0.5 15.501
s-0.5 15.167 -0.5 16.5c-2.66699 60.667 28.333 112.667 93 156c30.667 21.333 52 38.5 64 51.5s18 29.5 18 49.5c0 24.667 -8.83301 43.5 -26.5 56.5s-39.5 19.5 -65.5 19.5c-30 0 -53.5 -8.5 -70.5 -25.5s-25.5 -38.5 -25.5 -64.5h-139zM414.998 1467h970
c72 0 133.167 -24.833 183.5 -74.5s75.5 -109.834 75.5 -180.501v-980c0 -70.667 -25.167 -130.834 -75.5 -180.501s-111.5 -74.5 -183.5 -74.5h-970c-71.333 0 -132.333 24.833 -183 74.5s-76 109.834 -76 180.501v980c0 70.667 25.333 130.834 76 180.501
s111.667 74.5 183 74.5zM1497 1193c0 36.667 -13.667 68.167 -41 94.5s-60.333 39.5 -99 39.5h-914c-38 0 -70.833 -13.167 -98.5 -39.5s-41.5 -57.833 -41.5 -94.5v-942c0 -36.667 13.833 -68.167 41.5 -94.5s60.5 -39.5 98.5 -39.5h914c38 0 70.833 13.167 98.5 39.5
s41.5 57.833 41.5 94.5v942z" />
    <glyph glyph-name="exclam.whitesquare" unicode="&#x21;&#x20de;" 
d="M803 457c0 25.333 9 45.666 27 60.999s41.667 23 71 23c30 0 53.833 -7.66699 71.5 -23s26.5 -35.666 26.5 -60.999c0 -24 -8.83301 -43.667 -26.5 -59s-41.5 -23 -71.5 -23c-29.333 0 -53 7.66699 -71 23s-27 35 -27 59zM818 1078h167l-18 -455h-131zM415 1467h970
c72 0 133.167 -24.833 183.5 -74.5s75.5 -109.834 75.5 -180.501v-980c0 -70.667 -25.167 -130.834 -75.5 -180.501s-111.5 -74.5 -183.5 -74.5h-970c-71.333 0 -132.333 24.833 -183 74.5s-76 109.834 -76 180.501v980c0 70.667 25.333 130.834 76 180.501
s111.667 74.5 183 74.5zM1497 1193c0 36.667 -13.667 68.167 -41 94.5s-60.333 39.5 -99 39.5h-914c-38 0 -70.833 -13.167 -98.5 -39.5s-41.5 -57.833 -41.5 -94.5v-942c0 -36.667 13.833 -68.167 41.5 -94.5s60.5 -39.5 98.5 -39.5h914c38 0 70.833 13.167 98.5 39.5
s41.5 57.833 41.5 94.5v942z" />
    <glyph glyph-name="uni2717.whitesquare" unicode="&#x2717;&#x20de;" 
d="M904 824l247 242l95 -99l-246 -243l246 -243l-95 -101l-247 242l-247 -242l-96 100l246 244l-247 243l95 100zM415 1467h970c72 0 133.167 -24.833 183.5 -74.5s75.5 -109.834 75.5 -180.501v-980c0 -70.667 -25.167 -130.834 -75.5 -180.501s-111.5 -74.5 -183.5 -74.5
h-970c-71.333 0 -132.333 24.833 -183 74.5s-76 109.834 -76 180.501v980c0 70.667 25.333 130.834 76 180.501s111.667 74.5 183 74.5zM1497 1193c0 36.667 -13.667 68.167 -41 94.5s-60.333 39.5 -99 39.5h-914c-38 0 -70.833 -13.167 -98.5 -39.5
s-41.5 -57.833 -41.5 -94.5v-942c0 -36.667 13.833 -68.167 41.5 -94.5s60.5 -39.5 98.5 -39.5h914c38 0 70.833 13.167 98.5 39.5s41.5 57.833 41.5 94.5v942z" />
    <glyph glyph-name="uni2713.whitesquare" unicode="&#x2713;&#x20de;" 
d="M1325 931l-545 -539l-296 295l101 104l195 -193l445 440zM415 1467h970c72 0 133.167 -24.833 183.5 -74.5s75.5 -109.834 75.5 -180.501v-980c0 -70.667 -25.167 -130.834 -75.5 -180.501s-111.5 -74.5 -183.5 -74.5h-970c-71.333 0 -132.333 24.833 -183 74.5
s-76 109.834 -76 180.501v980c0 70.667 25.333 130.834 76 180.501s111.667 74.5 183 74.5zM1497 1193c0 36.667 -13.667 68.167 -41 94.5s-60.333 39.5 -99 39.5h-914c-38 0 -70.833 -13.167 -98.5 -39.5s-41.5 -57.833 -41.5 -94.5v-942
c0 -36.667 13.833 -68.167 41.5 -94.5s60.5 -39.5 98.5 -39.5h914c38 0 70.833 13.167 98.5 39.5s41.5 57.833 41.5 94.5v942z" />
    <glyph glyph-name="plus.uc.blackcircle" unicode="&#x2b;&#x20dd;&#x25cf;" 
d="M976 656h228v150h-228v226h-152v-226h-228v-150h228v-233h152v233zM900 -51c-104.667 0 -204.5 20.5 -299.5 61.5s-177 96 -246 165s-124 151 -165 246s-61.5 194.833 -61.5 299.5s20.5 204.667 61.5 300s96 177.5 165 246.5s151.167 124 246.5 165s195 61.5 299 61.5
s203.667 -20.5 299 -61.5s177.5 -96 246.5 -165s124 -151.167 165 -246.5s61.5 -195.333 61.5 -300s-20.5 -204.5 -61.5 -299.5s-96 -177 -165 -246s-151 -124 -246 -165s-194.833 -61.5 -299.5 -61.5z" />
    <glyph glyph-name="minus.uc.blackcircle" unicode="&#x2212;&#x20dd;&#x25cf;" 
d="M1186 650v155h-572v-155h572zM900 -51c-104.667 0 -204.5 20.5 -299.5 61.5s-177 96 -246 165s-124 151 -165 246s-61.5 194.833 -61.5 299.5s20.5 204.667 61.5 300s96 177.5 165 246.5s151.167 124 246.5 165s195 61.5 299 61.5s203.667 -20.5 299 -61.5
s177.5 -96 246.5 -165s124 -151.167 165 -246.5s61.5 -195.333 61.5 -300s-20.5 -204.5 -61.5 -299.5s-96 -177 -165 -246s-151 -124 -246 -165s-194.833 -61.5 -299.5 -61.5z" />
    <glyph glyph-name="multiply.uc.blackcircle" unicode="&#xd7;&#x20dd;&#x25cf;" 
d="M900 837l-176 169l-107 -109l176 -170l-176 -168l107 -110l176 169l176 -169l107 110l-176 168l176 170l-107 109zM900 -51c-104.667 0 -204.5 20.5 -299.5 61.5s-177 96 -246 165s-124 151 -165 246s-61.5 194.833 -61.5 299.5s20.5 204.667 61.5 300
s96 177.5 165 246.5s151.167 124 246.5 165s195 61.5 299 61.5s203.667 -20.5 299 -61.5s177.5 -96 246.5 -165s124 -151.167 165 -246.5s61.5 -195.333 61.5 -300s-20.5 -204.5 -61.5 -299.5s-96 -177 -165 -246s-151 -124 -246 -165s-194.833 -61.5 -299.5 -61.5z" />
    <glyph glyph-name="divide.uc.blackcircle" unicode="&#xf7;&#x20dd;&#x25cf;" 
d="M802 959c0 -26 9.33301 -47.667 28 -65s41.667 -26 69 -26c28 0 51.667 8.66699 71 26s29 39 29 65c0 26.667 -9.66699 48.667 -29 66s-43 26 -71 26c-27.333 0 -50.333 -8.66699 -69 -26s-28 -39.333 -28 -66zM1186 662v129h-572v-129h572zM802 499
c0 -26 9.5 -47.667 28.5 -65s42.167 -26 69.5 -26c28 0 51.5 8.66699 70.5 26s28.5 39 28.5 65c0 26.667 -9.5 48.667 -28.5 66s-42.5 26 -70.5 26s-51.333 -8.66699 -70 -26s-28 -39.333 -28 -66zM900 -51c-104.667 0 -204.5 20.5 -299.5 61.5s-177 96 -246 165
s-124 151 -165 246s-61.5 194.833 -61.5 299.5s20.5 204.667 61.5 300s96 177.5 165 246.5s151.167 124 246.5 165s195 61.5 299 61.5s203.667 -20.5 299 -61.5s177.5 -96 246.5 -165s124 -151.167 165 -246.5s61.5 -195.333 61.5 -300s-20.5 -204.5 -61.5 -299.5
s-96 -177 -165 -246s-151 -124 -246 -165s-194.833 -61.5 -299.5 -61.5z" />
    <glyph glyph-name="equal.uc.blackcircle" unicode="&#x3d;&#x20dd;&#x25cf;" 
d="M1177 790v140h-554v-140h554zM1177 524v139h-554v-139h554zM900 -51c-104.667 0 -204.5 20.5 -299.5 61.5s-177 96 -246 165s-124 151 -165 246s-61.5 194.833 -61.5 299.5s20.5 204.667 61.5 300s96 177.5 165 246.5s151.167 124 246.5 165s195 61.5 299 61.5
s203.667 -20.5 299 -61.5s177.5 -96 246.5 -165s124 -151.167 165 -246.5s61.5 -195.333 61.5 -300s-20.5 -204.5 -61.5 -299.5s-96 -177 -165 -246s-151 -124 -246 -165s-194.833 -61.5 -299.5 -61.5z" />
    <glyph glyph-name="greater.uc.blackcircle" unicode="&#x3e;&#x20dd;&#x25cf;" 
d="M1195 776l-547 286v-171l346 -166l1 -2l-347 -162v-168l547 275v108zM900 -51c-104.667 0 -204.5 20.5 -299.5 61.5s-177 96 -246 165s-124 151 -165 246s-61.5 194.833 -61.5 299.5s20.5 204.667 61.5 300s96 177.5 165 246.5s151.167 124 246.5 165s195 61.5 299 61.5
s203.667 -20.5 299 -61.5s177.5 -96 246.5 -165s124 -151.167 165 -246.5s61.5 -195.333 61.5 -300s-20.5 -204.5 -61.5 -299.5s-96 -177 -165 -246s-151 -124 -246 -165s-194.833 -61.5 -299.5 -61.5z" />
    <glyph glyph-name="less.uc.blackcircle" unicode="&#x3c;&#x20dd;&#x25cf;" 
d="M599 668l546 -275v168l-345 162v2l345 166v171l-546 -286v-108zM900 -51c-104.667 0 -204.5 20.5 -299.5 61.5s-177 96 -246 165s-124 151 -165 246s-61.5 194.833 -61.5 299.5s20.5 204.667 61.5 300s96 177.5 165 246.5s151.167 124 246.5 165s195 61.5 299 61.5
s203.667 -20.5 299 -61.5s177.5 -96 246.5 -165s124 -151.167 165 -246.5s61.5 -195.333 61.5 -300s-20.5 -204.5 -61.5 -299.5s-96 -177 -165 -246s-151 -124 -246 -165s-194.833 -61.5 -299.5 -61.5z" />
    <glyph glyph-name="numbersign.blackcircle" unicode="&#x23;&#x20dd;&#x25cf;" 
d="M841 804h143l-32 -151h-142zM1217 793l25 127h-117l39 188h-132l-38 -188h-118l40 188h-132l-38 -188h-110l-25 -127h109l-27 -120h-111l-25 -128h110l-41 -196h131l43 196h117l-42 -196h132l41 196h114l25 128h-112c0 1.33301 2 11.5 6 30.5s8.33301 38.5 13 58.5l6 31
h117zM900 -51c-104.667 0 -204.5 20.5 -299.5 61.5s-177 96 -246 165s-124 151 -165 246s-61.5 194.833 -61.5 299.5s20.5 204.667 61.5 300s96 177.5 165 246.5s151.167 124 246.5 165s195 61.5 299 61.5s203.667 -20.5 299 -61.5s177.5 -96 246.5 -165
s124 -151.167 165 -246.5s61.5 -195.333 61.5 -300s-20.5 -204.5 -61.5 -299.5s-96 -177 -165 -246s-151 -124 -246 -165s-194.833 -61.5 -299.5 -61.5z" />
    <glyph glyph-name="uni25BC.blackcircle" unicode="&#x25bc;&#x20dd;&#x25cf;" 
d="M1247 980h-693l346 -600zM900 -51c-104.667 0 -204.5 20.5 -299.5 61.5s-177 96 -246 165s-124 151 -165 246s-61.5 194.833 -61.5 299.5s20.5 204.667 61.5 300s96 177.5 165 246.5s151.167 124 246.5 165s195 61.5 299 61.5s203.667 -20.5 299 -61.5
s177.5 -96 246.5 -165s124 -151.167 165 -246.5s61.5 -195.333 61.5 -300s-20.5 -204.5 -61.5 -299.5s-96 -177 -165 -246s-151 -124 -246 -165s-194.833 -61.5 -299.5 -61.5z" />
    <glyph glyph-name="uni25B2.blackcircle" unicode="&#x25b2;&#x20dd;&#x25cf;" 
d="M1247 491l-347 600l-346 -600h693zM900 -51c-104.667 0 -204.5 20.5 -299.5 61.5s-177 96 -246 165s-124 151 -165 246s-61.5 194.833 -61.5 299.5s20.5 204.667 61.5 300s96 177.5 165 246.5s151.167 124 246.5 165s195 61.5 299 61.5s203.667 -20.5 299 -61.5
s177.5 -96 246.5 -165s124 -151.167 165 -246.5s61.5 -195.333 61.5 -300s-20.5 -204.5 -61.5 -299.5s-96 -177 -165 -246s-151 -124 -246 -165s-194.833 -61.5 -299.5 -61.5z" />
    <glyph glyph-name="uni25C0.blackcircle" unicode="&#x25c0;&#x20dd;&#x25cf;" 
d="M1141 389v693l-601 -346zM900 -51c-104.667 0 -204.5 20.5 -299.5 61.5s-177 96 -246 165s-124 151 -165 246s-61.5 194.833 -61.5 299.5s20.5 204.667 61.5 300s96 177.5 165 246.5s151.167 124 246.5 165s195 61.5 299 61.5s203.667 -20.5 299 -61.5
s177.5 -96 246.5 -165s124 -151.167 165 -246.5s61.5 -195.333 61.5 -300s-20.5 -204.5 -61.5 -299.5s-96 -177 -165 -246s-151 -124 -246 -165s-194.833 -61.5 -299.5 -61.5z" />
    <glyph glyph-name="uni25B6.blackcircle" unicode="&#x25b6;&#x20dd;&#x25cf;" 
d="M659 389l601 347l-601 346v-693zM900 -51c-104.667 0 -204.5 20.5 -299.5 61.5s-177 96 -246 165s-124 151 -165 246s-61.5 194.833 -61.5 299.5s20.5 204.667 61.5 300s96 177.5 165 246.5s151.167 124 246.5 165s195 61.5 299 61.5s203.667 -20.5 299 -61.5
s177.5 -96 246.5 -165s124 -151.167 165 -246.5s61.5 -195.333 61.5 -300s-20.5 -204.5 -61.5 -299.5s-96 -177 -165 -246s-151 -124 -246 -165s-194.833 -61.5 -299.5 -61.5z" />
    <glyph glyph-name="question.blackcircle" unicode="&#x3f;&#x20dd;&#x25cf;" 
d="M772 429c0 -28 10.167 -50.667 30.5 -68s47.166 -26 80.499 -26c34 0 61.167 8.66699 81.5 26s30.5 40 30.5 68c0 28.667 -10.167 51.667 -30.5 69s-47.5 26 -81.5 26c-33.333 0 -60.166 -8.5 -80.499 -25.5s-30.5 -40.167 -30.5 -69.5zM799 591l156.002 0.000976562v26
c0 24.667 5.5 43.5 16.5 56.5s35.167 32.167 72.5 57.5c27.333 19.333 48.166 35.5 62.499 48.5s27.333 31.333 39 55s17.5 50.834 17.5 81.501c0 65.333 -24.833 116.666 -74.5 153.999s-111.5 56 -185.5 56c-78 0 -142.667 -19.167 -194 -57.5s-77 -96.5 -77 -174.5v-4
l161 1c0 29.333 8.83301 53.333 26.5 72s42.167 28 73.5 28c27.333 0 50.333 -6.83301 69 -20.5s28 -33.834 28 -60.501c0 -12.667 -3.16699 -24.834 -9.5 -36.501s-12.333 -20.167 -18 -25.5s-17.167 -14.666 -34.5 -27.999l-35 -27
c-66.667 -48 -98.334 -102.333 -95.001 -163c0 -1.33301 0.166992 -8 0.5 -20s0.5 -18.333 0.5 -19zM902.002 -50.999c-104.667 0 -204.5 20.5 -299.5 61.5s-177 96 -246 165s-124 151 -165 246s-61.5 194.833 -61.5 299.5s20.5 204.667 61.5 300s96 177.5 165 246.5
s151.167 124 246.5 165s195 61.5 299 61.5s203.667 -20.5 299 -61.5s177.5 -96 246.5 -165s124 -151.167 165 -246.5s61.5 -195.333 61.5 -300s-20.5 -204.5 -61.5 -299.5s-96 -177 -165 -246s-151 -124 -246 -165s-194.833 -61.5 -299.5 -61.5z" />
    <glyph glyph-name="exclam.blackcircle" unicode="&#x21;&#x20dd;&#x25cf;" 
d="M805 1112l19 -503h153l20 503h-192zM790 430c0 -28 10.167 -50.667 30.5 -68s47.166 -26 80.499 -26s60.166 8.66699 80.499 26s30.5 40 30.5 68c0 28.667 -10.167 51.5 -30.5 68.5s-47.166 25.5 -80.499 25.5s-60.166 -8.5 -80.499 -25.5s-30.5 -39.833 -30.5 -68.5z
M900 -51c-104.667 0 -204.5 20.5 -299.5 61.5s-177 96 -246 165s-124 151 -165 246s-61.5 194.833 -61.5 299.5s20.5 204.667 61.5 300s96 177.5 165 246.5s151.167 124 246.5 165s195 61.5 299 61.5s203.667 -20.5 299 -61.5s177.5 -96 246.5 -165s124 -151.167 165 -246.5
s61.5 -195.333 61.5 -300s-20.5 -204.5 -61.5 -299.5s-96 -177 -165 -246s-151 -124 -246 -165s-194.833 -61.5 -299.5 -61.5z" />
    <glyph glyph-name="uni2717.blackcircle" unicode="&#x2717;&#x20dd;&#x25cf;" 
d="M903 833l-271 267l-105 -109l270 -267l-270 -265l106 -110l270 265l270 -265l105 111l-270 264l270 265l-105 109zM900 -51c-104.667 0 -204.5 20.5 -299.5 61.5s-177 96 -246 165s-124 151 -165 246s-61.5 194.833 -61.5 299.5s20.5 204.667 61.5 300
s96 177.5 165 246.5s151.167 124 246.5 165s195 61.5 299 61.5s203.667 -20.5 299 -61.5s177.5 -96 246.5 -165s124 -151.167 165 -246.5s61.5 -195.333 61.5 -300s-20.5 -204.5 -61.5 -299.5s-96 -177 -165 -246s-151 -124 -246 -165s-194.833 -61.5 -299.5 -61.5z" />
    <glyph glyph-name="uni2713.blackcircle" unicode="&#x2713;&#x20dd;&#x25cf;" 
d="M767 369l597 591l-110 117l-487 -481l-213 211l-112 -115zM900 -51c-104.667 0 -204.5 20.5 -299.5 61.5s-177 96 -246 165s-124 151 -165 246s-61.5 194.833 -61.5 299.5s20.5 204.667 61.5 300s96 177.5 165 246.5s151.167 124 246.5 165s195 61.5 299 61.5
s203.667 -20.5 299 -61.5s177.5 -96 246.5 -165s124 -151.167 165 -246.5s61.5 -195.333 61.5 -300s-20.5 -204.5 -61.5 -299.5s-96 -177 -165 -246s-151 -124 -246 -165s-194.833 -61.5 -299.5 -61.5z" />
    <glyph glyph-name="zero.blacksquare" unicode="&#x30;&#x20de;&#x25a0;" 
d="M897 481c-42.667 0 -75.5 21.333 -98.5 64s-34.5 104.667 -34.5 186c0 82 11.5 144.333 34.5 187s55.833 64 98.5 64s75.334 -21.333 98.001 -64s34 -105 34 -187s-11.333 -144.167 -34 -186.5s-55.334 -63.5 -98.001 -63.5zM896 338c94 0 169 35.168 225 105.501
s84 166.166 84 287.499c0 122 -28 218.167 -84 288.5s-131 105.5 -225 105.5s-168.833 -35.167 -224.5 -105.5s-83.5 -166.5 -83.5 -288.5s27.833 -218 83.5 -288s130.5 -105 224.5 -105zM415 1467h970c72 0 133.167 -24.833 183.5 -74.5s75.5 -109.834 75.5 -180.501v-980
c0 -70.667 -25.167 -130.834 -75.5 -180.501s-111.5 -74.5 -183.5 -74.5h-970c-71.333 0 -132.333 24.833 -183 74.5s-76 109.834 -76 180.501v980c0 70.667 25.333 130.834 76 180.501s111.667 74.5 183 74.5z" />
    <glyph glyph-name="one.blacksquare" unicode="&#x31;&#x20de;&#x25a0;" 
d="M1034 352v760h-174l-188 -128v-166l183 123h2v-589h177zM415 1467h970c72 0 133.167 -24.833 183.5 -74.5s75.5 -109.834 75.5 -180.501v-980c0 -70.667 -25.167 -130.834 -75.5 -180.501s-111.5 -74.5 -183.5 -74.5h-970c-71.333 0 -132.333 24.833 -183 74.5
s-76 109.834 -76 180.501v980c0 70.667 25.333 130.834 76 180.501s111.667 74.5 183 74.5z" />
    <glyph glyph-name="two.blacksquare" unicode="&#x32;&#x20de;&#x25a0;" 
d="M783 870l0.000976562 7.99902c0 30.667 9.66699 56 29 76s46 30 80 30c30.667 0 56 -8.5 76 -25.5s30 -38.833 30 -65.5c0 -26 -7.33301 -50 -22 -72s-37.334 -48.667 -68.001 -80l-282 -277v-113h559v147h-325v2l180 175c44 44.667 76.667 83.834 98 117.501
s32 71.834 32 114.501c0 62 -25.333 113.667 -76 155s-116 62 -196 62c-88.667 0 -157.667 -23.833 -207 -71.5s-74 -105.834 -74 -174.501v-8h166zM415.001 1467h970c72 0 133.167 -24.833 183.5 -74.5s75.5 -109.834 75.5 -180.501v-980
c0 -70.667 -25.167 -130.834 -75.5 -180.501s-111.5 -74.5 -183.5 -74.5h-970c-71.333 0 -132.333 24.833 -183 74.5s-76 109.834 -76 180.501v980c0 70.667 25.333 130.834 76 180.501s111.667 74.5 183 74.5z" />
    <glyph glyph-name="three.blacksquare" unicode="&#x33;&#x20de;&#x25a0;" 
d="M807 674l89 0.000976562c38 0 68.667 -9 92 -27s35.333 -41.667 36 -71c0 -29.333 -12 -53.166 -36 -71.499s-56 -27.5 -96 -27.5c-36 0 -66 8.5 -90 25.5s-37.667 38.5 -41 64.5h-162c2 -66 29.333 -120.667 82 -164s123 -65 211 -65c88.667 0 162 20.833 220 62.5
s86.667 97.5 86 167.5c-1.33301 52.667 -18.833 95 -52.5 127s-71.5 50.333 -113.5 55v2c35.333 6 68 24.833 98 56.5s44.667 70.167 44 115.5c-1.33301 59.333 -27.333 107.666 -78 144.999s-117.334 56 -200.001 56c-88 0 -156.667 -20.833 -206 -62.5
s-75.333 -96.5 -78 -164.5h165c1.33301 25.333 12.5 46.666 33.5 63.999s48.167 26 81.5 26c32 0 58.333 -8.33301 79 -25s31.334 -37.667 32.001 -63c0 -27.333 -10.5 -49.5 -31.5 -66.5s-47.833 -25.5 -80.5 -25.5h-84v-134zM415 1467h970
c72 0 133.167 -24.833 183.5 -74.5s75.5 -109.834 75.5 -180.501v-980c0 -70.667 -25.167 -130.834 -75.5 -180.501s-111.5 -74.5 -183.5 -74.5h-970c-71.333 0 -132.333 24.833 -183 74.5s-76 109.834 -76 180.501v980c0 70.667 25.333 130.834 76 180.501
s111.667 74.5 183 74.5z" />
    <glyph glyph-name="four.blacksquare" unicode="&#x34;&#x20de;&#x25a0;" 
d="M864 1112c-142.667 -222 -241 -383.667 -295 -485v-141h379v-134h161v134h101v143h-101v483h-245zM729 630c27.333 47.333 99.333 162 216 344h3v-345h-219v1zM415 1467h970c72 0 133.167 -24.833 183.5 -74.5s75.5 -109.834 75.5 -180.501v-980
c0 -70.667 -25.167 -130.834 -75.5 -180.501s-111.5 -74.5 -183.5 -74.5h-970c-71.333 0 -132.333 24.833 -183 74.5s-76 109.834 -76 180.501v980c0 70.667 25.333 130.834 76 180.501s111.667 74.5 183 74.5z" />
    <glyph glyph-name="five.blacksquare" unicode="&#x35;&#x20de;&#x25a0;" 
d="M613 565c2.66699 -65.333 30.335 -118.998 83.002 -160.998s120.667 -63 204 -63c92 0 165.833 25 221.5 75s83.5 116.333 83.5 199c0 75.333 -24.333 135.166 -73 179.499s-109.334 66.5 -182.001 66.5c-38.667 0 -72.167 -6.5 -100.5 -19.5s-48.5 -28.167 -60.5 -45.5
h-2c9.33301 116.667 14.333 177 15 181h358v137h-498l-33 -449h152c10 18 25.667 33.667 47 47s46.666 20 75.999 20c37.333 0 68.666 -11.333 93.999 -34s38 -52.334 38 -89.001c0 -39.333 -13 -70.833 -39 -94.5s-56.667 -35.5 -92 -35.5
c-32.667 0 -61.167 7.66699 -85.5 23s-39.166 36.333 -44.499 63h-162zM415.001 1467h970c72 0 133.167 -24.833 183.5 -74.5s75.5 -109.834 75.5 -180.501v-980c0 -70.667 -25.167 -130.834 -75.5 -180.501s-111.5 -74.5 -183.5 -74.5h-970
c-71.333 0 -132.333 24.833 -183 74.5s-76 109.834 -76 180.501v980c0 70.667 25.333 130.834 76 180.501s111.667 74.5 183 74.5z" />
    <glyph glyph-name="six.blacksquare" unicode="&#x36;&#x20de;&#x25a0;" 
d="M1202 613c0 68.667 -21.6641 125.5 -64.9971 170.5s-98.333 67.5 -165 67.5c-52 0 -94.667 -14 -128 -42l-9 2c4 7.33301 15.667 24 35 50c23.333 32 61.666 81.333 114.999 148s80.666 101 81.999 103h-195c-102 -134 -154 -203 -156 -207
c-71.333 -102 -107 -197.333 -107 -286c0 -84 27.667 -151.667 83 -203s127.333 -77 216 -77c87.333 0 158.166 25.167 212.499 75.5s81.5 116.5 81.5 198.5zM772.003 605c0 37.333 12.833 68.333 38.5 93s57.834 37 96.501 37s70.667 -12.333 96 -37s38 -55.667 38 -93
s-12.667 -68.333 -38 -93s-57.333 -37 -96 -37s-70.834 12.333 -96.501 37s-38.5 55.667 -38.5 93zM415.003 1467h970c72 0 133.167 -24.833 183.5 -74.5s75.5 -109.834 75.5 -180.501v-980c0 -70.667 -25.167 -130.834 -75.5 -180.501s-111.5 -74.5 -183.5 -74.5h-970
c-71.333 0 -132.333 24.833 -183 74.5s-76 109.834 -76 180.501v980c0 70.667 25.333 130.834 76 180.501s111.667 74.5 183 74.5z" />
    <glyph glyph-name="seven.blacksquare" unicode="&#x37;&#x20de;&#x25a0;" 
d="M622 1112v-148h382v-2l-324 -610h188l314 614v146h-560zM415 1467h970c72 0 133.167 -24.833 183.5 -74.5s75.5 -109.834 75.5 -180.501v-980c0 -70.667 -25.167 -130.834 -75.5 -180.501s-111.5 -74.5 -183.5 -74.5h-970c-71.333 0 -132.333 24.833 -183 74.5
s-76 109.834 -76 180.501v980c0 70.667 25.333 130.834 76 180.501s111.667 74.5 183 74.5z" />
    <glyph glyph-name="eight.blacksquare" unicode="&#x38;&#x20de;&#x25a0;" 
d="M897 803c-34 0 -61.5 9 -82.5 27s-31.5 41.667 -31.5 71s10.5 53.166 31.5 71.499s48.5 27.5 82.5 27.5c33.333 0 60.666 -9.16699 81.999 -27.5s32 -42.166 32 -71.499c0 -28.667 -10.667 -52.167 -32 -70.5s-48.666 -27.5 -81.999 -27.5zM897 463
c-40.667 0 -74.167 10.667 -100.5 32s-39.5 48.333 -39.5 81s13.167 59.834 39.5 81.501s59.833 32.5 100.5 32.5s74.167 -10.833 100.5 -32.5s39.5 -48.834 39.5 -81.501s-13.167 -59.667 -39.5 -81s-59.833 -32 -100.5 -32zM897 338
c94.667 0 170.668 20.665 228.001 61.998s86 96.333 86 165c0 47.333 -14.833 87.5 -44.5 120.5s-69.834 54.5 -120.501 64.5v1c43.333 14 76.333 35.667 99 65s34 64.333 34 105c0 60.667 -26 109.834 -78 147.501s-120 56.5 -204 56.5
c-84.667 0 -152.834 -18.667 -204.501 -56s-77.5 -86.666 -77.5 -147.999c0 -40.667 11.333 -75.667 34 -105s55.334 -51 98.001 -65v-1c-50.667 -10 -90.667 -31.667 -120 -65s-44 -73.333 -44 -120c0 -68.667 28.667 -123.667 86 -165s133.333 -62 228 -62zM415.001 1467
h970c72 0 133.167 -24.833 183.5 -74.5s75.5 -109.834 75.5 -180.501v-980c0 -70.667 -25.167 -130.834 -75.5 -180.501s-111.5 -74.5 -183.5 -74.5h-970c-71.333 0 -132.333 24.833 -183 74.5s-76 109.834 -76 180.501v980c0 70.667 25.333 130.834 76 180.501
s111.667 74.5 183 74.5z" />
    <glyph glyph-name="nine.blacksquare" unicode="&#x39;&#x20de;&#x25a0;" 
d="M593 850c0 -68.667 21.834 -125.5 65.501 -170.5s98.5 -67.5 164.5 -67.5c51.333 0 94.333 14 129 42l8 -1c-2.66699 -5.33301 -12.334 -20.333 -29.001 -45c-28 -38 -95.667 -123.333 -203 -256h195c16 19.333 44.5 55.666 85.5 108.999s64.5 85.333 70.5 96
c72 102.667 108 198.334 108 287.001c0 84 -27.667 151.667 -83 203s-127.333 77 -216 77c-88 0 -159.167 -25.167 -213.5 -75.5s-81.5 -116.5 -81.5 -198.5zM1023 858c0 -36.667 -12.667 -67.5 -38 -92.5s-57.333 -37.5 -96 -37.5s-70.667 12.5 -96 37.5
s-38 55.833 -38 92.5c0 37.333 12.667 68.333 38 93s57.333 37 96 37s70.667 -12.333 96 -37s38 -55.667 38 -93zM415.001 1467h970c72 0 133.167 -24.833 183.5 -74.5s75.5 -109.834 75.5 -180.501v-980c0 -70.667 -25.167 -130.834 -75.5 -180.501
s-111.5 -74.5 -183.5 -74.5h-970c-71.333 0 -132.333 24.833 -183 74.5s-76 109.834 -76 180.501v980c0 70.667 25.333 130.834 76 180.501s111.667 74.5 183 74.5z" />
    <glyph glyph-name="plus.uc.blacksquare" unicode="&#x2b;&#x20de;&#x25a0;" 
d="M976 656h228v150h-228v226h-152v-226h-228v-150h228v-233h152v233zM415 1467h970c72 0 133.167 -24.833 183.5 -74.5s75.5 -109.834 75.5 -180.501v-980c0 -70.667 -25.167 -130.834 -75.5 -180.501s-111.5 -74.5 -183.5 -74.5h-970c-71.333 0 -132.333 24.833 -183 74.5
s-76 109.834 -76 180.501v980c0 70.667 25.333 130.834 76 180.501s111.667 74.5 183 74.5z" />
    <glyph glyph-name="minus.uc.blacksquare" unicode="&#x2212;&#x20de;&#x25a0;" 
d="M1186 650v155h-572v-155h572zM415 1467h970c72 0 133.167 -24.833 183.5 -74.5s75.5 -109.834 75.5 -180.501v-980c0 -70.667 -25.167 -130.834 -75.5 -180.501s-111.5 -74.5 -183.5 -74.5h-970c-71.333 0 -132.333 24.833 -183 74.5s-76 109.834 -76 180.501v980
c0 70.667 25.333 130.834 76 180.501s111.667 74.5 183 74.5z" />
    <glyph glyph-name="multiply.uc.blacksquare" unicode="&#xd7;&#x20de;&#x25a0;" 
d="M900 837l-176 169l-107 -109l176 -170l-176 -168l107 -110l176 169l176 -169l107 110l-176 168l176 170l-107 109zM415 1467h970c72 0 133.167 -24.833 183.5 -74.5s75.5 -109.834 75.5 -180.501v-980c0 -70.667 -25.167 -130.834 -75.5 -180.501
s-111.5 -74.5 -183.5 -74.5h-970c-71.333 0 -132.333 24.833 -183 74.5s-76 109.834 -76 180.501v980c0 70.667 25.333 130.834 76 180.501s111.667 74.5 183 74.5z" />
    <glyph glyph-name="divide.uc.blacksquare" unicode="&#xf7;&#x20de;&#x25a0;" 
d="M802 959c0 -26 9.33301 -47.667 28 -65s41.667 -26 69 -26c28 0 51.667 8.66699 71 26s29 39 29 65c0 26.667 -9.66699 48.667 -29 66s-43 26 -71 26c-27.333 0 -50.333 -8.66699 -69 -26s-28 -39.333 -28 -66zM1186 662v129h-572v-129h572zM802 499
c0 -26 9.5 -47.667 28.5 -65s42.167 -26 69.5 -26c28 0 51.5 8.66699 70.5 26s28.5 39 28.5 65c0 26.667 -9.5 48.667 -28.5 66s-42.5 26 -70.5 26s-51.333 -8.66699 -70 -26s-28 -39.333 -28 -66zM415 1467h970c72 0 133.167 -24.833 183.5 -74.5
s75.5 -109.834 75.5 -180.501v-980c0 -70.667 -25.167 -130.834 -75.5 -180.501s-111.5 -74.5 -183.5 -74.5h-970c-71.333 0 -132.333 24.833 -183 74.5s-76 109.834 -76 180.501v980c0 70.667 25.333 130.834 76 180.501s111.667 74.5 183 74.5z" />
    <glyph glyph-name="equal.uc.blacksquare" unicode="&#x3d;&#x20de;&#x25a0;" 
d="M1177 790v140h-554v-140h554zM1177 524v139h-554v-139h554zM415 1467h970c72 0 133.167 -24.833 183.5 -74.5s75.5 -109.834 75.5 -180.501v-980c0 -70.667 -25.167 -130.834 -75.5 -180.501s-111.5 -74.5 -183.5 -74.5h-970c-71.333 0 -132.333 24.833 -183 74.5
s-76 109.834 -76 180.501v980c0 70.667 25.333 130.834 76 180.501s111.667 74.5 183 74.5z" />
    <glyph glyph-name="greater.uc.blacksquare" unicode="&#x3e;&#x20de;&#x25a0;" 
d="M1195 776l-547 286v-171l346 -166l1 -2l-347 -162v-168l547 275v108zM415 1467h970c72 0 133.167 -24.833 183.5 -74.5s75.5 -109.834 75.5 -180.501v-980c0 -70.667 -25.167 -130.834 -75.5 -180.501s-111.5 -74.5 -183.5 -74.5h-970
c-71.333 0 -132.333 24.833 -183 74.5s-76 109.834 -76 180.501v980c0 70.667 25.333 130.834 76 180.501s111.667 74.5 183 74.5z" />
    <glyph glyph-name="less.uc.blacksquare" unicode="&#x3c;&#x20de;&#x25a0;" 
d="M599 668l546 -275v168l-104.5 49.5l-135 63.5l-105.5 49v2l345 166v171l-546 -286v-108zM415 1467h970c72 0 133.167 -24.833 183.5 -74.5s75.5 -109.834 75.5 -180.501v-980c0 -70.667 -25.167 -130.834 -75.5 -180.501s-111.5 -74.5 -183.5 -74.5h-970
c-71.333 0 -132.333 24.833 -183 74.5s-76 109.834 -76 180.501v980c0 70.667 25.333 130.834 76 180.501s111.667 74.5 183 74.5z" />
    <glyph glyph-name="numbersign.blacksquare" unicode="&#x23;&#x20de;&#x25a0;" 
d="M841 804h143l-32 -151h-142zM1217 793l25 127h-117l39 188h-132l-38 -188h-118l40 188h-132l-38 -188h-110l-25 -127h109l-27 -120h-111l-25 -128h110l-41 -196h131l43 196h117l-42 -196h132l41 196h114l25 128h-112c0 1.33301 2 11.5 6 30.5s8.33301 38.5 13 58.5l6 31
h117zM415 1467h970c72 0 133.167 -24.833 183.5 -74.5s75.5 -109.834 75.5 -180.501v-980c0 -70.667 -25.167 -130.834 -75.5 -180.501s-111.5 -74.5 -183.5 -74.5h-970c-71.333 0 -132.333 24.833 -183 74.5s-76 109.834 -76 180.501v980
c0 70.667 25.333 130.834 76 180.501s111.667 74.5 183 74.5z" />
    <glyph glyph-name="uni25BC.blacksquare" unicode="&#x25bc;&#x20de;&#x25a0;" 
d="M1247 977h-693l346 -602zM415 1467h970c72 0 133.167 -24.833 183.5 -74.5s75.5 -109.834 75.5 -180.501v-980c0 -70.667 -25.167 -130.834 -75.5 -180.501s-111.5 -74.5 -183.5 -74.5h-970c-71.333 0 -132.333 24.833 -183 74.5s-76 109.834 -76 180.501v980
c0 70.667 25.333 130.834 76 180.501s111.667 74.5 183 74.5z" />
    <glyph glyph-name="uni25B2.blacksquare" unicode="&#x25b2;&#x20de;&#x25a0;" 
d="M1247 491l-347 600l-346 -600h693zM415 1467h970c72 0 133.167 -24.833 183.5 -74.5s75.5 -109.834 75.5 -180.501v-980c0 -70.667 -25.167 -130.834 -75.5 -180.501s-111.5 -74.5 -183.5 -74.5h-970c-71.333 0 -132.333 24.833 -183 74.5s-76 109.834 -76 180.501v980
c0 70.667 25.333 130.834 76 180.501s111.667 74.5 183 74.5z" />
    <glyph glyph-name="uni25C0.blacksquare" unicode="&#x25c0;&#x20de;&#x25a0;" 
d="M1141 389v693l-601 -346zM415 1467h970c72 0 133.167 -24.833 183.5 -74.5s75.5 -109.834 75.5 -180.501v-980c0 -70.667 -25.167 -130.834 -75.5 -180.501s-111.5 -74.5 -183.5 -74.5h-970c-71.333 0 -132.333 24.833 -183 74.5s-76 109.834 -76 180.501v980
c0 70.667 25.333 130.834 76 180.501s111.667 74.5 183 74.5z" />
    <glyph glyph-name="uni25B6.blacksquare" unicode="&#x25b6;&#x20de;&#x25a0;" 
d="M659 389l601 347l-601 346v-693zM415 1467h970c72 0 133.167 -24.833 183.5 -74.5s75.5 -109.834 75.5 -180.501v-980c0 -70.667 -25.167 -130.834 -75.5 -180.501s-111.5 -74.5 -183.5 -74.5h-970c-71.333 0 -132.333 24.833 -183 74.5s-76 109.834 -76 180.501v980
c0 70.667 25.333 130.834 76 180.501s111.667 74.5 183 74.5z" />
    <glyph glyph-name="question.blacksquare" unicode="&#x3f;&#x20de;&#x25a0;" 
d="M772 429c0 -28 10.167 -50.667 30.5 -68s47.166 -26 80.499 -26c34 0 61.167 8.66699 81.5 26s30.5 40 30.5 68c0 28.667 -10.167 51.667 -30.5 69s-47.5 26 -81.5 26c-33.333 0 -60.166 -8.5 -80.499 -25.5s-30.5 -40.167 -30.5 -69.5zM903 1126
c-78 0 -142.665 -19.166 -193.998 -57.499s-77 -96.5 -77 -174.5v-4l161 1c0 29.333 8.83301 53.333 26.5 72s42.167 28 73.5 28c27.333 0 50.333 -6.83301 69 -20.5s28 -33.834 28 -60.501c0 -12.667 -3.16699 -24.834 -9.5 -36.501s-12.333 -20.167 -18 -25.5
s-17.167 -14.666 -34.5 -27.999l-35 -27c-66.667 -48 -98.334 -102.333 -95.001 -163c0 -1.33301 0.166992 -8 0.5 -20s0.5 -18.333 0.5 -19h156v26c0 24.667 5.5 43.5 16.5 56.5s35.167 32.167 72.5 57.5c27.333 19.333 48.166 35.5 62.499 48.5s27.333 31.333 39 55
s17.5 50.834 17.5 81.501c0 65.333 -24.833 116.666 -74.5 153.999s-111.5 56 -185.5 56zM415.002 1467h970c72 0 133.167 -24.833 183.5 -74.5s75.5 -109.834 75.5 -180.501v-980c0 -70.667 -25.167 -130.834 -75.5 -180.501s-111.5 -74.5 -183.5 -74.5h-970
c-71.333 0 -132.333 24.833 -183 74.5s-76 109.834 -76 180.501v980c0 70.667 25.333 130.834 76 180.501s111.667 74.5 183 74.5z" />
    <glyph glyph-name="exclam.blacksquare" unicode="&#x21;&#x20de;&#x25a0;" 
d="M805 1112l19 -503h153l20 503h-192zM790 430c0 -28 10.167 -50.667 30.5 -68s47.166 -26 80.499 -26s60.166 8.66699 80.499 26s30.5 40 30.5 68c0 28.667 -10.167 51.5 -30.5 68.5s-47.166 25.5 -80.499 25.5s-60.166 -8.5 -80.499 -25.5s-30.5 -39.833 -30.5 -68.5z
M415 1467h970c72 0 133.167 -24.833 183.5 -74.5s75.5 -109.834 75.5 -180.501v-980c0 -70.667 -25.167 -130.834 -75.5 -180.501s-111.5 -74.5 -183.5 -74.5h-970c-71.333 0 -132.333 24.833 -183 74.5s-76 109.834 -76 180.501v980c0 70.667 25.333 130.834 76 180.501
s111.667 74.5 183 74.5z" />
    <glyph glyph-name="uni2717.blacksquare" unicode="&#x2717;&#x20de;&#x25a0;" 
d="M527 991l270 -267l-270 -265l106 -110l270 265l270 -265l105 111l-270 264l270 265l-105 109l-270 -265l-271 267zM415 1467h970c72 0 133.167 -24.833 183.5 -74.5s75.5 -109.834 75.5 -180.501v-980c0 -70.667 -25.167 -130.834 -75.5 -180.501
s-111.5 -74.5 -183.5 -74.5h-970c-71.333 0 -132.333 24.833 -183 74.5s-76 109.834 -76 180.501v980c0 70.667 25.333 130.834 76 180.501s111.667 74.5 183 74.5z" />
    <glyph glyph-name="uni2713.blacksquare" unicode="&#x2713;&#x20de;&#x25a0;" 
d="M767 369l597 591l-110 117l-487 -481l-213 211l-112 -115zM415 1467h970c72 0 133.167 -24.833 183.5 -74.5s75.5 -109.834 75.5 -180.501v-980c0 -70.667 -25.167 -130.834 -75.5 -180.501s-111.5 -74.5 -183.5 -74.5h-970c-71.333 0 -132.333 24.833 -183 74.5
s-76 109.834 -76 180.501v980c0 70.667 25.333 130.834 76 180.501s111.667 74.5 183 74.5z" />
    <glyph glyph-name=".notdef" horiz-adv-x="2048" 
d="M100 -494v247h1848v-247h-1848zM100 -55v247h1848v-247h-1848zM100 385v247h1848v-247h-1848zM100 824v247h1848v-247h-1848zM100 1264v247h1848v-247h-1848zM100 1703v247h1848v-247h-1848z" />
    <glyph glyph-name="space" unicode=" " horiz-adv-x="560" 
 />
    <glyph glyph-name="exclam" unicode="!" horiz-adv-x="670" 
d="M213 1444h243l-20 -966h-202zM336 -23c-46.667 0 -84.167 14 -112.5 42s-42.5 64.667 -42.5 110c0 46.667 14.167 84 42.5 112s65.833 42 112.5 42c46 0 83 -14 111 -42s42 -65.333 42 -112c0 -45.333 -14 -82 -42 -110s-65 -42 -111 -42z" />
    <glyph glyph-name="quotedbl" unicode="&#x22;" horiz-adv-x="938" 
d="M362 872h-193v571h193v-571zM769 872h-192v571h192v-571z" />
    <glyph glyph-name="numbersign" unicode="#" horiz-adv-x="1319" 
d="M662 0l80 392h-303l-80 -392h-170l79 392h-231l33 178h233l66 319h-241l34 177h241l79 377h170l-76 -377h302l78 377h171l-77 -377h244l-32 -177h-247l-68 -319h254l-32 -178h-255l-80 -392h-172zM466 560h314l71 339h-315z" />
    <glyph glyph-name="dollar" unicode="$" horiz-adv-x="1359" 
d="M751 -136l-136.997 0.000976562v130c-143.333 9.33301 -256.833 50.666 -340.5 123.999s-125.834 168 -126.501 284h212c5.33301 -59.333 30.5 -108.5 75.5 -147.5s104.833 -62.833 179.5 -71.5v456l-89 23c-112 28.667 -197.5 75.834 -256.5 141.501
s-88.5 147.167 -88.5 244.5c0 115.333 38.5 209.166 115.5 281.499s183.167 114.833 318.5 127.5v138h137v-138c129.333 -11.333 233.333 -53.666 312 -126.999s119.667 -165.666 123 -276.999h-209c-2 55.333 -23.667 102.5 -65 141.5s-95 62.5 -161 70.5v-431l93 -21
c125.333 -30.667 218.166 -78.334 278.499 -143.001s90.5 -148.667 90.5 -252c0 -122 -40.333 -219.833 -121 -293.5s-194.334 -116.834 -341.001 -129.501v-131zM1000 395.001c0 57.333 -20.167 103.669 -60.5 139.002s-103.166 61.666 -188.499 78.999v-432
c79.333 4.66699 140.666 25.667 183.999 63s65 87.666 65 150.999zM394.003 1066c0 -51.333 18.667 -94.3311 56 -128.998s92 -59.334 164 -74.001v403c-64 -3.33301 -116.667 -23.833 -158 -61.5s-62 -83.834 -62 -138.501z" />
    <glyph glyph-name="percent" unicode="%" horiz-adv-x="1643" 
d="M711 1116c0 -105.333 -29.501 -191 -88.501 -257s-135.5 -99 -229.5 -99c-93.333 0 -169.666 33.167 -228.999 99.5s-89 151.833 -89 256.5c0 105.333 29.5 191 88.5 257s135.5 99 229.5 99s170.5 -33 229.5 -99s88.5 -151.667 88.5 -257zM392.999 916
c41.333 0 74.333 18.333 99 55s37 85.334 37 146.001c0 62 -12.167 110.667 -36.5 146s-57.5 53 -99.5 53c-41.333 0 -74.333 -18 -99 -54s-37 -84.333 -37 -145s12.333 -109.334 37 -146.001s57.667 -55 99 -55zM419.999 0h-219l549 754l480 689h218l-558 -764zM1568 328
c0 -105.333 -29.5 -191.166 -88.5 -257.499s-135.5 -99.5 -229.5 -99.5s-170.667 33.167 -230 99.5s-89 152.166 -89 257.499c0 104.667 29.667 190 89 256s136 99 230 99s170.5 -33 229.5 -99s88.5 -151.333 88.5 -256zM1250 127c40.667 0 73.332 18.1689 97.999 54.502
s37 85.166 37 146.499c0 62 -12.167 110.667 -36.5 146s-57.166 53 -98.499 53s-74.333 -18 -99 -54s-37 -84.333 -37 -145s12.333 -109.334 37 -146.001s57.667 -55 99 -55z" />
    <glyph glyph-name="ampersand" unicode="&#x26;" horiz-adv-x="1481" 
d="M1192 0l-125.004 131.996c-59.333 -50 -129.166 -89 -209.499 -117s-164.166 -42 -251.499 -42c-147.333 0 -266.5 37.667 -357.5 113s-136.5 174 -136.5 296c0 84 22.833 158 68.5 222s116.167 121.333 211.5 172c2.66699 1.33301 12 6.5 28 15.5s26.333 14.5 31 16.5
c-66 68.667 -112.667 128.334 -140 179.001s-41 102.334 -41 155.001c0 94.667 36.5 173.334 109.5 236.001s164.5 94 274.5 94c110.667 0 201.834 -30.667 273.501 -92s107.5 -140 107.5 -236c0 -74.667 -24.167 -141.667 -72.5 -201s-126.166 -117.333 -233.499 -174
l331 -344c41.333 77.333 62 188.333 62 333v46h195v-54c0 -201.333 -40 -359.666 -120 -474.999l257 -275h-262zM515.996 653.996c-126.667 -66 -189.998 -151 -189.998 -255c0 -73.333 27.667 -132.5 83 -177.5s128 -67.5 218 -67.5c61.333 0 120.666 10.667 177.999 32
s103.666 50 138.999 86l-381 404c-16 -6.66699 -31.667 -14 -47 -22zM617.998 887.996c80 40 136.833 78.501 170.5 115.501s50.5 79.5 50.5 127.5c0 51.333 -17 93 -51 125s-78.333 48 -133 48c-53.333 0 -97.333 -16.333 -132 -49s-52 -74.334 -52 -125.001
c0 -36.667 11 -73 33 -109s60 -80.333 114 -133z" />
    <glyph glyph-name="quotesingle" unicode="'" horiz-adv-x="531" 
d="M362 872h-193v571h193v-571z" />
    <glyph glyph-name="parenleft" unicode="(" horiz-adv-x="817" 
d="M235 603c0 362 96.333 665.667 289 911h190c-72.667 -93.333 -133.667 -226 -183 -398s-74 -342.667 -74 -512c0 -170.667 24.5 -342.167 73.5 -514.5s110.167 -304.833 183.5 -397.5h-190c-192.667 245.333 -289 549 -289 911z" />
    <glyph glyph-name="parenright" unicode=")" horiz-adv-x="817" 
d="M581 603c0 -362 -96 -665.666 -288 -910.999h-190c72.667 93.333 133.667 226.166 183 398.499s74 343.5 74 513.5c0 169.333 -24.667 340 -74 512s-110.333 304.667 -183 398h190c192 -245.333 288 -549 288 -911z" />
    <glyph glyph-name="asterisk" unicode="*" horiz-adv-x="1032" 
d="M811 801l-240 167l25 -288h-160l25 289l-240 -168l-78 143l264 121l-264 122l78 145l240 -172l-25 293h160l-25 -293l240 172l78 -145l-263 -122l263 -121z" />
    <glyph glyph-name="plus" unicode="+" horiz-adv-x="1359" 
d="M773 484v-424h-187v424h-426v196h426v423h187v-423h427v-196h-427z" />
    <glyph glyph-name="comma" unicode="," horiz-adv-x="645" 
d="M294 -377h-152l93 593h225z" />
    <glyph glyph-name="hyphen" unicode="&#x2011;" horiz-adv-x="975" 
d="M816 476h-656v211h656v-211z" />
    <glyph glyph-name="hyphen" unicode="-" horiz-adv-x="975" 
d="M816 476h-656v211h656v-211z" />
    <glyph glyph-name="period" unicode="." horiz-adv-x="645" 
d="M323 -17c-42 0 -77 14.333 -105 43s-42 64 -42 106s14 77.333 42 106s63 43 105 43s77 -14.333 105 -43s42 -64 42 -106s-14 -77.333 -42 -106s-63 -43 -105 -43z" />
    <glyph glyph-name="slash" unicode="/" horiz-adv-x="722" 
d="M195 -308h-195l527 1822h195z" />
    <glyph glyph-name="zero" unicode="0" horiz-adv-x="1330" 
d="M666 -35c-168.667 0 -299.833 66.332 -393.5 198.999s-140.5 319 -140.5 559c0 238 47 423.333 141 556s225 199 393 199c166.667 0 297 -66.5 391 -199.5s141 -318.833 141 -557.5c0 -239.333 -46.667 -425.166 -140 -557.499s-224 -198.5 -392 -198.5zM666.001 160.999
c98.667 0 174.332 48.167 226.999 144.5s79 235.5 79 417.5c0 180 -26.667 318.167 -80 414.5s-128.666 144.5 -225.999 144.5s-173 -48.333 -227 -145s-81 -234.667 -81 -414c0 -181.333 26.667 -320.333 80 -417s129.333 -145 228 -145z" />
    <glyph glyph-name="one" unicode="1" horiz-adv-x="989" 
d="M502 0v1202h-17l-362 -256v229l380 268h223v-1443h-224z" />
    <glyph glyph-name="two" unicode="2" horiz-adv-x="1266" 
d="M144 1026c0 132.667 45.333 241.166 136 325.499s207 126.5 349 126.5c137.333 0 251 -39 341 -117s135 -176.333 135 -295c0 -76.667 -22.5 -152.5 -67.5 -227.5s-127.833 -173.5 -248.5 -295.5l-321 -325v-17h660v-201h-972v162l488 508c96 100 160 175.5 192 226.5
s48 103.167 48 156.5c0 66 -25 121 -75 165s-112.333 66 -187 66c-79.333 0 -143.5 -23.667 -192.5 -71s-73.5 -109.666 -73.5 -186.999v-3h-212v3z" />
    <glyph glyph-name="three" unicode="3" horiz-adv-x="1315" 
d="M471 648l0.000976562 185.001h175c77.333 0 140.333 21.333 189 64s73 98 73 166c0 67.333 -23.667 121.166 -71 161.499s-110.333 60.5 -189 60.5s-142.167 -20.333 -190.5 -61s-75.5 -96.667 -81.5 -168h-213c7.33301 130.667 55 233.667 143 309s204.333 113 349 113
c134 0 246.5 -36.5 337.5 -109.5s136.5 -163.833 136.5 -272.5c0 -84.667 -23.167 -157 -69.5 -217s-109.166 -99 -188.499 -117v-17c98 -11.333 175.333 -48.5 232 -111.5s85 -142.833 85 -239.5c0 -80.667 -23 -153.667 -69 -219s-109.5 -116.666 -190.5 -153.999
s-170.833 -56 -269.5 -56c-151.333 0 -274.833 39 -370.5 117s-146.834 181.333 -153.501 310h215c7.33301 -70 38.833 -125.667 94.5 -167s127.167 -62 214.5 -62c88 0 160 22.667 216 68s84 103.666 84 174.999c0 74.667 -27.333 133.667 -82 177s-129.334 65 -224.001 65
h-182z" />
    <glyph glyph-name="four" unicode="4" horiz-adv-x="1351" 
d="M820 0v278.999h-704v208c112 204.667 312.333 523.334 601 956.001h319v-964h199v-200h-199v-279h-216zM331 487.999v-14h492v772h-13c-169.333 -245.333 -329 -498 -479 -758z" />
    <glyph glyph-name="five" unicode="5" horiz-adv-x="1300" 
d="M656 -35c-143.333 0 -261.332 40 -353.999 120s-142.334 183.333 -149.001 310h213c8.66699 -70 39.667 -126.333 93 -169s119.666 -64 198.999 -64c90 0 162.667 27.333 218 82s83 127 83 217s-27.667 163.167 -83 219.5s-127 84.5 -215 84.5
c-61.333 0 -116.333 -13 -165 -39s-87 -62.333 -115 -109h-205l76 826h842v-200h-667l-38 -423h17c68 87.333 169.667 131 305 131c137.333 0 249.5 -45.167 336.5 -135.5s130.5 -206.5 130.5 -348.5c0 -149.333 -48.167 -270.333 -144.5 -363s-222.166 -139 -377.499 -139z
" />
    <glyph glyph-name="six" unicode="6" horiz-adv-x="1339" 
d="M689 -35c-106.667 0 -200.495 25.667 -281.495 77s-145.167 125.333 -192.5 222c-58.667 115.333 -88 261.666 -88 438.999c0 244.667 50.167 435 150.5 571s240.833 204 421.5 204c127.333 0 235.666 -35.167 324.999 -105.5s145 -164.5 167 -282.5h-225
c-18 58.667 -51 105 -99 139s-104.667 51 -170 51c-110.667 0 -196.834 -47.833 -258.501 -143.5s-93.834 -230.5 -96.501 -404.5h17c34.667 69.333 85.167 123 151.5 161s142.166 57 227.499 57c137.333 0 250.666 -45.333 339.999 -136s134 -205.667 134 -345
c0 -147.333 -49 -268.166 -147 -362.499s-223.333 -141.5 -376 -141.5zM687.005 162c86 0 158 28.668 216 86.001s87 128.666 87 213.999c0 87.333 -28.167 159 -84.5 215s-128.833 84 -217.5 84c-88 0 -160.667 -27.833 -218 -83.5s-86 -126.167 -86 -211.5
c0 -86 29 -158.167 87 -216.5s130 -87.5 216 -87.5z" />
    <glyph glyph-name="seven" unicode="7" horiz-adv-x="1193" 
d="M217 0l636 1228v16h-756v199h983v-203l-628 -1240h-235z" />
    <glyph glyph-name="eight" unicode="8" horiz-adv-x="1349" 
d="M674 -35c-160.667 0 -291.167 38.999 -391.5 116.999s-150.5 179.333 -150.5 304c0 92 27.833 171.667 83.5 239s129.834 110.333 222.501 129v17c-75.333 19.333 -135.5 57.833 -180.5 115.5s-67.5 125.167 -67.5 202.5c0 114 45.333 207.333 136 280
s206.667 109 348 109s257.333 -36.333 348 -109s136 -166 136 -280c0 -78 -22.333 -145.667 -67 -203s-105 -95.666 -181 -114.999v-17c92.667 -17.333 167 -59.5 223 -126.5s84 -147.167 84 -240.5c0 -124.667 -50.333 -226.167 -151 -304.5
s-231.334 -117.5 -392.001 -117.5zM674 150.999c92.667 0 168 23.5 226 70.5s87 108.167 87 183.5s-29 136.666 -87 183.999s-133.333 71 -226 71s-168 -23.667 -226 -71s-87 -108.666 -87 -183.999s29 -136.5 87 -183.5s133.333 -70.5 226 -70.5zM674 842.999
c78.667 0 142.334 20.667 191.001 62s73 95.333 73 162c0 67.333 -24.333 122 -73 164s-112.334 63 -191.001 63s-142.167 -21 -190.5 -63s-72.5 -96.667 -72.5 -164c0 -66.667 24.167 -120.667 72.5 -162s111.833 -62 190.5 -62z" />
    <glyph glyph-name="nine" unicode="9" horiz-adv-x="1339" 
d="M641 -35c-128 0 -236.668 35.333 -326.001 106s-145 165 -167 283h226c17.333 -58.667 50 -105 98 -139s105 -51 171 -51c110.667 0 196.834 47.833 258.501 143.5s93.5 230.5 95.5 404.5h-8h-5h-4c-34.667 -69.333 -85 -123.166 -151 -161.499
s-141.667 -57.5 -227 -57.5c-137.333 0 -250.833 45.333 -340.5 136s-134.5 205.667 -134.5 345c0 147.333 48.833 268.166 146.5 362.499s223.167 141.5 376.5 141.5c106.667 0 200.667 -25.5 282 -76.5s145.333 -124.833 192 -221.5c59.333 -116.667 89 -263 89 -439
c0 -244.667 -50.167 -435.167 -150.5 -571.5s-240.833 -204.5 -421.5 -204.5zM650.999 683c88 0 160.667 27.668 218 83.001s86 125.666 86 210.999c0 86.667 -29 159 -87 217s-129.667 87 -215 87c-86 0 -158 -28.667 -216 -86s-87 -128.333 -87 -213
c0 -87.333 28 -159 84 -215s128.333 -84 217 -84z" />
    <glyph glyph-name="colon" unicode=":" horiz-adv-x="645" 
d="M323 -17c-42 0 -77 14.333 -105 43s-42 64 -42 106s14 77.333 42 106s63 43 105 43s77 -14.333 105 -43s42 -64 42 -106s-14 -77.333 -42 -106s-63 -43 -105 -43zM323 738c-42 0 -77.001 14.333 -105.001 43s-42 64 -42 106c0 42.667 14 78.167 42 106.5
s63 42.5 105 42.5c42.667 0 77.834 -14.167 105.501 -42.5s41.5 -63.833 41.5 -106.5c0 -42 -14 -77.333 -42 -106s-63 -43 -105 -43z" />
    <glyph glyph-name="semicolon" unicode=";" horiz-adv-x="645" 
d="M323 738c-42 0 -77.001 14.333 -105.001 43s-42 64 -42 106c0 42.667 14 78.167 42 106.5s63 42.5 105 42.5c42.667 0 77.834 -14.167 105.501 -42.5s41.5 -63.833 41.5 -106.5c0 -42 -14 -77.333 -42 -106s-63 -43 -105 -43zM274.999 -377h-156l95 593h225z" />
    <glyph glyph-name="less" unicode="&#x3c;" horiz-adv-x="1359" 
d="M1133 953l-690 -350v-17l690 -350v-236l-906 503v183l906 503v-236z" />
    <glyph glyph-name="equal" unicode="=" horiz-adv-x="1359" 
d="M1195 270h-1031v197h1031v-197zM1195 698h-1031v197h1031v-197z" />
    <glyph glyph-name="greater" unicode="&#x3e;" horiz-adv-x="1359" 
d="M227 953v236l906 -503v-183l-906 -503v236l689 350v17z" />
    <glyph glyph-name="question" unicode="?" horiz-adv-x="1083" 
d="M79 1053c4.66699 119.333 46.332 216.166 124.999 290.499s188.334 111.5 329.001 111.5c131.333 0 237.833 -35 319.5 -105s122.5 -159.667 122.5 -269c0 -144 -70 -258 -210 -342c-64 -38 -107.667 -73.167 -131 -105.5s-35 -73.833 -35 -124.5v-60h-207l-1 76
c-2.66699 70.667 11.333 130.5 42 179.5s81 94.5 151 136.5c61.333 36.667 104 71.834 128 105.501s36 75.5 36 125.5c0 55.333 -20.667 100.833 -62 136.5s-96 53.5 -164 53.5c-68.667 0 -124 -18.833 -166 -56.5s-65.333 -88.5 -70 -152.5h-207zM507.998 -23
c-46 0 -83.333 14 -112 42s-43 64.667 -43 110c0 46 14.333 83.167 43 111.5s66 42.5 112 42.5s83.167 -14 111.5 -42s42.5 -65.333 42.5 -112c0 -45.333 -14.167 -82 -42.5 -110s-65.5 -42 -111.5 -42z" />
    <glyph glyph-name="at" unicode="@" horiz-adv-x="1887" 
d="M936 858c-62 0 -110.333 -22.498 -145 -67.498s-52 -107.833 -52 -188.5s17.333 -143.834 52 -189.501s82.334 -68.5 143.001 -68.5c63.333 0 113.666 23.167 150.999 69.5s56 109.166 56 188.499c0 78.667 -18.5 141 -55.5 187s-86.833 69 -149.5 69zM970 1442
c156.667 0 295.997 -31 417.997 -93s216.833 -149.333 284.5 -262s101.5 -241 101.5 -385c0 -160.667 -34.333 -288.334 -103 -383.001s-161.667 -142 -279 -142c-60 0 -110.833 14.833 -152.5 44.5s-66.5 68.834 -74.5 117.501h-17
c-20.667 -50.667 -52.167 -89.334 -94.5 -116.001s-92.833 -40 -151.5 -40c-104 0 -187.833 38.833 -251.5 116.5s-95.5 179.834 -95.5 306.501c0 121.333 31.833 220.333 95.5 297s146.5 115 248.5 115c52.667 0 99.834 -12.667 141.501 -38s72.167 -60 91.5 -104h17v121
h170v-562c0 -35.333 9.16699 -62.833 27.5 -82.5s44.5 -29.5 78.5 -29.5c58.667 0 105.5 33.833 140.5 101.5s52.5 158.167 52.5 271.5c0 180.667 -60.667 326.5 -182 437.5s-280.333 166.5 -477 166.5c-128 0 -242.667 -29.5 -344 -88.5s-180.333 -141.667 -237 -248
s-85 -226.833 -85 -361.5c0 -208.667 63.5 -375 190.5 -499s297.167 -186 510.5 -186c62.667 0 122.834 3.83301 180.501 11.5s101.5 17.834 131.5 30.501v-142c-90 -29.333 -196.333 -44 -319 -44c-258.667 0 -465 75.667 -619 227s-231 353.666 -231 606.999
c0 122 20.333 234.833 61 338.5s97.334 192 170.001 265s160.667 129.833 264 170.5s216 61 338 61z" />
    <glyph glyph-name="A" unicode="A" horiz-adv-x="1423" 
d="M1115 0l-132 383h-550l-133 -383h-230l521 1443h241l521 -1443h-238zM700 1181l-210 -610h436l-209 610h-17z" />
    <glyph glyph-name="B" unicode="B" horiz-adv-x="1373" 
d="M774 0l-593 -0.000976562v1443h580c135.333 0 241.5 -32.167 318.5 -96.5s115.5 -152.166 115.5 -263.499c0 -75.333 -24.333 -142.833 -73 -202.5s-108.667 -95.5 -180 -107.5v-17c97.333 -10 175.833 -46.833 235.5 -110.5s89.5 -142.5 89.5 -236.5
c0 -127.333 -43.667 -227.333 -131 -300s-208 -109 -362 -109zM405 1253v-421.001h266c98.667 0 173.5 17.833 224.5 53.5s76.5 87.834 76.5 156.501c0 66.667 -23.167 118.5 -69.5 155.5s-110.833 55.5 -193.5 55.5h-304zM405 189.998h323.999
c100.667 0 177.334 20 230.001 60s79 98.333 79 175c0 75.333 -27.333 132.5 -82 171.5s-134.667 58.5 -240 58.5h-311v-465z" />
    <glyph glyph-name="C" unicode="C" horiz-adv-x="1485" 
d="M773 -35c-200.667 0 -359.333 67.667 -476 203s-175 319.666 -175 552.999c0 234 58.167 418.667 174.5 554s274.833 203 475.5 203c158.667 0 293.834 -46.5 405.501 -139.5s176.5 -213.167 194.5 -360.5h-223c-21.333 88.667 -65.833 159.334 -133.5 212.001
s-148.834 79 -243.501 79c-129.333 0 -231.833 -49.167 -307.5 -147.5s-113.5 -231.833 -113.5 -400.5c0 -168 37.833 -301.167 113.5 -399.5s178.5 -147.5 308.5 -147.5c95.333 0 176.833 24 244.5 72s111.5 112.667 131.5 194h223
c-20 -142.667 -84.667 -257.5 -194 -344.5s-244.333 -130.5 -405 -130.5z" />
    <glyph glyph-name="D" unicode="D" horiz-adv-x="1502" 
d="M181 1443l521 0.00195312c214 0 380.667 -62.833 500 -188.5s179 -301.834 179 -528.501c0 -230.667 -59.333 -409.334 -178 -536.001s-285.667 -190 -501 -190h-521v1443zM405 1239v-1035h272c151.333 0 268.5 45.167 351.5 135.5s124.5 218.166 124.5 383.499
c0 162.667 -41.833 289.334 -125.5 380.001s-200.5 136 -350.5 136h-272z" />
    <glyph glyph-name="E" unicode="E" horiz-adv-x="1239" 
d="M1097 204v-204h-916v1443h916v-204h-692v-408h655v-194h-655v-433h692z" />
    <glyph glyph-name="F" unicode="F" horiz-adv-x="1191" 
d="M405 0h-224v1443h901v-204h-677v-443h620v-198h-620v-598z" />
    <glyph glyph-name="G" unicode="G" horiz-adv-x="1539" 
d="M1412 571c0 -184.667 -56.5 -331.833 -169.5 -441.5s-264.167 -164.5 -453.5 -164.5c-204.667 0 -367 68 -487 204s-180 320.333 -180 553c0 230 60.333 413.5 181 550.5s282 205.5 484 205.5c164 0 301.333 -43.167 412 -129.5s178.334 -202.5 203.001 -348.5h-225
c-28 87.333 -75.333 154 -142 200s-149.334 69 -248.001 69c-133.333 0 -239.333 -49.167 -318 -147.5s-118 -230.833 -118 -397.5c0 -170 39.5 -304.167 118.5 -402.5s186.5 -147.5 322.5 -147.5c118 0 214 33 288 99s111.333 152.333 112 259v31h-372v188h592v-180z" />
    <glyph glyph-name="H" unicode="H" horiz-adv-x="1550" 
d="M1369 0h-223v633h-741v-633h-224v1443h224v-606h741v606h223v-1443z" />
    <glyph glyph-name="I" unicode="I" horiz-adv-x="585" 
d="M405 0h-224v1443h224v-1443z" />
    <glyph glyph-name="J" unicode="J" horiz-adv-x="1148" 
d="M82 375h220c1.33301 -59.333 22 -107.333 62 -144s92 -55 156 -55c72 0 127.333 21.167 166 63.5s58 103.5 58 183.5v1020h224v-1021c0 -144.667 -39.5 -257 -118.5 -337s-188.167 -120 -327.5 -120c-131.333 0 -237.5 37.5 -318.5 112.5s-121.5 174.167 -121.5 297.5z
" />
    <glyph glyph-name="K" unicode="K" horiz-adv-x="1386" 
d="M405 0h-224v1443h224v-676h16l597 676h265l-558 -627l606 -816h-280l-484 655l-162 -181v-474z" />
    <glyph glyph-name="L" unicode="L" horiz-adv-x="1183" 
d="M1081 206v-206h-900v1443h224v-1237h676z" />
    <glyph glyph-name="M" unicode="M" horiz-adv-x="1822" 
d="M1641 0h-208v1042h-14l-423 -1000h-170l-423 1000h-14v-1042h-208v1443h262l459 -1096h17l460 1096h262v-1443z" />
    <glyph glyph-name="N" unicode="N" horiz-adv-x="1539" 
d="M399 0h-218v1443h202l741 -1025h16v1025h218v-1443h-202l-741 1025h-16v-1025z" />
    <glyph glyph-name="O" unicode="O" horiz-adv-x="1590" 
d="M796 1478c208 0 372 -67.833 492 -203.5s180 -319.834 180 -552.501s-60 -417 -180 -553s-284 -204 -492 -204c-208.667 0 -373.167 67.833 -493.5 203.5s-180.5 320.167 -180.5 553.5c0 232.667 60.5 416.834 181.5 552.501s285.167 203.5 492.5 203.5zM796 1269
c-136 0 -244.167 -49.333 -324.5 -148s-120.5 -231.667 -120.5 -399s39.667 -300.5 119 -399.5s188 -148.5 326 -148.5c136.667 0 244.667 49.5 324 148.5s119 232.167 119 399.5c0 168 -39.667 301.167 -119 399.5s-187.333 147.5 -324 147.5z" />
    <glyph glyph-name="P" unicode="P" horiz-adv-x="1329" 
d="M181 1443h565c141.333 0 256 -44.5 344 -133.5s132 -204.833 132 -347.5c0 -140.667 -45 -255.167 -135 -343.5s-206 -132.5 -348 -132.5h-334v-486h-224v1443zM405 1245v-561.999h282c96.667 0 171.834 24.167 225.501 72.5s80.5 117.166 80.5 206.499
c0 91.333 -26.333 161.333 -79 210s-128.334 73 -227.001 73h-282z" />
    <glyph glyph-name="Q" unicode="Q" horiz-adv-x="1590" 
d="M796 -35c-208 0 -372.334 67.5 -493.001 202.5s-181 319.5 -181 553.5c0 233.333 60.5 417.833 181.5 553.5s285.167 203.5 492.5 203.5c206.667 0 370.334 -67.833 491.001 -203.5s181 -320.167 181 -553.5c0 -137.333 -21.167 -258.5 -63.5 -363.5
s-102.833 -187.833 -181.5 -248.5l181 -262h-234l-118 159c-76.667 -27.333 -162 -41 -256 -41zM796.999 174c46.667 0 92 6 136 18l-181 251h229l108 -134c48 41.333 85 97.333 111 168s39 152 39 244c0 168 -40 301.333 -120 400s-187.667 148 -323 148
c-136 0 -244 -49.167 -324 -147.5s-120 -231.833 -120 -400.5s39.833 -302 119.5 -400s188.167 -147 325.5 -147z" />
    <glyph glyph-name="R" unicode="R" horiz-adv-x="1368" 
d="M405 1246v-505.001h322c86.667 0 153.834 22 201.501 66s71.5 106.333 71.5 187c0 78.667 -24.833 140.334 -74.5 185.001s-117.834 67 -204.501 67h-316zM405 549.999v-550.001h-224v1443h571c145.333 0 261.333 -40.167 348 -120.5s130 -188.166 130 -323.499
c0 -97.333 -24.833 -182.833 -74.5 -256.5s-118.167 -125.5 -205.5 -155.5l324 -587h-259l-294 550h-316z" />
    <glyph glyph-name="S" unicode="S" horiz-adv-x="1333" 
d="M113 388l222 -0.00195312c9.33301 -68.667 45.166 -123.167 107.499 -163.5s141.833 -60.5 238.5 -60.5c90 0 164.5 20.833 223.5 62.5s88.5 94.5 88.5 158.5c0 54.667 -21.833 99.5 -65.5 134.5s-113.5 63.833 -209.5 86.5l-186 45
c-130.667 30.667 -226.667 78.334 -288 143.001s-92 150 -92 256c0 128.667 48.167 232.167 144.5 310.5s223.166 117.5 380.499 117.5c146.667 0 268.334 -38.667 365.001 -116s148.334 -176.666 155.001 -297.999h-218c-10.667 66.667 -43.167 119.334 -97.5 158.001
s-123.5 58 -207.5 58c-88.667 0 -160 -19.667 -214 -59s-81 -91.333 -81 -156c0 -51.333 20.5 -93 61.5 -125s108.5 -59 202.5 -81l159 -39c148 -34.667 254.667 -83.834 320 -147.501s98 -149.834 98 -258.501c0 -138 -50 -247.333 -150 -328s-235.333 -121 -406 -121
c-160 0 -289.833 38.333 -389.5 115s-153.5 179.334 -161.5 308.001z" />
    <glyph glyph-name="T" unicode="T" horiz-adv-x="1317" 
d="M771 0h-224v1239h-454v204h1131v-204h-453v-1239z" />
    <glyph glyph-name="U" unicode="U" horiz-adv-x="1538" 
d="M409 1443v-926c0 -102.667 31.833 -185.334 95.5 -248.001s151.834 -94 264.501 -94c113.333 0 201.833 31.333 265.5 94s95.5 145.334 95.5 248.001v926h224v-946c0 -158.667 -52.833 -287 -158.5 -385s-247.834 -147 -426.501 -147s-320.667 49 -426 147
s-158 226.333 -158 385v946h224z" />
    <glyph glyph-name="V" unicode="V" horiz-adv-x="1415" 
d="M832 0h-246l-516 1443h244l389 -1163h17l387 1163h238z" />
    <glyph glyph-name="W" unicode="W" horiz-adv-x="2013" 
d="M999 1059l-309 -1059h-212l-389 1443h233l265 -1105h14l301 1105h208l303 -1105h14l264 1105h233l-390 -1443h-211l-310 1059h-14z" />
    <glyph glyph-name="X" unicode="X" horiz-adv-x="1427" 
d="M89 0l482 726l-477 717h267l351 -544h17l357 544h252l-490 -723l481 -720h-262l-354 534h-17l-359 -534h-248z" />
    <glyph glyph-name="Y" unicode="Y" horiz-adv-x="1383" 
d="M803 0h-224v582l-508 861h249l363 -625h17l363 625h249l-509 -861v-582z" />
    <glyph glyph-name="Z" unicode="Z" horiz-adv-x="1365" 
d="M141 0v161l784 1061v17h-760v204h1041v-161l-780 -1061v-17h799v-204h-1084z" />
    <glyph glyph-name="bracketleft" unicode="[" horiz-adv-x="817" 
d="M262 1514h477v-174h-268v-1475h268v-173h-477v1822z" />
    <glyph glyph-name="backslash" unicode="\" horiz-adv-x="722" 
d="M525 -308l-525 1822h197l525 -1822h-197z" />
    <glyph glyph-name="bracketright" unicode="]" horiz-adv-x="817" 
d="M555 1514v-1822h-478v173h269v1475h-269v174h478z" />
    <glyph glyph-name="asciicircum" unicode="^" horiz-adv-x="1014" 
d="M498 1237l-206 -461h-197l304 638h215l304 -638h-196l-207 461h-17z" />
    <glyph glyph-name="underscore" unicode="_" horiz-adv-x="926" 
d="M934 -278h-941v171h941v-171z" />
    <glyph glyph-name="grave" unicode="`" horiz-adv-x="1095" 
d="M798 1271h-221l-282 344h252z" />
    <glyph glyph-name="a" unicode="a" horiz-adv-x="1158" 
d="M512 163c80.667 0 147.833 22.667 201.5 68s80.5 102 80.5 170v91l-266 -17c-74.667 -4.66699 -129.667 -20 -165 -46s-53 -63 -53 -111s18.667 -85.833 56 -113.5s86 -41.5 146 -41.5zM456.999 -18c-106.667 0 -193.833 29.833 -261.5 89.5s-101.5 138.5 -101.5 236.5
c0 97.333 35 173.833 105 229.5s170 87.5 300 95.5l295 17v94c0 58 -19 102.5 -57 133.5s-93.333 46.5 -166 46.5c-60 0 -109.833 -10.5 -149.5 -31.5s-65.5 -50.833 -77.5 -89.5h-208c10.667 93.333 56.5 167.833 137.5 223.5s183.5 83.5 307.5 83.5
c136 0 241.167 -32.167 315.5 -96.5s111.5 -154.166 111.5 -269.499v-744h-207v153h-17c-32.667 -54.667 -77.5 -96.834 -134.5 -126.501s-121.167 -44.5 -192.5 -44.5z" />
    <glyph glyph-name="b" unicode="b" horiz-adv-x="1285" 
d="M733 -18c-76 0 -144.168 16.667 -204.501 50s-106.833 80 -139.5 140h-16v-172h-207v1514h215v-598h17c28.667 59.333 73 106 133 140s127.333 51 202 51c138 0 247.5 -50.5 328.5 -151.5s121.5 -237.833 121.5 -410.5s-40.667 -309.667 -122 -411
s-190.666 -152 -327.999 -152zM670.999 914c-90 0 -161.332 -33.168 -213.999 -99.501s-79.334 -156.5 -80.001 -270.5c0.666992 -114 27.167 -204 79.5 -270s123.833 -99 214.5 -99s161.834 32.833 213.501 98.5s77.5 156.167 77.5 271.5
c0 114.667 -25.833 204.834 -77.5 270.501s-122.834 98.5 -213.501 98.5z" />
    <glyph glyph-name="c" unicode="c" horiz-adv-x="1167" 
d="M1078 733h-209.005c-13.333 55.333 -42.166 100 -86.499 134s-101.166 51 -170.499 51c-90 0 -160.833 -32.667 -212.5 -98s-77.5 -156 -77.5 -272c0 -117.333 25.833 -209.5 77.5 -276.5s122.5 -100.5 212.5 -100.5c68.667 0 125.167 15.333 169.5 46s73.5 75 87.5 133
h209c-14 -112 -62 -201.833 -144 -269.5s-189 -101.5 -321 -101.5c-158.667 0 -283.5 50.5 -374.5 151.5s-136.5 240.167 -136.5 417.5c0 174.667 45.333 312 136 412s215.334 150 374.001 150c132.667 0 239.834 -34.667 321.501 -104s129.834 -160.333 144.501 -273z" />
    <glyph glyph-name="d" unicode="d" horiz-adv-x="1285" 
d="M554 -18c-138.667 0 -248.666 50.667 -329.999 152s-122 238.333 -122 411c0 172 40.833 308.667 122.5 410s191.5 152 329.5 152c74.667 0 141.667 -16.833 201 -50.5s103.666 -80.5 132.999 -140.5h16v598h215v-1514h-206v172h-17
c-32.667 -59.333 -79.167 -105.833 -139.5 -139.5s-127.833 -50.5 -202.5 -50.5zM615.001 914c-90.667 0 -161.834 -32.832 -213.501 -98.499s-77.5 -155.834 -77.5 -270.501c0 -115.333 25.833 -205.833 77.5 -271.5s122.834 -98.5 213.501 -98.5s162.167 33 214.5 99
s78.5 156 78.5 270c0 113.333 -26.333 203.333 -79 270s-124 100 -214 100z" />
    <glyph glyph-name="e" unicode="e" horiz-adv-x="1192" 
d="M603 927c-79.333 0 -144.668 -25.668 -196.001 -77.001s-80 -119.666 -86 -204.999h550c-2.66699 86 -28.167 154.5 -76.5 205.5s-112.166 76.5 -191.499 76.5zM869.998 293.999l207.002 -0.000976562c-24.667 -98 -78.5 -175 -161.5 -231s-186.5 -84 -310.5 -84
c-156 0 -278.833 50.167 -368.5 150.5s-134.5 237.5 -134.5 411.5s45.333 312.333 136 415s212.667 154 366 154c151.333 0 270.166 -48.667 356.499 -146s129.5 -231.666 129.5 -402.999v-75h-769v-12c3.33301 -96 31 -172 83 -228s121 -84 207 -84
c131.333 0 217.666 44 258.999 132z" />
    <glyph glyph-name="f" unicode="f" horiz-adv-x="775" 
d="M233 0l-0.000976562 903.001h-179v181h179v117c0 215.333 112 323 336 323c46.667 0 89.334 -3.66699 128.001 -11v-169c-20 4 -47.667 6 -83 6c-59.333 0 -102.333 -13.333 -129 -40s-40 -67.334 -40 -122.001v-104h243v-181h-240v-903h-215z" />
    <glyph glyph-name="g" unicode="g" horiz-adv-x="1274" 
d="M612 202c91.333 0 163.333 32 216 96s79 150.667 79 260c0 108.667 -26.333 195.167 -79 259.5s-124.667 96.5 -216 96.5s-162.333 -31.833 -213 -95.5s-76 -150.5 -76 -260.5s25.333 -196.833 76 -260.5s121.667 -95.5 213 -95.5zM615 -416
c-134.667 0 -243.997 27.833 -327.997 83.5s-131.667 130.167 -143 223.5h220c9.33301 -40 36.166 -71.667 80.499 -95s102.166 -35 173.499 -35c89.333 0 159.166 20.167 209.499 60.5s75.5 96.5 75.5 168.5v209h-16c-32.667 -58.667 -78 -103.834 -136 -135.501
s-124.667 -47.5 -200 -47.5c-138 0 -247.5 49.167 -328.5 147.5s-121.5 229.5 -121.5 393.5c0 166.667 40.667 300 122 400s191.333 150 330 150c74.667 0 142.667 -17.167 204 -51.5s107.333 -81.166 138 -140.499h17v174h206v-1098c0 -124.667 -45.333 -223.667 -136 -297
s-213 -110 -367 -110z" />
    <glyph glyph-name="h" unicode="h" horiz-adv-x="1249" 
d="M166 0l-0.000976562 1514h213v-600h17c26.667 62 68.5 110 125.5 144s125.833 51 206.5 51c116.667 0 208.334 -35.5 275.001 -106.5s100 -170.833 100 -299.5v-703h-215v650c0 86.667 -19.667 152 -59 196s-97.333 66 -174 66c-86.667 0 -154 -25 -202 -75
s-72 -117 -72 -201v-636h-215z" />
    <glyph glyph-name="i" unicode="i" horiz-adv-x="534" 
d="M160 0v1089h214v-1089h-214zM267 1280c-40 0 -73.167 12.5 -99.5 37.5s-39.5 56.167 -39.5 93.5s13.167 68.666 39.5 93.999s59.5 38 99.5 38s73.167 -12.667 99.5 -38s39.5 -56.666 39.5 -93.999s-13.167 -68.5 -39.5 -93.5s-59.5 -37.5 -99.5 -37.5z" />
    <glyph glyph-name="j" unicode="j" horiz-adv-x="534" 
d="M374 1089l0.000976562 -1134c0 -111.333 -28.833 -193.666 -86.5 -246.999s-145.834 -80 -264.501 -80c-28.667 0 -44.667 0.333008 -48 1v180h30c56.667 0 96.667 11.333 120 34s35 60.667 35 114v1132h214zM267.001 1280c-40 0 -73.167 12.5 -99.5 37.5
s-39.5 56.167 -39.5 93.5s13.167 68.666 39.5 93.999s59.5 38 99.5 38s73.167 -12.667 99.5 -38s39.5 -56.666 39.5 -93.999s-13.167 -68.5 -39.5 -93.5s-59.5 -37.5 -99.5 -37.5z" />
    <glyph glyph-name="k" unicode="k" horiz-adv-x="1155" 
d="M398 635l432 454h254l-448 -467l478 -622h-264l-374 480l-95 -90v-390h-215v1514h215v-879h17z" />
    <glyph glyph-name="l" unicode="l" horiz-adv-x="547" 
d="M166 0v1514h215v-1514h-215z" />
    <glyph glyph-name="m" unicode="m" horiz-adv-x="1824" 
d="M156 0v1089h207v-175h16c24 62 62.5 110.167 115.5 144.5s115.5 51.5 187.5 51.5c72.667 0 134.667 -17.333 186 -52s89.333 -82.667 114 -144h17c28 60 71.5 107.667 130.5 143s125.833 53 200.5 53c110 0 195.5 -31.667 256.5 -95s91.5 -151.666 91.5 -264.999v-750
h-215v694c0 146 -70.333 219 -211 219c-68.667 0 -124.167 -21.667 -166.5 -65s-63.5 -97.666 -63.5 -162.999v-685h-211v715c0 61.333 -19 109.666 -57 144.999s-89 53 -153 53c-65.333 0 -120 -23.667 -164 -71s-66 -106 -66 -176v-666h-215z" />
    </font>
</defs>
</svg>
